<svg width="49" height="61" viewBox="0 0 49 61" fill="none" xmlns="http://www.w3.org/2000/svg">
<path d="M32.375 8.375H16.625C15.7299 8.375 14.8715 8.73058 14.2385 9.36351C13.6056 9.99645 13.25 10.8549 13.25 11.75V34.25C13.25 35.1451 13.6056 36.0035 14.2385 36.6365C14.8715 37.2694 15.7299 37.625 16.625 37.625H32.375C33.2701 37.625 34.1285 37.2694 34.7615 36.6365C35.3944 36.0035 35.75 35.1451 35.75 34.25V11.75C35.75 10.8549 35.3944 9.99645 34.7615 9.36351C34.1285 8.73058 33.2701 8.375 32.375 8.375Z" stroke="#1A1A1A" stroke-width="1.5" stroke-linejoin="round"/>
<path d="M29 8.375V37.625" stroke="#1A1A1A" stroke-width="1.5" stroke-linejoin="round"/>
<path d="M6.41335 54H5.24858L7.86577 46.7273H9.13352L11.7507 54H10.5859L8.52983 48.0483H8.47301L6.41335 54ZM6.60866 51.152H10.3871V52.0753H6.60866V51.152ZM16.709 48.6378C16.6711 48.3016 16.5149 48.0412 16.2402 47.8565C15.9656 47.6695 15.62 47.576 15.2033 47.576C14.905 47.576 14.647 47.6233 14.4292 47.718C14.2114 47.8104 14.0421 47.9382 13.9213 48.1016C13.803 48.2625 13.7438 48.446 13.7438 48.652C13.7438 48.8248 13.784 48.974 13.8645 49.0994C13.9474 49.2249 14.0551 49.3303 14.1877 49.4155C14.3226 49.4983 14.467 49.5682 14.6209 49.625C14.7748 49.6795 14.9228 49.7244 15.0648 49.7599L15.775 49.9446C16.007 50.0014 16.245 50.0784 16.4888 50.1754C16.7327 50.2725 16.9587 50.4003 17.1671 50.5589C17.3754 50.7176 17.5435 50.9141 17.6713 51.1484C17.8016 51.3828 17.8667 51.6634 17.8667 51.9901C17.8667 52.402 17.7601 52.7678 17.5471 53.0874C17.3364 53.407 17.0298 53.6591 16.6273 53.8438C16.2272 54.0284 15.7431 54.1207 15.1749 54.1207C14.6304 54.1207 14.1593 54.0343 13.7615 53.8615C13.3638 53.6887 13.0525 53.4437 12.8276 53.1264C12.6027 52.8068 12.4784 52.428 12.4547 51.9901H13.5556C13.5769 52.2528 13.6621 52.4718 13.8113 52.647C13.9628 52.8198 14.1557 52.9489 14.3901 53.0341C14.6268 53.117 14.8861 53.1584 15.1678 53.1584C15.4779 53.1584 15.7537 53.1098 15.9952 53.0128C16.2391 52.9134 16.4308 52.776 16.5705 52.6009C16.7102 52.4233 16.78 52.2161 16.78 51.9794C16.78 51.764 16.7185 51.5876 16.5953 51.4503C16.4746 51.313 16.3101 51.1993 16.1017 51.1094C15.8958 51.0194 15.6626 50.9401 15.4022 50.8714L14.5428 50.6371C13.9604 50.4785 13.4988 50.2453 13.1578 49.9375C12.8193 49.6297 12.65 49.2225 12.65 48.7159C12.65 48.2969 12.7637 47.9311 12.9909 47.6186C13.2182 47.3061 13.526 47.0634 13.9142 46.8906C14.3025 46.7154 14.7405 46.6278 15.2282 46.6278C15.7206 46.6278 16.155 46.7143 16.5314 46.8871C16.9102 47.0599 17.2085 47.2978 17.4263 47.6009C17.6441 47.9015 17.7578 48.2472 17.7672 48.6378H16.709ZM23.1445 48.6378C23.1067 48.3016 22.9504 48.0412 22.6758 47.8565C22.4012 47.6695 22.0555 47.576 21.6388 47.576C21.3406 47.576 21.0825 47.6233 20.8647 47.718C20.6469 47.8104 20.4776 47.9382 20.3569 48.1016C20.2385 48.2625 20.1793 48.446 20.1793 48.652C20.1793 48.8248 20.2196 48.974 20.3001 49.0994C20.3829 49.2249 20.4906 49.3303 20.6232 49.4155C20.7582 49.4983 20.9026 49.5682 21.0565 49.625C21.2103 49.6795 21.3583 49.7244 21.5004 49.7599L22.2106 49.9446C22.4426 50.0014 22.6805 50.0784 22.9244 50.1754C23.1682 50.2725 23.3943 50.4003 23.6026 50.5589C23.811 50.7176 23.979 50.9141 24.1069 51.1484C24.2371 51.3828 24.3022 51.6634 24.3022 51.9901C24.3022 52.402 24.1957 52.7678 23.9826 53.0874C23.7719 53.407 23.4653 53.6591 23.0629 53.8438C22.6628 54.0284 22.1786 54.1207 21.6104 54.1207C21.0659 54.1207 20.5948 54.0343 20.1971 53.8615C19.7994 53.6887 19.488 53.4437 19.2631 53.1264C19.0382 52.8068 18.9139 52.428 18.8903 51.9901H19.9911C20.0124 52.2528 20.0977 52.4718 20.2468 52.647C20.3983 52.8198 20.5913 52.9489 20.8256 53.0341C21.0624 53.117 21.3216 53.1584 21.6033 53.1584C21.9135 53.1584 22.1893 53.1098 22.4308 53.0128C22.6746 52.9134 22.8664 52.776 23.006 52.6009C23.1457 52.4233 23.2156 52.2161 23.2156 51.9794C23.2156 51.764 23.154 51.5876 23.0309 51.4503C22.9102 51.313 22.7456 51.1993 22.5373 51.1094C22.3313 51.0194 22.0981 50.9401 21.8377 50.8714L20.9783 50.6371C20.396 50.4785 19.9343 50.2453 19.5934 49.9375C19.2549 49.6297 19.0856 49.2225 19.0856 48.7159C19.0856 48.2969 19.1992 47.9311 19.4265 47.6186C19.6538 47.3061 19.9615 47.0634 20.3498 46.8906C20.738 46.7154 21.176 46.6278 21.6637 46.6278C22.1561 46.6278 22.5906 46.7143 22.967 46.8871C23.3458 47.0599 23.6441 47.2978 23.8619 47.6009C24.0797 47.9015 24.1933 48.2472 24.2028 48.6378H23.1445ZM25.6135 54V46.7273H30.1731V47.6719H26.7108V49.8878H29.9352V50.8288H26.7108V53.0554H30.2157V54H25.6135ZM31.2802 47.6719V46.7273H36.9087V47.6719H34.6396V54H33.5458V47.6719H31.2802ZM42.1191 48.6378C42.0813 48.3016 41.925 48.0412 41.6504 47.8565C41.3758 47.6695 41.0301 47.576 40.6135 47.576C40.3152 47.576 40.0571 47.6233 39.8393 47.718C39.6215 47.8104 39.4522 47.9382 39.3315 48.1016C39.2131 48.2625 39.1539 48.446 39.1539 48.652C39.1539 48.8248 39.1942 48.974 39.2747 49.0994C39.3575 49.2249 39.4653 49.3303 39.5978 49.4155C39.7328 49.4983 39.8772 49.5682 40.0311 49.625C40.185 49.6795 40.3329 49.7244 40.475 49.7599L41.1852 49.9446C41.4172 50.0014 41.6551 50.0784 41.899 50.1754C42.1428 50.2725 42.3689 50.4003 42.5772 50.5589C42.7856 50.7176 42.9537 50.9141 43.0815 51.1484C43.2117 51.3828 43.2768 51.6634 43.2768 51.9901C43.2768 52.402 43.1703 52.7678 42.9572 53.0874C42.7465 53.407 42.4399 53.6591 42.0375 53.8438C41.6374 54.0284 41.1532 54.1207 40.585 54.1207C40.0405 54.1207 39.5694 54.0343 39.1717 53.8615C38.774 53.6887 38.4627 53.4437 38.2377 53.1264C38.0128 52.8068 37.8886 52.428 37.8649 51.9901H38.9657C38.987 52.2528 39.0723 52.4718 39.2214 52.647C39.3729 52.8198 39.5659 52.9489 39.8002 53.0341C40.037 53.117 40.2962 53.1584 40.5779 53.1584C40.8881 53.1584 41.1639 53.1098 41.4054 53.0128C41.6492 52.9134 41.841 52.776 41.9806 52.6009C42.1203 52.4233 42.1902 52.2161 42.1902 51.9794C42.1902 51.764 42.1286 51.5876 42.0055 51.4503C41.8848 51.313 41.7202 51.1993 41.5119 51.1094C41.3059 51.0194 41.0727 50.9401 40.8123 50.8714L39.9529 50.6371C39.3706 50.4785 38.9089 50.2453 38.568 49.9375C38.2295 49.6297 38.0602 49.2225 38.0602 48.7159C38.0602 48.2969 38.1738 47.9311 38.4011 47.6186C38.6284 47.3061 38.9361 47.0634 39.3244 46.8906C39.7127 46.7154 40.1506 46.6278 40.6383 46.6278C41.1307 46.6278 41.5652 46.7143 41.9416 46.8871C42.3204 47.0599 42.6187 47.2978 42.8365 47.6009C43.0543 47.9015 43.1679 48.2472 43.1774 48.6378H42.1191Z" fill="#1A1A1A"/>
</svg>
