<svg width="47" height="61" viewBox="0 0 47 61" fill="none" xmlns="http://www.w3.org/2000/svg">
<path d="M23.5 5C19.2497 5 15.7918 8.4579 15.7918 12.7081V22.75C15.7918 27.0004 19.2497 30.4582 23.5 30.4582C27.7503 30.4582 31.2082 27.0003 31.2082 22.75V12.7081C31.2082 8.4579 27.7503 5 23.5 5ZM29.0988 22.75C29.0988 25.8372 26.5872 28.3488 23.5 28.3488C20.4128 28.3488 17.9012 25.8372 17.9012 22.75V12.7081C17.9012 9.62101 20.4128 7.10938 23.5 7.10938C26.5872 7.10938 29.0988 9.62101 29.0988 12.7081V22.75Z" fill="#1A1A1A"/>
<path d="M34.5687 22.3748C34.5687 28.4782 29.6033 33.4436 23.5 33.4436C17.3967 33.4436 12.4313 28.4782 12.4313 22.3748H10.3219C10.3219 25.8815 11.6964 29.1871 14.192 31.6828C16.4359 33.9266 19.3346 35.2634 22.4453 35.5105V41H24.5547V35.5106C27.6654 35.2635 30.5641 33.9267 32.808 31.6829C35.3036 29.1871 36.6781 25.8815 36.6781 22.3748H34.5687Z" fill="#1A1A1A"/>
<path d="M8.91335 54H7.74858L10.3658 46.7273H11.6335L14.2507 54H13.0859L11.0298 48.0483H10.973L8.91335 54ZM9.10866 51.152H12.8871V52.0753H9.10866V51.152ZM19.9778 46.7273H21.0787V51.5107C21.0787 52.0196 20.9591 52.4706 20.72 52.8636C20.4809 53.2543 20.1447 53.562 19.7115 53.7869C19.2782 54.0095 18.7704 54.1207 18.188 54.1207C17.608 54.1207 17.1014 54.0095 16.6681 53.7869C16.2349 53.562 15.8987 53.2543 15.6596 52.8636C15.4205 52.4706 15.301 52.0196 15.301 51.5107V46.7273H16.3983V51.4219C16.3983 51.7509 16.4705 52.0433 16.6149 52.299C16.7617 52.5547 16.9688 52.7559 17.2363 52.9027C17.5038 53.0471 17.8211 53.1193 18.188 53.1193C18.5574 53.1193 18.8758 53.0471 19.1433 52.9027C19.4132 52.7559 19.6191 52.5547 19.7612 52.299C19.9056 52.0433 19.9778 51.7509 19.9778 51.4219V46.7273ZM25.0284 54H22.674V46.7273H25.103C25.8156 46.7273 26.4276 46.8729 26.9389 47.1641C27.4503 47.4529 27.8421 47.8684 28.1143 48.4105C28.389 48.9503 28.5263 49.5978 28.5263 50.353C28.5263 51.1106 28.3878 51.7616 28.1108 52.3061C27.8362 52.8506 27.4384 53.2696 26.9176 53.5632C26.3968 53.8544 25.767 54 25.0284 54ZM23.7713 53.0412H24.968C25.522 53.0412 25.9825 52.937 26.3494 52.7287C26.7164 52.518 26.991 52.2138 27.1733 51.8161C27.3556 51.416 27.4467 50.9283 27.4467 50.353C27.4467 49.7824 27.3556 49.2983 27.1733 48.9006C26.9934 48.5028 26.7247 48.201 26.3672 47.995C26.0097 47.7891 25.5658 47.6861 25.0355 47.6861H23.7713V53.0412ZM30.9881 46.7273V54H29.8908V46.7273H30.9881ZM38.9036 50.3636C38.9036 51.1402 38.7615 51.8078 38.4775 52.3665C38.1934 52.9228 37.8039 53.3513 37.3091 53.652C36.8167 53.9503 36.2568 54.0994 35.6294 54.0994C34.9997 54.0994 34.4374 53.9503 33.9426 53.652C33.4502 53.3513 33.062 52.9216 32.7779 52.3629C32.4938 51.8042 32.3517 51.1378 32.3517 50.3636C32.3517 49.5871 32.4938 48.9207 32.7779 48.3643C33.062 47.8056 33.4502 47.3771 33.9426 47.0788C34.4374 46.7782 34.9997 46.6278 35.6294 46.6278C36.2568 46.6278 36.8167 46.7782 37.3091 47.0788C37.8039 47.3771 38.1934 47.8056 38.4775 48.3643C38.7615 48.9207 38.9036 49.5871 38.9036 50.3636ZM37.8169 50.3636C37.8169 49.7718 37.7211 49.2734 37.5293 48.8686C37.3399 48.4614 37.0795 48.1536 36.748 47.9453C36.419 47.7346 36.0461 47.6293 35.6294 47.6293C35.2104 47.6293 34.8364 47.7346 34.5073 47.9453C34.1782 48.1536 33.9178 48.4614 33.726 48.8686C33.5366 49.2734 33.4419 49.7718 33.4419 50.3636C33.4419 50.9555 33.5366 51.455 33.726 51.8622C33.9178 52.267 34.1782 52.5748 34.5073 52.7855C34.8364 52.9938 35.2104 53.098 35.6294 53.098C36.0461 53.098 36.419 52.9938 36.748 52.7855C37.0795 52.5748 37.3399 52.267 37.5293 51.8622C37.7211 51.455 37.8169 50.9555 37.8169 50.3636Z" fill="#1A1A1A"/>
</svg>
