<svg width="49" height="61" viewBox="0 0 49 61" fill="none" xmlns="http://www.w3.org/2000/svg">
<g clip-path="url(#clip0_156_1607)">
<path d="M42.5 22.999C42.5 22.1432 42.0461 21.3634 41.2839 20.9111L39.2793 19.7318C39.9482 19.3347 40.617 18.9372 41.2855 18.5395C42.0462 18.0856 42.5 17.3058 42.5 16.4532C42.5 15.6006 42.0461 14.8208 41.2855 14.3661C38.7798 12.8759 30.2832 7.82664 26.0948 5.42555C25.1248 4.8686 23.9455 4.84628 22.8971 5.43038C22.8971 5.43038 11.5065 12.1209 7.716 14.3654C6.95386 14.8176 6.5 15.5974 6.5 16.4532C6.5 17.3058 6.95386 18.0856 7.71446 18.5403C8.38292 18.9379 9.05153 19.3351 9.72029 19.7321L7.71607 20.9111C6.95386 21.3634 6.5 22.1432 6.5 22.999C6.5 23.8516 6.95386 24.6315 7.71446 25.0862C8.38292 25.4837 9.05153 25.8809 9.72029 26.2779L7.71607 27.457C6.95386 27.9092 6.5 28.6891 6.5 29.5448C6.5 30.3974 6.95386 31.1773 7.71446 31.632C10.9568 33.56 18.9261 38.2912 22.9052 40.5725C23.3926 40.8522 23.9455 41 24.5 41C25.0545 41 25.6075 40.8522 26.0965 40.5717C30.0739 38.2912 38.0432 33.56 41.2856 31.6311C42.0463 31.1773 42.5001 30.3974 42.5001 29.5448C42.5001 28.6891 42.0462 27.9092 41.284 27.457L39.2794 26.2776C39.9483 25.8805 40.6171 25.483 41.2856 25.0853C42.0462 24.6315 42.5 23.8516 42.5 22.999ZM8.55185 17.1361C8.4272 17.061 8.13634 16.8453 8.13634 16.4546C8.13634 16.0623 8.42559 15.8482 8.55024 15.7746C12.3359 13.5326 23.7106 6.8521 23.709 6.85287C24.23 6.55963 24.7988 6.57083 25.2814 6.84727C29.4586 9.24191 37.9473 14.2852 40.4482 15.773C40.5728 15.8481 40.8637 16.0639 40.8637 16.4545C40.8637 16.8452 40.5728 17.0609 40.4482 17.1353C37.2106 19.0609 29.2509 23.787 25.283 26.061C24.7908 26.3423 24.2076 26.3414 23.7186 26.0618C19.7491 23.787 11.7894 19.0609 8.55185 17.1361ZM40.4498 28.8655C40.5744 28.939 40.8637 29.1531 40.8637 29.5455C40.8637 29.9362 40.5728 30.1519 40.4482 30.2262C37.2106 32.1518 29.2509 36.878 25.283 39.1519C24.7908 39.4332 24.2076 39.4324 23.7186 39.1527C19.7491 36.878 11.7894 32.1518 8.55185 30.227C8.4272 30.1519 8.13634 29.9361 8.13634 29.5455C8.13634 29.1531 8.42559 28.939 8.55024 28.8655L11.3269 27.2316C15.0799 29.4561 20.0305 32.379 22.9052 34.027C23.3926 34.3067 23.9455 34.4545 24.5 34.4545C25.0545 34.4545 25.6075 34.3067 26.0965 34.0262C28.9699 32.3788 33.9201 29.4563 37.673 27.2315L40.4498 28.8655ZM40.4482 23.6808C37.2106 25.6064 29.2509 30.3325 25.283 32.6065C24.7908 32.8878 24.2076 32.8869 23.7186 32.6073C19.7491 30.3325 11.7894 25.6064 8.55185 23.6816C8.4272 23.6065 8.13634 23.3907 8.13634 23C8.13634 22.6077 8.42559 22.3936 8.55024 22.32L11.3269 20.6862C15.0799 22.9107 20.0305 25.8336 22.9052 27.4816C23.3926 27.7612 23.9455 27.909 24.5 27.909C25.0545 27.909 25.6075 27.7612 26.0965 27.4808C28.9699 25.8333 33.9201 22.9109 37.673 20.6861L40.4498 22.32C40.5745 22.3935 40.8637 22.6077 40.8637 23C40.8637 23.3907 40.5728 23.6065 40.4482 23.6808Z" fill="#1A1A1A"/>
</g>
<path d="M5.79901 54V46.7273H6.89631V53.0554H10.1918V54H5.79901ZM12.429 54H11.2642L13.8814 46.7273H15.1491L17.7663 54H16.6016L14.5455 48.0483H14.4886L12.429 54ZM12.6243 51.152H16.4027V52.0753H12.6243V51.152ZM17.5133 46.7273H18.7598L20.6596 50.0334H20.7377L22.6376 46.7273H23.8841L21.2456 51.1449V54H20.1518V51.1449L17.5133 46.7273ZM24.9201 54V46.7273H29.4798V47.6719H26.0174V49.8878H29.2418V50.8288H26.0174V53.0554H29.5224V54H24.9201ZM30.9455 54V46.7273H33.5378C34.1013 46.7273 34.5688 46.8243 34.9405 47.0185C35.3146 47.2126 35.5939 47.4813 35.7786 47.8246C35.9632 48.1655 36.0556 48.5597 36.0556 49.0071C36.0556 49.4522 35.9621 49.844 35.775 50.1825C35.5904 50.5187 35.311 50.7803 34.937 50.9673C34.5653 51.1544 34.0977 51.2479 33.5343 51.2479H31.5705V50.3033H33.4348C33.79 50.3033 34.0788 50.2524 34.3013 50.1506C34.5262 50.0488 34.6908 49.9008 34.7949 49.7067C34.8991 49.5125 34.9512 49.2794 34.9512 49.0071C34.9512 48.7325 34.8979 48.4946 34.7914 48.2933C34.6872 48.0921 34.5227 47.9382 34.2978 47.8317C34.0752 47.7228 33.7828 47.6683 33.4206 47.6683H32.0428V54H30.9455ZM34.5357 50.7188L36.3326 54H35.0826L33.3212 50.7188H34.5357ZM41.3574 48.6378C41.3195 48.3016 41.1633 48.0412 40.8887 47.8565C40.6141 47.6695 40.2684 47.576 39.8517 47.576C39.5534 47.576 39.2954 47.6233 39.0776 47.718C38.8598 47.8104 38.6905 47.9382 38.5698 48.1016C38.4514 48.2625 38.3922 48.446 38.3922 48.652C38.3922 48.8248 38.4325 48.974 38.513 49.0994C38.5958 49.2249 38.7035 49.3303 38.8361 49.4155C38.9711 49.4983 39.1155 49.5682 39.2694 49.625C39.4232 49.6795 39.5712 49.7244 39.7132 49.7599L40.4235 49.9446C40.6555 50.0014 40.8934 50.0784 41.1373 50.1754C41.3811 50.2725 41.6072 50.4003 41.8155 50.5589C42.0239 50.7176 42.1919 50.9141 42.3198 51.1484C42.45 51.3828 42.5151 51.6634 42.5151 51.9901C42.5151 52.402 42.4086 52.7678 42.1955 53.0874C41.9848 53.407 41.6782 53.6591 41.2757 53.8438C40.8757 54.0284 40.3915 54.1207 39.8233 54.1207C39.2788 54.1207 38.8077 54.0343 38.41 53.8615C38.0123 53.6887 37.7009 53.4437 37.476 53.1264C37.2511 52.8068 37.1268 52.428 37.1032 51.9901H38.204C38.2253 52.2528 38.3105 52.4718 38.4597 52.647C38.6112 52.8198 38.8042 52.9489 39.0385 53.0341C39.2753 53.117 39.5345 53.1584 39.8162 53.1584C40.1264 53.1584 40.4022 53.1098 40.6436 53.0128C40.8875 52.9134 41.0792 52.776 41.2189 52.6009C41.3586 52.4233 41.4284 52.2161 41.4284 51.9794C41.4284 51.764 41.3669 51.5876 41.2438 51.4503C41.123 51.313 40.9585 51.1993 40.7502 51.1094C40.5442 51.0194 40.311 50.9401 40.0506 50.8714L39.1912 50.6371C38.6088 50.4785 38.1472 50.2453 37.8063 49.9375C37.4677 49.6297 37.2985 49.2225 37.2985 48.7159C37.2985 48.2969 37.4121 47.9311 37.6394 47.6186C37.8667 47.3061 38.1744 47.0634 38.5627 46.8906C38.9509 46.7154 39.3889 46.6278 39.8766 46.6278C40.369 46.6278 40.8034 46.7143 41.1799 46.8871C41.5587 47.0599 41.8569 47.2978 42.0748 47.6009C42.2926 47.9015 42.4062 48.2472 42.4157 48.6378H41.3574Z" fill="#1A1A1A"/>
<defs>
<clipPath id="clip0_156_1607">
<rect width="36" height="36" fill="white" transform="translate(6.5 5)"/>
</clipPath>
</defs>
</svg>
