<svg width="41" height="44" viewBox="0 0 41 44" fill="none" xmlns="http://www.w3.org/2000/svg">
<path d="M14.5 17C15.3284 17 16 16.3284 16 15.5C16 14.6716 15.3284 14 14.5 14C13.6716 14 13 14.6716 13 15.5C13 16.3284 13.6716 17 14.5 17Z" fill="#1A1A1A"/>
<path d="M20.9001 17C21.7286 17 22.4001 16.3284 22.4001 15.5C22.4001 14.6716 21.7286 14 20.9001 14C20.0717 14 19.4001 14.6716 19.4001 15.5C19.4001 16.3284 20.0717 17 20.9001 17Z" fill="#1A1A1A"/>
<path d="M27.2998 17C28.1282 17 28.7998 16.3284 28.7998 15.5C28.7998 14.6716 28.1282 14 27.2998 14C26.4714 14 25.7998 14.6716 25.7998 15.5C25.7998 16.3284 26.4714 17 27.2998 17Z" fill="#1A1A1A"/>
<path d="M6.29901 29.7273H7.63068L9.94602 35.3807H10.0312L12.3466 29.7273H13.6783V37H12.6342V31.7372H12.5668L10.4219 36.9893H9.5554L7.41051 31.7337H7.34304V37H6.29901V29.7273ZM21.5911 33.3636C21.5911 34.1402 21.449 34.8078 21.165 35.3665C20.8809 35.9228 20.4914 36.3513 19.9966 36.652C19.5042 36.9503 18.9443 37.0994 18.3169 37.0994C17.6872 37.0994 17.1249 36.9503 16.6301 36.652C16.1377 36.3513 15.7495 35.9216 15.4654 35.3629C15.1813 34.8042 15.0392 34.1378 15.0392 33.3636C15.0392 32.5871 15.1813 31.9207 15.4654 31.3643C15.7495 30.8056 16.1377 30.3771 16.6301 30.0788C17.1249 29.7782 17.6872 29.6278 18.3169 29.6278C18.9443 29.6278 19.5042 29.7782 19.9966 30.0788C20.4914 30.3771 20.8809 30.8056 21.165 31.3643C21.449 31.9207 21.5911 32.5871 21.5911 33.3636ZM20.5044 33.3636C20.5044 32.7718 20.4086 32.2734 20.2168 31.8686C20.0274 31.4614 19.767 31.1536 19.4355 30.9453C19.1065 30.7346 18.7336 30.6293 18.3169 30.6293C17.8979 30.6293 17.5239 30.7346 17.1948 30.9453C16.8657 31.1536 16.6053 31.4614 16.4135 31.8686C16.2241 32.2734 16.1294 32.7718 16.1294 33.3636C16.1294 33.9555 16.2241 34.455 16.4135 34.8622C16.6053 35.267 16.8657 35.5748 17.1948 35.7855C17.5239 35.9938 17.8979 36.098 18.3169 36.098C18.7336 36.098 19.1065 35.9938 19.4355 35.7855C19.767 35.5748 20.0274 35.267 20.2168 34.8622C20.4086 34.455 20.5044 33.9555 20.5044 33.3636ZM22.9592 37V29.7273H25.5515C26.1149 29.7273 26.5825 29.8243 26.9542 30.0185C27.3282 30.2126 27.6076 30.4813 27.7923 30.8246C27.9769 31.1655 28.0692 31.5597 28.0692 32.0071C28.0692 32.4522 27.9757 32.844 27.7887 33.1825C27.604 33.5187 27.3247 33.7803 26.9506 33.9673C26.579 34.1544 26.1114 34.2479 25.5479 34.2479H23.5842V33.3033H25.4485C25.8036 33.3033 26.0924 33.2524 26.315 33.1506C26.5399 33.0488 26.7044 32.9008 26.8086 32.7067C26.9128 32.5125 26.9648 32.2794 26.9648 32.0071C26.9648 31.7325 26.9116 31.4946 26.805 31.2933C26.7009 31.0921 26.5363 30.9382 26.3114 30.8317C26.0889 30.7228 25.7965 30.6683 25.4343 30.6683H24.0565V37H22.9592ZM26.5494 33.7188L28.3462 37H27.0962L25.3349 33.7188H26.5494ZM29.4045 37V29.7273H33.9641V30.6719H30.5018V32.8878H33.7262V33.8288H30.5018V36.0554H34.0067V37H29.4045Z" fill="#1A1A1A"/>
</svg>
