<svg width="57" height="61" viewBox="0 0 57 61" fill="none" xmlns="http://www.w3.org/2000/svg">
<path d="M20.25 23.75C18.7666 23.75 17.3166 24.1899 16.0832 25.014C14.8499 25.8381 13.8886 27.0094 13.3209 28.3799C12.7532 29.7503 12.6047 31.2583 12.8941 32.7132C13.1835 34.1681 13.8978 35.5044 14.9467 36.5533C15.9956 37.6022 17.332 38.3165 18.7868 38.6059C20.2417 38.8953 21.7497 38.7468 23.1201 38.1791C24.4906 37.6115 25.6619 36.6502 26.486 35.4168C27.3101 34.1834 27.75 32.7334 27.75 31.25C27.7476 29.2616 26.9567 27.3554 25.5507 25.9493C24.1447 24.5433 22.2384 23.7524 20.25 23.75ZM20.25 37.25C19.0633 37.25 17.9033 36.8981 16.9166 36.2388C15.9299 35.5795 15.1609 34.6425 14.7067 33.5461C14.2526 32.4498 14.1338 31.2434 14.3653 30.0795C14.5968 28.9156 15.1682 27.8465 16.0074 27.0074C16.8465 26.1683 17.9156 25.5968 19.0795 25.3653C20.2433 25.1338 21.4497 25.2526 22.5461 25.7067C23.6425 26.1609 24.5795 26.9299 25.2388 27.9166C25.8981 28.9033 26.25 30.0633 26.25 31.25C26.2484 32.8408 25.6158 34.366 24.4909 35.4909C23.366 36.6158 21.8408 37.2484 20.25 37.25ZM40.5 7.25001H34.5C33.5057 7.25081 32.5523 7.64615 31.8492 8.34924C31.1461 9.05233 30.7508 10.0057 30.75 11V17C30.7508 17.9943 31.1461 18.9477 31.8492 19.6508C32.5523 20.3539 33.5057 20.7492 34.5 20.75H40.5C41.4943 20.7492 42.4477 20.3539 43.1508 19.6508C43.8539 18.9477 44.2492 17.9943 44.25 17V11C44.2492 10.0057 43.8539 9.05233 43.1508 8.34924C42.4477 7.64615 41.4943 7.25081 40.5 7.25001ZM42.75 17C42.7492 17.5965 42.5119 18.1683 42.0901 18.5901C41.6683 19.0119 41.0965 19.2492 40.5 19.25H34.5C33.9035 19.2492 33.3317 19.0119 32.9099 18.5901C32.4881 18.1683 32.2508 17.5965 32.25 17V11C32.2508 10.4035 32.4881 9.83169 32.9099 9.4099C33.3317 8.98812 33.9035 8.75081 34.5 8.75001H40.5C41.0965 8.75081 41.6683 8.98812 42.0901 9.4099C42.5119 9.83169 42.7492 10.4035 42.75 11V17ZM39.396 25.6715C39.22 25.3193 38.9494 25.0231 38.6145 24.8161C38.2797 24.609 37.8937 24.4994 37.5 24.4994C37.1063 24.4994 36.7204 24.609 36.3855 24.8161C36.0506 25.0231 35.78 25.3193 35.604 25.6715L30.975 34.9325C30.8134 35.2557 30.7371 35.6148 30.7533 35.9758C30.7696 36.3367 30.8778 36.6875 31.0678 36.9949C31.2577 37.3022 31.5231 37.5559 31.8387 37.7318C32.1543 37.9078 32.5097 38.0001 32.871 38H42.129C42.4903 38.0001 42.8457 37.9078 43.1613 37.7318C43.4769 37.5559 43.7423 37.3022 43.9322 36.9949C44.1222 36.6875 44.2305 36.3367 44.2467 35.9758C44.2629 35.6148 44.1866 35.2557 44.025 34.9325L39.396 25.6715ZM42.657 36.2075C42.6017 36.2976 42.524 36.3719 42.4315 36.4232C42.3389 36.4744 42.2348 36.5009 42.129 36.5H32.871C32.7651 36.5006 32.6608 36.474 32.5682 36.4227C32.4755 36.3715 32.3976 36.2972 32.3419 36.2072C32.2862 36.1171 32.2545 36.0143 32.25 35.9085C32.2455 35.8027 32.2682 35.6975 32.316 35.603L36.9465 26.3435C36.9977 26.2405 37.0766 26.1538 37.1744 26.0931C37.2722 26.0325 37.3849 26.0004 37.5 26.0004C37.6151 26.0004 37.7278 26.0325 37.8256 26.0931C37.9234 26.1538 38.0023 26.2405 38.0535 26.3435L42.6825 35.603C42.7307 35.6974 42.7537 35.8027 42.7492 35.9086C42.7448 36.0145 42.713 36.1175 42.657 36.2075ZM13.818 8.25501C13.627 8.562 13.5182 8.91293 13.5019 9.27411C13.4856 9.63529 13.5624 9.99459 13.725 10.3175L18.354 19.5785C18.53 19.9307 18.8006 20.2269 19.1355 20.434C19.4704 20.641 19.8563 20.7507 20.25 20.7507C20.6437 20.7507 21.0297 20.641 21.3645 20.434C21.6994 20.2269 21.97 19.9307 22.146 19.5785L26.775 10.3175C26.9366 9.99435 27.0129 9.63523 26.9967 9.27427C26.9805 8.91332 26.8722 8.5625 26.6822 8.25515C26.4923 7.9478 26.2269 7.69412 25.9113 7.5182C25.5957 7.34227 25.2403 7.24996 24.879 7.25001H15.621C15.2595 7.24869 14.9037 7.34045 14.5879 7.51647C14.2722 7.69249 14.007 7.94683 13.818 8.25501ZM15.093 9.04251C15.1483 8.95238 15.226 8.87809 15.3185 8.82684C15.4111 8.77559 15.5152 8.74912 15.621 8.75001H24.879C24.9849 8.7494 25.0892 8.77601 25.1818 8.82729C25.2745 8.87856 25.3524 8.95279 25.4081 9.04284C25.4638 9.13289 25.4955 9.23575 25.5 9.34154C25.5045 9.44734 25.4818 9.55253 25.434 9.64701L20.802 18.905C20.7508 19.0081 20.6719 19.0948 20.5741 19.1554C20.4763 19.216 20.3636 19.2481 20.2485 19.2481C20.1335 19.2481 20.0207 19.216 19.9229 19.1554C19.8251 19.0948 19.7462 19.0081 19.695 18.905L15.0675 9.64701C15.0193 9.5526 14.9963 9.44733 15.0008 9.34141C15.0052 9.2355 15.037 9.13253 15.093 9.04251Z" fill="#1A1A1A"/>
<path d="M12.1165 50.3636C12.1165 51.1402 11.9744 51.8078 11.6903 52.3665C11.4063 52.9228 11.0168 53.3513 10.522 53.652C10.0296 53.9503 9.4697 54.0994 8.84233 54.0994C8.21259 54.0994 7.65033 53.9503 7.15554 53.652C6.66312 53.3513 6.27486 52.9216 5.99077 52.3629C5.70668 51.8042 5.56463 51.1378 5.56463 50.3636C5.56463 49.5871 5.70668 48.9207 5.99077 48.3643C6.27486 47.8056 6.66312 47.3771 7.15554 47.0788C7.65033 46.7782 8.21259 46.6278 8.84233 46.6278C9.4697 46.6278 10.0296 46.7782 10.522 47.0788C11.0168 47.3771 11.4063 47.8056 11.6903 48.3643C11.9744 48.9207 12.1165 49.5871 12.1165 50.3636ZM11.0298 50.3636C11.0298 49.7718 10.9339 49.2734 10.7422 48.8686C10.5528 48.4614 10.2924 48.1536 9.96094 47.9453C9.63187 47.7346 9.259 47.6293 8.84233 47.6293C8.4233 47.6293 8.04924 47.7346 7.72017 47.9453C7.3911 48.1536 7.13068 48.4614 6.93892 48.8686C6.74953 49.2734 6.65483 49.7718 6.65483 50.3636C6.65483 50.9555 6.74953 51.455 6.93892 51.8622C7.13068 52.267 7.3911 52.5748 7.72017 52.7855C8.04924 52.9938 8.4233 53.098 8.84233 53.098C9.259 53.098 9.63187 52.9938 9.96094 52.7855C10.2924 52.5748 10.5528 52.267 10.7422 51.8622C10.9339 51.455 11.0298 50.9555 11.0298 50.3636ZM13.4846 54V46.7273H16.1479C16.664 46.7273 17.0913 46.8125 17.4299 46.983C17.7684 47.151 18.0217 47.3795 18.1898 47.6683C18.3579 47.9548 18.4419 48.2779 18.4419 48.6378C18.4419 48.9408 18.3863 49.1965 18.275 49.4048C18.1638 49.6108 18.0146 49.7765 17.8276 49.902C17.6429 50.0251 17.4393 50.1151 17.2168 50.1719V50.2429C17.4583 50.2547 17.6938 50.3329 17.9235 50.4773C18.1555 50.6193 18.3472 50.8217 18.4988 51.0845C18.6503 51.3473 18.726 51.6669 18.726 52.0433C18.726 52.415 18.6384 52.7488 18.4632 53.0447C18.2904 53.3383 18.0229 53.5715 17.6607 53.7443C17.2985 53.9148 16.8356 54 16.2722 54H13.4846ZM14.5819 53.0589H16.1657C16.6912 53.0589 17.0676 52.9571 17.2949 52.7536C17.5222 52.55 17.6358 52.2955 17.6358 51.9901C17.6358 51.7604 17.5778 51.5497 17.4618 51.358C17.3458 51.1662 17.1801 51.0135 16.9647 50.8999C16.7516 50.7862 16.4983 50.7294 16.2047 50.7294H14.5819V53.0589ZM14.5819 49.8736H16.052C16.2982 49.8736 16.5196 49.8262 16.7161 49.7315C16.915 49.6368 17.0724 49.5043 17.1884 49.3338C17.3068 49.161 17.3659 48.9574 17.3659 48.723C17.3659 48.4223 17.2606 48.1702 17.0499 47.9666C16.8392 47.763 16.516 47.6612 16.0804 47.6612H14.5819V49.8736ZM22.8542 46.7273H23.948V51.8835C23.948 52.3499 23.8556 52.7488 23.671 53.0803C23.4887 53.4117 23.2318 53.665 22.9004 53.8402C22.569 54.013 22.1807 54.0994 21.7356 54.0994C21.3261 54.0994 20.9579 54.0249 20.6312 53.8757C20.3069 53.7266 20.05 53.5099 19.8606 53.2259C19.6736 52.9394 19.5801 52.5914 19.5801 52.1818H20.6703C20.6703 52.383 20.7164 52.5571 20.8088 52.7038C20.9035 52.8506 21.0325 52.9654 21.1958 53.0483C21.3616 53.1288 21.551 53.169 21.764 53.169C21.996 53.169 22.1925 53.1205 22.3535 53.0234C22.5169 52.924 22.6412 52.7784 22.7264 52.5866C22.8116 52.3949 22.8542 52.1605 22.8542 51.8835V46.7273ZM25.5451 54V46.7273H30.1048V47.6719H26.6424V49.8878H29.8668V50.8288H26.6424V53.0554H30.1474V54H25.5451ZM37.611 49.0923H36.503C36.4604 48.8556 36.3811 48.6473 36.2651 48.4673C36.1491 48.2874 36.007 48.1347 35.839 48.0092C35.6709 47.8838 35.4827 47.7891 35.2743 47.7251C35.0684 47.6612 34.8494 47.6293 34.6174 47.6293C34.1983 47.6293 33.8231 47.7346 33.4917 47.9453C33.1626 48.156 32.9022 48.465 32.7104 48.8722C32.521 49.2794 32.4263 49.7765 32.4263 50.3636C32.4263 50.9555 32.521 51.455 32.7104 51.8622C32.9022 52.2694 33.1638 52.5772 33.4952 52.7855C33.8266 52.9938 34.1995 53.098 34.6138 53.098C34.8435 53.098 35.0613 53.0672 35.2672 53.0057C35.4756 52.9418 35.6638 52.8482 35.8319 52.7251C35.9999 52.602 36.142 52.4517 36.258 52.2741C36.3764 52.0942 36.458 51.8883 36.503 51.6562L37.611 51.6598C37.5518 52.0173 37.437 52.3464 37.2665 52.647C37.0984 52.9453 36.8818 53.2034 36.6167 53.4212C36.3539 53.6366 36.0532 53.8035 35.7147 53.9219C35.3761 54.0402 35.0068 54.0994 34.6067 54.0994C33.977 54.0994 33.4159 53.9503 32.9235 53.652C32.431 53.3513 32.0428 52.9216 31.7587 52.3629C31.477 51.8042 31.3361 51.1378 31.3361 50.3636C31.3361 49.5871 31.4782 48.9207 31.7623 48.3643C32.0463 47.8056 32.4346 47.3771 32.927 47.0788C33.4194 46.7782 33.9793 46.6278 34.6067 46.6278C34.9926 46.6278 35.3525 46.6835 35.6863 46.7947C36.0224 46.9036 36.3243 47.0646 36.5918 47.2777C36.8593 47.4884 37.0807 47.7464 37.2559 48.0518C37.431 48.3549 37.5494 48.7017 37.611 49.0923ZM38.5653 47.6719V46.7273H44.1939V47.6719H41.9247V54H40.831V47.6719H38.5653ZM49.4043 48.6378C49.3664 48.3016 49.2102 48.0412 48.9355 47.8565C48.6609 47.6695 48.3153 47.576 47.8986 47.576C47.6003 47.576 47.3423 47.6233 47.1245 47.718C46.9067 47.8104 46.7374 47.9382 46.6167 48.1016C46.4983 48.2625 46.4391 48.446 46.4391 48.652C46.4391 48.8248 46.4793 48.974 46.5598 49.0994C46.6427 49.2249 46.7504 49.3303 46.883 49.4155C47.0179 49.4983 47.1623 49.5682 47.3162 49.625C47.4701 49.6795 47.6181 49.7244 47.7601 49.7599L48.4703 49.9446C48.7024 50.0014 48.9403 50.0784 49.1841 50.1754C49.428 50.2725 49.6541 50.4003 49.8624 50.5589C50.0707 50.7176 50.2388 50.9141 50.3667 51.1484C50.4969 51.3828 50.562 51.6634 50.562 51.9901C50.562 52.402 50.4554 52.7678 50.2424 53.0874C50.0317 53.407 49.7251 53.6591 49.3226 53.8438C48.9225 54.0284 48.4384 54.1207 47.8702 54.1207C47.3257 54.1207 46.8546 54.0343 46.4569 53.8615C46.0591 53.6887 45.7478 53.4437 45.5229 53.1264C45.298 52.8068 45.1737 52.428 45.15 51.9901H46.2509C46.2722 52.2528 46.3574 52.4718 46.5066 52.647C46.6581 52.8198 46.851 52.9489 47.0854 53.0341C47.3221 53.117 47.5814 53.1584 47.8631 53.1584C48.1732 53.1584 48.449 53.1098 48.6905 53.0128C48.9344 52.9134 49.1261 52.776 49.2658 52.6009C49.4055 52.4233 49.4753 52.2161 49.4753 51.9794C49.4753 51.764 49.4138 51.5876 49.2907 51.4503C49.1699 51.313 49.0054 51.1993 48.7971 51.1094C48.5911 51.0194 48.3579 50.9401 48.0975 50.8714L47.2381 50.6371C46.6557 50.4785 46.1941 50.2453 45.8532 49.9375C45.5146 49.6297 45.3453 49.2225 45.3453 48.7159C45.3453 48.2969 45.459 47.9311 45.6863 47.6186C45.9135 47.3061 46.2213 47.0634 46.6096 46.8906C46.9978 46.7154 47.4358 46.6278 47.9235 46.6278C48.4159 46.6278 48.8503 46.7143 49.2267 46.8871C49.6055 47.0599 49.9038 47.2978 50.1216 47.6009C50.3394 47.9015 50.4531 48.2472 50.4625 48.6378H49.4043Z" fill="#1A1A1A"/>
</svg>
