<svg width="47" height="61" viewBox="0 0 47 61" fill="none" xmlns="http://www.w3.org/2000/svg">
<g clip-path="url(#clip0_156_1601)">
<path d="M28.0236 5.24936L28.0153 5.24133C27.9403 5.16396 27.8504 5.10269 27.751 5.06124C27.6516 5.01979 27.5447 4.99904 27.437 5.00026C27.4102 4.99897 27.383 5.00154 27.3567 5.00855H15.0169C12.7987 5.009 11.001 6.807 11 9.02536V34.7331C11.001 36.9512 12.7987 38.7491 15.0169 38.7499H32.908C35.1262 38.7491 36.9242 36.9512 36.9249 34.7331V14.4718C36.9234 14.2589 36.8399 14.0548 36.6919 13.9018L28.0236 5.24936ZM28.2403 7.73991L34.2013 13.6848H30.6505C29.3211 13.6808 28.2441 12.604 28.2403 11.2748L28.2403 7.73991ZM32.9161 37.1352H15.0169C13.6875 37.1314 12.6109 36.0544 12.6066 34.725V9.01707C12.611 7.68791 13.6875 6.61087 15.0169 6.60714H26.6337V11.2749C26.6344 13.4928 28.4324 15.2907 30.6505 15.2917H35.3183V34.725C35.3207 36.0538 34.245 37.1334 32.9161 37.1352V37.1352Z" fill="#1A1A1A"/>
<path d="M16.1497 20.5053H24.8342C25.2777 20.5053 25.6377 20.1458 25.6377 19.702C25.6377 19.2583 25.2777 18.8987 24.8342 18.8987H16.1497C15.7059 18.8987 15.3463 19.2583 15.3463 19.702C15.3463 20.1458 15.7059 20.5053 16.1497 20.5053ZM31.7833 24.9722H16.1497C15.7059 24.9722 15.3463 25.3318 15.3463 25.7755C15.3463 26.219 15.7059 26.5788 16.1497 26.5788H31.7833C32.2267 26.5788 32.5869 26.219 32.5869 25.7755C32.5869 25.3318 32.2267 24.9722 31.7833 24.9722ZM31.7833 31.0537H16.1497C15.7059 31.0537 15.3463 31.4133 15.3463 31.857C15.3463 32.3007 15.7059 32.6603 16.1497 32.6603H31.7833C32.2267 32.6603 32.5869 32.3008 32.5869 31.857C32.5869 31.4132 32.2267 31.0537 31.7833 31.0537Z" fill="#1A1A1A"/>
</g>
<path d="M7.79901 54V46.7273H10.3913C10.9571 46.7273 11.4259 46.8303 11.7976 47.0362C12.1693 47.2422 12.4474 47.5239 12.6321 47.8814C12.8168 48.2365 12.9091 48.6366 12.9091 49.0817C12.9091 49.5291 12.8156 49.9316 12.6286 50.2891C12.4439 50.6442 12.1645 50.9259 11.7905 51.1342C11.4188 51.3402 10.9512 51.4432 10.3878 51.4432H8.60511V50.5128H10.2884C10.6458 50.5128 10.9358 50.4512 11.1584 50.3281C11.3809 50.2027 11.5443 50.0322 11.6484 49.8168C11.7526 49.6013 11.8047 49.3563 11.8047 49.0817C11.8047 48.8071 11.7526 48.5632 11.6484 48.3501C11.5443 48.1371 11.3797 47.9702 11.1548 47.8494C10.9323 47.7287 10.6387 47.6683 10.2741 47.6683H8.89631V54H7.79901ZM14.0384 54H12.8736L15.4908 46.7273H16.7585L19.3757 54H18.2109L16.1548 48.0483H16.098L14.0384 54ZM14.2337 51.152H18.0121V52.0753H14.2337V51.152ZM25.006 49.0249C24.9374 48.8094 24.8451 48.6165 24.729 48.446C24.6154 48.2732 24.4793 48.1264 24.3207 48.0057C24.1621 47.8826 23.9809 47.7891 23.7773 47.7251C23.5761 47.6612 23.3548 47.6293 23.1133 47.6293C22.7037 47.6293 22.3344 47.7346 22.0053 47.9453C21.6763 48.156 21.4158 48.465 21.2241 48.8722C21.0347 49.277 20.94 49.773 20.94 50.3601C20.94 50.9496 21.0359 51.4479 21.2276 51.8551C21.4194 52.2623 21.6822 52.5713 22.016 52.782C22.3498 52.9927 22.7298 53.098 23.1559 53.098C23.5513 53.098 23.8957 53.0175 24.1893 52.8565C24.4852 52.6955 24.7137 52.4683 24.8746 52.1747C25.038 51.8788 25.1197 51.5308 25.1197 51.1307L25.4038 51.1839H23.3228V50.2784H26.1815V51.1058C26.1815 51.7166 26.0513 52.2469 25.7908 52.6967C25.5328 53.1442 25.1753 53.4898 24.7184 53.7337C24.2638 53.9775 23.743 54.0994 23.1559 54.0994C22.4978 54.0994 21.9201 53.9479 21.4229 53.6449C20.9281 53.3419 20.5423 52.9122 20.2653 52.3558C19.9883 51.7971 19.8498 51.1342 19.8498 50.3672C19.8498 49.7872 19.9303 49.2663 20.0913 48.8047C20.2522 48.343 20.4783 47.9512 20.7695 47.6293C21.0631 47.3049 21.4076 47.0575 21.8029 46.8871C22.2006 46.7143 22.6351 46.6278 23.1062 46.6278C23.4992 46.6278 23.8649 46.6858 24.2035 46.8018C24.5444 46.9179 24.8474 47.0824 25.1126 47.2955C25.3801 47.5085 25.6014 47.7618 25.7766 48.0554C25.9518 48.3466 26.0702 48.6697 26.1317 49.0249H25.006ZM27.5744 54V46.7273H32.1341V47.6719H28.6717V49.8878H31.8961V50.8288H28.6717V53.0554H32.1767V54H27.5744ZM37.5664 48.6378C37.5285 48.3016 37.3723 48.0412 37.0977 47.8565C36.823 47.6695 36.4774 47.576 36.0607 47.576C35.7624 47.576 35.5044 47.6233 35.2866 47.718C35.0688 47.8104 34.8995 47.9382 34.7788 48.1016C34.6604 48.2625 34.6012 48.446 34.6012 48.652C34.6012 48.8248 34.6415 48.974 34.7219 49.0994C34.8048 49.2249 34.9125 49.3303 35.0451 49.4155C35.18 49.4983 35.3245 49.5682 35.4783 49.625C35.6322 49.6795 35.7802 49.7244 35.9222 49.7599L36.6325 49.9446C36.8645 50.0014 37.1024 50.0784 37.3462 50.1754C37.5901 50.2725 37.8162 50.4003 38.0245 50.5589C38.2328 50.7176 38.4009 50.9141 38.5288 51.1484C38.659 51.3828 38.7241 51.6634 38.7241 51.9901C38.7241 52.402 38.6175 52.7678 38.4045 53.0874C38.1938 53.407 37.8872 53.6591 37.4847 53.8438C37.0846 54.0284 36.6005 54.1207 36.0323 54.1207C35.4878 54.1207 35.0167 54.0343 34.619 53.8615C34.2212 53.6887 33.9099 53.4437 33.685 53.1264C33.4601 52.8068 33.3358 52.428 33.3121 51.9901H34.413C34.4343 52.2528 34.5195 52.4718 34.6687 52.647C34.8202 52.8198 35.0131 52.9489 35.2475 53.0341C35.4843 53.117 35.7435 53.1584 36.0252 53.1584C36.3353 53.1584 36.6112 53.1098 36.8526 53.0128C37.0965 52.9134 37.2882 52.776 37.4279 52.6009C37.5676 52.4233 37.6374 52.2161 37.6374 51.9794C37.6374 51.764 37.5759 51.5876 37.4528 51.4503C37.332 51.313 37.1675 51.1993 36.9592 51.1094C36.7532 51.0194 36.52 50.9401 36.2596 50.8714L35.4002 50.6371C34.8178 50.4785 34.3562 50.2453 34.0153 49.9375C33.6767 49.6297 33.5075 49.2225 33.5075 48.7159C33.5075 48.2969 33.6211 47.9311 33.8484 47.6186C34.0756 47.3061 34.3834 47.0634 34.7717 46.8906C35.1599 46.7154 35.5979 46.6278 36.0856 46.6278C36.578 46.6278 37.0124 46.7143 37.3888 46.8871C37.7676 47.0599 38.0659 47.2978 38.2837 47.6009C38.5015 47.9015 38.6152 48.2472 38.6246 48.6378H37.5664Z" fill="#1A1A1A"/>
<defs>
<clipPath id="clip0_156_1601">
<rect width="36" height="36" fill="white" transform="translate(5.5 5)"/>
</clipPath>
</defs>
</svg>
