<svg width="140" height="140" viewBox="0 0 140 140" fill="none" xmlns="http://www.w3.org/2000/svg">
<rect width="140" height="140" rx="10" fill="#E8DDCF"/>
<path d="M40 60V48.75C40 47.0924 40.6585 45.5027 41.8306 44.3306C43.0027 43.1585 44.5924 42.5 46.25 42.5H58.1067C59.34 42.5 60.5467 42.8667 61.5733 43.55L65.9267 46.45C66.95 47.1333 68.16 47.5 69.3933 47.5H93.75C95.4076 47.5 96.9973 48.1585 98.1694 49.3306C99.3415 50.5027 100 52.0924 100 53.75V60" stroke="#7E2807" stroke-width="2" stroke-linecap="round" stroke-linejoin="round"/>
<path d="M104.983 65.4L102.45 91.25C102.45 92.9059 101.793 94.4941 100.623 95.6659C99.453 96.8377 97.8659 97.4973 96.21 97.5H43.79C42.1341 97.4973 40.547 96.8377 39.377 95.6659C38.2071 94.4941 37.55 92.9059 37.55 91.25L35.0167 65.4C34.9614 64.7119 35.0493 64.0199 35.2747 63.3675C35.5 62.715 35.8581 62.1163 36.3262 61.6091C36.7943 61.1018 37.3624 60.697 37.9947 60.42C38.627 60.1431 39.3097 60.0001 40 60H100.017C100.706 60.0024 101.386 60.1471 102.017 60.425C102.647 60.703 103.213 61.1082 103.679 61.6152C104.146 62.1222 104.502 62.7201 104.727 63.3714C104.951 64.0227 105.038 64.7133 104.983 65.4Z" fill="#7E2807" fill-opacity="0.3" stroke="#7E2807" stroke-width="2" stroke-linecap="round" stroke-linejoin="round"/>
</svg>
