<svg width="202" height="77" viewBox="0 0 202 77" fill="none" xmlns="http://www.w3.org/2000/svg">
<path fill-rule="evenodd" clip-rule="evenodd" d="M49.5175 52.3703C48.0399 51.6944 45.3741 50.2754 44.8739 49.4254C44.6806 49.0969 44.6503 48.5549 44.7752 48.4354C45.008 48.2127 45.6332 48.617 45.7117 48.6847C45.8659 48.9545 48.3683 50.7169 49.2494 51.184C50.0044 51.5843 52.1468 51.866 53.3439 51.6323C54.8165 51.3448 57.7194 49.3308 55.5864 47.9448C55.3751 47.8192 54.8276 47.7627 54.5387 48.135C54.0233 48.7989 54.2098 49.4845 53.7928 49.3371C53.2882 49.1588 53.3424 48.2022 53.7929 47.5628C55.1656 45.6143 57.9893 47.2915 57.4103 49.5607C57.0422 51.0037 55.8384 51.9931 54.2521 52.5018C52.6823 53.0052 50.9763 52.8844 49.5175 52.3703Z" fill="#7E2807"/>
<g filter="url(#filter0_f_74_4)">
<path fill-rule="evenodd" clip-rule="evenodd" d="M49.2494 51.1839C50.7471 51.6149 51.1087 51.7082 51.8509 51.7211C52.308 51.6717 52.7436 51.6952 53.107 51.6702C53.5923 51.637 54.0426 51.4206 54.3651 51.2624C55.1243 50.8902 55.4104 50.4355 55.4646 50.5415C55.5393 50.6878 55.4322 50.8876 54.7401 51.2305C54.3939 51.402 54.0113 51.6528 53.3262 51.7815C52.77 51.886 51.9744 51.8859 51.1582 51.8894C49.4871 51.8187 48.0699 50.5513 49.2494 51.1839Z" fill="#FFFEFD" fill-opacity="0.827251"/>
</g>
<g opacity="0.465385" filter="url(#filter1_f_74_4)">
<path fill-rule="evenodd" clip-rule="evenodd" d="M55.8509 47.3163C56.4337 47.4329 56.8652 48.1527 56.8652 48.1527C57.091 48.6794 57.2716 48.9406 57.1039 50.0971C57.7289 49.5353 57.5951 47.7833 56.6697 47.2148C56.6697 47.2148 55.9192 46.7594 55.5204 46.754C54.7566 46.7437 54.818 47.0807 55.8509 47.3163Z" fill="#FFFEFD" fill-opacity="0.827251"/>
</g>
<g filter="url(#filter2_f_74_4)">
<path fill-rule="evenodd" clip-rule="evenodd" d="M47.506 50.353C46.6292 50.5896 47.8711 51.6893 49.0297 51.5172C48.5162 51.5367 47.9256 50.1412 47.506 50.353Z" fill="#7E2807"/>
</g>
<g filter="url(#filter3_f_74_4)">
<path fill-rule="evenodd" clip-rule="evenodd" d="M48.5288 51.4772C50.5565 52.1985 51.046 52.3546 52.0508 52.3762C52.6697 52.2935 53.2595 52.3328 53.7514 52.291C54.4084 52.2354 55.0181 51.8734 55.4547 51.6087C56.4826 50.9858 56.8699 50.2251 56.9432 50.4025C57.0444 50.6473 56.8994 50.9816 55.9624 51.5552C55.4937 51.8422 54.9757 52.2619 54.0482 52.4772C53.2952 52.652 52.218 52.652 51.1131 52.6577C48.8506 52.5395 46.9319 50.4188 48.5288 51.4772Z" fill="#341D06" fill-opacity="0.827251"/>
</g>
<g opacity="0.711538" filter="url(#filter4_f_74_4)">
<path fill-rule="evenodd" clip-rule="evenodd" d="M55.7248 47.9621C55.8721 48.0749 56.1494 48.2624 56.2625 48.566C56.3652 48.8343 56.3715 48.9465 56.4002 49.1014C56.4395 49.313 56.3174 49.5253 56.2458 49.7057C56.0773 50.1303 55.7525 50.3726 55.8382 50.3637C55.9565 50.3514 56.1477 50.2961 56.3039 49.9079C56.382 49.7138 56.4332 49.4711 56.5128 49.1592C56.5796 48.898 56.5295 48.5684 56.2898 48.2293C56.0046 47.5579 54.8274 47.4972 55.4583 47.7987L55.7248 47.9621Z" fill="#341D06" fill-opacity="0.827251"/>
</g>
<g opacity="0.465385" filter="url(#filter5_f_74_4)">
<path fill-rule="evenodd" clip-rule="evenodd" d="M55.2482 47.7296C55.8309 47.8462 56.2625 48.566 56.2625 48.566C56.4883 49.0927 56.228 49.1963 56.0603 50.3529C56.6853 49.7911 57.1711 48.1361 56.2458 47.5675C56.2458 47.5675 55.3113 47.0955 54.9125 47.0901C54.7616 47.0881 53.8958 47.6328 53.7108 47.9246C53.4114 48.3966 53.7928 49.3372 53.7928 49.3372C53.8316 49.4062 53.9678 48.4237 54.3566 47.9246C54.5906 47.6243 55.0607 47.6868 55.2482 47.7296Z" fill="#341D06" fill-opacity="0.827451"/>
</g>
<path d="M25.9601 31.9536C22.6684 31.9536 20 29.3675 20 26.1773C20 22.9871 22.6684 20.401 25.9601 20.401C29.2518 20.401 31.9202 22.9871 31.9202 26.1773C31.9202 29.3675 29.2518 31.9536 25.9601 31.9536Z" fill="#7E2807"/>
<g opacity="0.652874" filter="url(#filter6_f_74_4)">
<path fill-rule="evenodd" clip-rule="evenodd" d="M21.5225 28.2768C22.5233 29.6624 22.9843 30.0438 23.6057 30.347C24.5715 30.8181 25.5729 30.9091 26.6369 30.5264C31.176 28.6951 25.9677 32.8667 22.923 30.5972C21.3179 29.5685 20.4386 27.4384 21.5225 28.2768Z" fill="#C68B6F"/>
<path fill-rule="evenodd" clip-rule="evenodd" d="M21.5225 28.2768C22.5233 29.6624 22.9843 30.0438 23.6057 30.347C24.5715 30.8181 25.5729 30.9091 26.6369 30.5264C31.176 28.6951 25.9677 32.8667 22.923 30.5972C21.3179 29.5685 20.4386 27.4384 21.5225 28.2768Z" stroke="#912405" stroke-opacity="0.708029" stroke-width="1.00001"/>
</g>
<g opacity="0.652874" filter="url(#filter7_f_74_4)">
<path fill-rule="evenodd" clip-rule="evenodd" d="M26.8011 22.0681C25.1284 21.7036 24.5365 21.7671 23.8851 22.0429C22.8728 22.4716 22.0996 23.2743 21.6112 24.5594C21.2461 26.2125 21.4813 28.2868 21.174 27.9371C21.0999 27.8528 20.4867 25.9084 20.5991 25.4427C20.7259 24.9174 20.986 24.2159 21.3767 23.5337C21.9939 22.4559 22.9369 21.4261 24.1953 21.2143C26.0484 20.7232 28.1524 21.8661 26.8011 22.0681Z" fill="#C68B6F" fill-opacity="0.827251"/>
</g>
<g filter="url(#filter8_f_74_4)">
<path d="M25.0207 30.1784C23.1441 30.1784 21.6228 28.5148 21.6228 26.4627C21.6228 24.4105 23.1441 22.7469 25.0207 22.7469C26.8973 22.7469 28.4186 24.4105 28.4186 26.4627C28.4186 28.5148 26.8973 30.1784 25.0207 30.1784Z" fill="#693839"/>
</g>
<path d="M24.9725 29.9689C23.275 29.9689 21.8989 28.3991 21.8989 26.4627C21.8989 24.5263 23.275 22.9565 24.9725 22.9565C26.67 22.9565 28.0461 24.5263 28.0461 26.4627C28.0461 28.3991 26.67 29.9689 24.9725 29.9689Z" fill="#FFA08B"/>
<g opacity="0.616092" filter="url(#filter9_f_74_4)">
<path d="M24.9832 27.775C23.9805 27.775 23.1677 26.9311 23.1677 25.8901C23.1677 24.849 23.9805 24.0051 24.9832 24.0051C25.9858 24.0051 26.7987 24.849 26.7987 25.8901C26.7987 26.9311 25.9858 27.775 24.9832 27.775Z" fill="#1A1A1A"/>
</g>
<g opacity="0.445977" filter="url(#filter10_f_74_4)">
<path d="M24.9725 26.3892C23.8231 26.3892 22.8913 25.7515 22.8913 24.9649C22.8913 24.1783 23.8231 23.5406 24.9725 23.5406C26.122 23.5406 27.0538 24.1783 27.0538 24.9649C27.0538 25.7515 26.122 26.3892 24.9725 26.3892Z" fill="#C04043"/>
</g>
<path d="M58.7856 36.1083C62.0773 36.1083 64.7457 33.5222 64.7457 30.332C64.7457 27.1418 62.0773 24.5557 58.7856 24.5557C55.4939 24.5557 52.8254 27.1418 52.8254 30.332C52.8254 33.5222 55.4939 36.1083 58.7856 36.1083Z" fill="#7E2807"/>
<g opacity="0.652874" filter="url(#filter11_f_74_4)">
<path fill-rule="evenodd" clip-rule="evenodd" d="M63.2233 32.4315C62.2224 33.817 61.7615 34.1985 61.14 34.5016C60.1742 34.9728 59.1728 35.0637 58.1088 34.681C53.5697 32.8498 58.778 37.0214 61.8227 34.7518C63.4279 33.7232 64.3072 31.593 63.2233 32.4315Z" fill="#C68B6F"/>
<path fill-rule="evenodd" clip-rule="evenodd" d="M63.2233 32.4315C62.2224 33.817 61.7615 34.1985 61.14 34.5016C60.1742 34.9728 59.1728 35.0637 58.1088 34.681C53.5697 32.8498 58.778 37.0214 61.8227 34.7518C63.4279 33.7232 64.3072 31.593 63.2233 32.4315Z" stroke="#912405" stroke-opacity="0.708029" stroke-width="0.999999"/>
</g>
<g opacity="0.652874" filter="url(#filter12_f_74_4)">
<path fill-rule="evenodd" clip-rule="evenodd" d="M57.9446 26.2228C59.6173 25.8583 60.2092 25.9217 60.8606 26.1976C61.8729 26.6263 62.6461 27.429 63.1346 28.7141C63.4997 30.3672 63.2644 32.4414 63.5717 32.0918C63.6458 32.0075 64.259 30.0631 64.1466 29.5974C64.0198 29.0721 63.7597 28.3706 63.369 27.6883C62.7519 26.6106 61.8088 25.5808 60.5505 25.3689C58.6973 24.8778 56.5933 26.0208 57.9446 26.2228Z" fill="#C68B6F" fill-opacity="0.827251"/>
</g>
<g filter="url(#filter13_f_74_4)">
<path d="M59.725 34.3331C61.6016 34.3331 63.1229 32.6695 63.1229 30.6173C63.1229 28.5652 61.6016 26.9016 59.725 26.9016C57.8484 26.9016 56.327 28.5652 56.327 30.6173C56.327 32.6695 57.8484 34.3331 59.725 34.3331Z" fill="#693839"/>
</g>
<path d="M59.7732 34.1236C61.4707 34.1236 62.8468 32.5538 62.8468 30.6174C62.8468 28.681 61.4707 27.1112 59.7732 27.1112C58.0757 27.1112 56.6996 28.681 56.6996 30.6174C56.6996 32.5538 58.0757 34.1236 59.7732 34.1236Z" fill="#FFA08B"/>
<g opacity="0.616092" filter="url(#filter14_f_74_4)">
<path d="M59.7625 31.9297C60.7652 31.9297 61.578 31.0857 61.578 30.0447C61.578 29.0037 60.7652 28.1598 59.7625 28.1598C58.7598 28.1598 57.947 29.0037 57.947 30.0447C57.947 31.0857 58.7598 31.9297 59.7625 31.9297Z" fill="#1A1A1A"/>
</g>
<g opacity="0.445977" filter="url(#filter15_f_74_4)">
<path d="M59.7732 30.5438C60.9226 30.5438 61.8545 29.9062 61.8545 29.1196C61.8545 28.333 60.9226 27.6953 59.7732 27.6953C58.6237 27.6953 57.6919 28.333 57.6919 29.1196C57.6919 29.9062 58.6237 30.5438 59.7732 30.5438Z" fill="#C04043"/>
</g>
<path fill-rule="evenodd" clip-rule="evenodd" d="M53.0749 48.002C51.556 50.7098 49.2935 49.4682 46.8089 48.1885C42.7432 42.1561 44.2205 40.6722 49.5827 42.7005C52.4014 43.7204 54.1588 46.0698 53.0749 48.002Z" fill="#7E2807"/>
<g opacity="0.326923" filter="url(#filter16_f_74_4)">
<path fill-rule="evenodd" clip-rule="evenodd" d="M53.7811 44.7691C48.5471 41.6145 53.7382 45.9733 54.7308 46.9037C55.2667 47.5478 54.799 46.5464 53.7811 44.7691Z" fill="#FEFEFE"/>
</g>
<g opacity="0.188462" filter="url(#filter17_f_74_4)">
<path fill-rule="evenodd" clip-rule="evenodd" d="M49.0843 42.6041C47.1983 42.6965 46.6116 44.0246 46.7266 43.8649C47.031 43.4422 50.0977 42.8133 50.9042 43.6308C51.6592 43.8229 52.5577 43.2411 49.0843 42.6041Z" fill="#FEFEFE"/>
</g>
<g filter="url(#filter18_f_74_4)">
<path fill-rule="evenodd" clip-rule="evenodd" d="M51.8215 49.214C51.7843 49.0851 52.169 48.4538 52.4522 47.786C52.7593 47.0617 52.9702 46.3002 53.012 46.2479C53.1008 46.2866 53.1449 46.4123 53.1943 46.5423C53.3162 46.8635 53.3497 47.3858 53.1067 47.9162C52.8557 48.4642 52.34 49.0104 51.8215 49.214Z" fill="#5B1C04" fill-opacity="0.666667"/>
</g>
<path fill-rule="evenodd" clip-rule="evenodd" d="M40.6194 54.5874C37.3607 54.4633 32.8515 50.9303 33.7262 47.425C34.4497 44.5254 35.8093 42.3888 37.6895 41.4781C38.4541 41.1078 39.5007 41.2218 40.4669 41.3802C41.7696 41.6188 43.9148 41.4281 44.7267 42.3546C45.1392 42.8203 45.8534 44.1372 46.2627 44.9863C46.7919 46.4263 47.6776 48.2535 47.5583 49.6772C47.4204 53.1604 42.8616 54.8728 40.6194 54.5874Z" fill="#7E2807"/>
<g opacity="0.519231" filter="url(#filter19_f_74_4)">
<path fill-rule="evenodd" clip-rule="evenodd" d="M33.5036 46.7756C33.4154 49.2553 36.0454 46.9445 36.0675 43.8579C41.1711 38.1864 34.2315 43.6929 33.5036 46.7756Z" fill="white" fill-opacity="0.563559"/>
</g>
<g opacity="0.75" filter="url(#filter20_f_74_4)">
<path fill-rule="evenodd" clip-rule="evenodd" d="M38.039 43.1869C37.4748 43.5942 36.8491 44.5214 36.4143 45.2317C35.5488 46.6455 36.0285 47.7225 36.3302 47.9126C36.3723 47.6921 37.1502 45.6492 37.2246 45.3583C37.4056 44.6503 38.2131 44.2778 38.3126 44.0459C38.4629 43.7237 39.3382 43.825 39.4524 43.562C39.6203 43.1754 41.1737 43.3303 40.7089 43.094C40.4336 42.954 38.4234 42.7782 38.039 43.1869Z" fill="#5B1C04" fill-opacity="0.707819"/>
</g>
<path fill-rule="evenodd" clip-rule="evenodd" d="M36.3305 48.392C36.3054 47.0556 37.0067 45.7528 38.1789 44.4135C39.2299 43.2607 40.9086 43.2373 41.4053 43.5096C41.769 43.709 42.0851 43.9518 42.3571 44.2277C44.3941 46.2938 43.9585 50.2159 42.4915 51.6589C40.9473 53.7994 36.4367 51.9751 36.3305 48.392Z" fill="#D79D71"/>
<g opacity="0.30855" filter="url(#filter21_f_74_4)">
<path fill-rule="evenodd" clip-rule="evenodd" d="M39.4229 43.4059C40.198 43.2128 40.8465 43.3256 41.38 43.5097C42.4497 43.8788 43.0551 44.811 43.2798 46.0736C42.6905 45.6361 42.5251 44.8294 41.9684 44.4033C41.3199 44.0011 40.9254 43.9965 40.5925 43.9478C40.0734 43.8996 39.9283 43.9869 39.326 44.1392C38.7505 44.3017 37.2144 45.5092 37.2246 45.3584C37.3413 44.948 38.4908 43.6091 39.4229 43.4059Z" fill="#762E0B"/>
</g>
<g opacity="0.200743" filter="url(#filter22_f_74_4)">
<path fill-rule="evenodd" clip-rule="evenodd" d="M43.5114 49.8071C42.9105 51.9175 41.6777 52.5152 40.7686 52.5747C40.0841 52.6196 38.8854 52.3936 39.5103 51.9363C40.323 51.6577 40.6265 51.5882 40.8947 51.4159C41.5401 51.0014 42.123 50.3004 42.3274 50.0405C42.6129 49.6541 42.7464 49.3506 42.9906 48.8489C43.1271 48.5687 43.7117 47.7602 43.7278 47.5767C43.7597 47.212 43.9323 48.7383 43.5114 49.8071Z" fill="#982F07"/>
</g>
<g opacity="0.301115" filter="url(#filter23_f_74_4)">
<path fill-rule="evenodd" clip-rule="evenodd" d="M43.0957 47.2472C43.0043 48.5648 41.3645 50.5025 40.0353 50.3518C38.7061 50.2012 37.7158 48.1955 37.5711 46.8827C37.3541 44.9137 42.2633 45.2587 40.8292 45.153C39.4951 45.0548 43.1872 45.9297 43.0957 47.2472Z" fill="#1A1A1A"/>
</g>
<g filter="url(#filter24_f_74_4)">
<path fill-rule="evenodd" clip-rule="evenodd" d="M44.4575 42.1338C45.2227 42.3716 46.8709 44.5409 46.3164 44.7314C46.2563 45.1496 45.3936 43.1495 44.4575 42.1338Z" fill="#5B1C04" fill-opacity="0.695473"/>
</g>
<g opacity="0.557692" filter="url(#filter25_f_74_4)">
<path fill-rule="evenodd" clip-rule="evenodd" d="M36.9901 48.6735C38.2287 49.4653 38.8422 50.5258 39.0678 51.457C39.3964 52.8136 38.9016 53.8955 38.3172 53.4708C38.2258 52.4856 38.2659 52.0573 38.1569 51.7168C37.8946 50.8973 37.2985 50.1726 37.0892 49.8884C36.7739 49.4869 36.7392 49.5137 36.3015 49.1375C36.057 48.9274 35.3332 48.6461 35.186 48.5259C34.7769 48.192 36.0323 47.9738 36.9901 48.6735Z" fill="#7E2807"/>
</g>
<g opacity="0.330769" filter="url(#filter26_f_74_4)">
<path fill-rule="evenodd" clip-rule="evenodd" d="M39.2912 53.6139C37.5818 50.6354 40.3968 51.8114 41.4883 52.7816C42.2324 54.0485 41.1718 55.0655 39.2912 53.6139Z" fill="#7E2807"/>
</g>
<path fill-rule="evenodd" clip-rule="evenodd" d="M38.5602 52.1651C38.5602 52.1651 38.6033 52.9651 38.5689 53.018C38.5179 53.0962 37.4066 51.3491 35.8121 50.6475C35.2486 50.3995 34.4784 50.1959 33.8645 50.0278C33.3363 49.8831 32.4532 50.3402 32.2033 50.1811C31.9523 50.0213 32.6651 49.1034 32.8347 48.9201C33.1675 48.5605 33.6755 48.0715 34.3563 48.0349C34.6394 48.0197 35.0842 48.0508 35.44 48.1678C35.7988 48.2859 36.1026 48.4781 36.2462 48.5668C37.5844 49.3935 38.5792 51.2002 38.5602 52.1651Z" fill="#934E27"/>
<g opacity="0.429885" filter="url(#filter27_f_74_4)">
<path fill-rule="evenodd" clip-rule="evenodd" d="M34.7403 48.2989C33.3572 49.1795 32.1526 49.9292 32.3723 49.9063C33.4365 49.5945 34.5863 50.0578 34.7232 50.0506C37.1755 47.6867 34.9729 48.2816 34.7403 48.2989Z" fill="#7E2807"/>
</g>
<g opacity="0.429885" filter="url(#filter28_f_74_4)">
<path fill-rule="evenodd" clip-rule="evenodd" d="M34.315 48.122C32.4012 48.4661 31.8041 50.1556 31.9873 50.0868C32.2972 48.8949 35.4512 48.0273 34.315 48.122Z" fill="#1A1A1A"/>
<path fill-rule="evenodd" clip-rule="evenodd" d="M34.315 48.122C32.4012 48.4661 31.8041 50.1556 31.9873 50.0868C32.2972 48.8949 35.4512 48.0273 34.315 48.122Z" stroke="#1A1A1A" stroke-width="1.00157"/>
</g>
<g opacity="0.472119" filter="url(#filter29_f_74_4)">
<path fill-rule="evenodd" clip-rule="evenodd" d="M38.1072 51.5731C38.2171 51.9351 37.9677 52.1936 38.0371 52.4211C38.172 52.8631 38.5715 53.0872 38.5688 53.018C38.5671 52.9721 38.7435 52.6041 38.6724 52.0705C38.4732 51.1771 37.8792 50.2804 37.7058 49.9991C37.5981 49.8243 37.5291 49.7705 37.4963 49.8175C37.417 49.9309 37.781 50.0892 38.1072 51.5731Z" fill="#7E2807"/>
</g>
<g opacity="0.832714" filter="url(#filter30_f_74_4)">
<path d="M36.2676 50.1808C35.8767 49.9752 35.4851 50.0134 35.393 50.266C35.3009 50.5187 35.5432 50.8901 35.9341 51.0957C36.325 51.3013 36.7166 51.2631 36.8087 51.0104C36.9008 50.7578 36.6585 50.3863 36.2676 50.1808Z" fill="#1A1A1A"/>
</g>
<path fill-rule="evenodd" clip-rule="evenodd" d="M38.4837 57.377C35.2871 60.5917 27.2408 54.9343 30.5705 51.0288C33.9945 47.0126 41.95 53.8912 38.4837 57.377Z" fill="#DE9C7C"/>
<g opacity="0.269231" filter="url(#filter31_f_74_4)">
<path fill-rule="evenodd" clip-rule="evenodd" d="M38.7872 53.9145C40.0772 55.4909 39.2179 58.8629 34.3164 58.0705C33.2275 57.8945 31.0594 56.3607 30.6861 55.4939C33.1485 56.6967 36.4702 57.455 38.7872 53.9145Z" fill="#AC3C00" fill-opacity="0.944915"/>
</g>
<g opacity="0.653846" filter="url(#filter32_f_74_4)">
<path fill-rule="evenodd" clip-rule="evenodd" d="M35.0058 50.2661C31.0519 49.3503 31.2468 51.8427 36.5683 53.0206C37.2399 53.1692 38.7925 54.1789 38.8785 53.8421C39.0056 53.3441 35.8219 50.4551 35.0058 50.2661Z" fill="white" fill-opacity="0.563559"/>
</g>
<g opacity="0.734615" filter="url(#filter33_f_74_4)">
<path fill-rule="evenodd" clip-rule="evenodd" d="M32.3531 49.8103C32.4009 49.7721 33.6926 50.0586 31.9629 50.3113C31.8776 50.3238 31.9727 50.5864 31.8885 50.6382C30.9355 51.225 29.6151 53.3961 29.539 53.1929C28.8929 51.467 31.3413 50.1316 31.3413 50.1316C32.3065 49.7557 32.3531 49.8103 32.3531 49.8103Z" fill="#FDFCFC"/>
</g>
<path fill-rule="evenodd" clip-rule="evenodd" d="M47.5872 59.6817C45.587 59.7523 44.1687 57.9909 44.2216 55.8461C44.2738 53.7284 45.7859 51.8563 47.6443 51.8898C48.9025 52.1332 49.7122 52.8384 50.2245 53.746C51.5281 56.0553 50.559 59.6058 47.5872 59.6817Z" fill="#DE9C7C"/>
<g opacity="0.6" filter="url(#filter34_f_74_4)">
<path fill-rule="evenodd" clip-rule="evenodd" d="M50.0218 53.2183C51.4653 55.7197 50.8965 56.7503 50.6371 57.0036C50.4681 57.2111 48.3169 57.9311 49.5755 56.099C49.929 55.5845 49.3717 55.1713 49.3104 54.8766C49.189 54.4375 49.4609 54.2236 49.2024 53.7649C49.0442 53.4842 48.2695 52.6994 48.1883 52.5336C47.9627 52.0728 49.2897 52.1856 50.0218 53.2183Z" fill="#1A1A1A"/>
</g>
<g opacity="0.61" filter="url(#filter35_f_74_4)">
<path fill-rule="evenodd" clip-rule="evenodd" d="M48.3759 58.4352C46.5399 59.1121 45.2285 58.2648 45.016 57.9796C45.139 58.1009 45.8751 58.0328 46.0695 58.1543C46.5428 58.45 47.2826 57.9526 47.506 57.9678C47.6552 57.966 47.8937 57.8168 48.1415 57.6424C48.4433 57.4301 49.1968 56.8114 49.3004 56.6448C49.932 55.6282 50.5145 57.0357 50.6371 57.0035C50.978 56.914 49.125 58.037 48.3759 58.4352Z" fill="#D78F6B"/>
</g>
<g opacity="0.146667" filter="url(#filter36_f_74_4)">
<path fill-rule="evenodd" clip-rule="evenodd" d="M48.4631 59.5467C46.627 60.2235 45.3547 58.7073 45.1422 58.422C45.2652 58.5433 46.0012 58.4752 46.1957 58.5967C46.669 58.8925 47.544 58.5876 47.7674 58.6028C48.0983 58.5992 48.854 58.2733 49.1911 58.1547C49.3974 58.0821 50.117 57.8461 50.4556 57.685C50.8003 57.5211 49.4849 59.2684 48.4631 59.5467Z" fill="#AC3C00" fill-opacity="0.945098"/>
</g>
<g opacity="0.186667" filter="url(#filter37_f_74_4)">
<path fill-rule="evenodd" clip-rule="evenodd" d="M48.7749 52.2204C50.8452 54.4603 49.7755 53.4216 48.8163 53.0202C48.5628 52.8073 47.6488 52.9319 47.3157 52.8023C46.7752 51.5158 48.0063 51.8671 48.7749 52.2204Z" fill="#AC3C00" fill-opacity="0.945098"/>
</g>
<path fill-rule="evenodd" clip-rule="evenodd" d="M49.3004 55.065C49.3004 56.8853 48.2006 58.0082 46.3457 58.1454C44.7889 58.2605 43.4672 57.2786 42.5874 56.1696C42.3459 55.8653 41.7656 54.7903 41.7656 54.4453C42.0669 52.7254 45.2368 50.7879 47.0078 50.8425C47.1046 50.8921 46.9619 51.064 47.0081 51.2041C47.1048 51.497 47.22 51.8522 47.2498 51.9509C47.4468 52.6022 47.3617 52.7191 47.5791 52.6868C47.8408 52.6479 48.3324 52.8572 48.5492 53.1226C49.0165 53.6947 49.3004 54.2609 49.3004 55.065Z" fill="#7E2807"/>
<g opacity="0.642308" filter="url(#filter38_f_74_4)">
<path fill-rule="evenodd" clip-rule="evenodd" d="M41.7656 54.4452C41.8912 53.7058 46.7433 51.3455 47.0081 51.204C47.8403 51.5836 43.8658 53.645 41.7656 54.4452Z" fill="#5B1C04" fill-opacity="0.695473"/>
</g>
<g opacity="0.40824" filter="url(#filter39_f_74_4)">
<path fill-rule="evenodd" clip-rule="evenodd" d="M48.345 53.0452C48.3942 52.7904 49.107 53.4184 49.311 54.3356C49.5176 55.2642 49.2132 56.4856 48.9281 56.7795C48.6935 57.0213 47.7984 56.6333 46.8379 56.0157C46.4327 55.7551 46.0743 55.4924 45.8849 55.1055C45.5473 54.4158 45.9681 53.9123 46.0344 53.0878C48.3103 53.0384 46.9175 52.6569 48.345 53.0452Z" fill="#CFAD96"/>
</g>
<g opacity="0.632959" filter="url(#filter40_f_74_4)">
<path fill-rule="evenodd" clip-rule="evenodd" d="M46.8987 51.3596C47.212 51.4431 47.2688 52.4265 47.5693 53.0325C47.9817 53.8645 47.8405 54.0113 47.8611 54.0823C47.8556 54.1184 47.5836 53.525 47.3935 53.3689C47.2499 53.2278 47.0992 52.9195 47.0161 52.4409C46.9926 52.3339 46.8374 52.0797 46.8472 51.9942C46.8903 51.6194 46.9179 51.4713 46.8987 51.3596Z" fill="#5B1C04" fill-opacity="0.650206"/>
</g>
<g filter="url(#filter41_f_74_4)">
<path fill-rule="evenodd" clip-rule="evenodd" d="M41.8755 54.7564C42.1754 54.7066 43.414 55.5912 44.7748 56.2806C46.2506 57.0282 47.8477 57.5911 47.9464 57.6842C47.8245 57.8538 47.5287 57.9182 47.2212 57.9922C46.4617 58.175 45.2934 58.1438 44.2202 57.5603C43.1112 56.9574 42.1141 55.8277 41.8755 54.7564Z" fill="#5B1C04" fill-opacity="0.666667"/>
</g>
<g opacity="0.853846" filter="url(#filter42_f_74_4)">
<path fill-rule="evenodd" clip-rule="evenodd" d="M47.0749 50.0264C46.7843 51.2613 43.7174 51.6549 44.6712 49.3571C45.351 47.8203 47.3749 47.6346 47.0749 50.0264Z" fill="#7E2807"/>
</g>
<path fill-rule="evenodd" clip-rule="evenodd" d="M52.3383 46.6774C52.4517 48.6128 51.0631 50.2547 49.0171 50.0177C47.205 49.8078 45.8459 48.213 45.7974 46.5377C45.7441 44.6937 47.1828 43.3371 49.0171 43.3371C50.8513 43.3371 52.2304 44.8357 52.3383 46.6774Z" fill="#D99A76"/>
<g opacity="0.70412" filter="url(#filter43_f_74_4)">
<path d="M49.8858 47.6462C50.9301 47.6462 51.7768 46.7885 51.7768 45.7306C51.7768 44.6726 50.9301 43.815 49.8858 43.815C48.8414 43.815 47.9948 44.6726 47.9948 45.7306C47.9948 46.7885 48.8414 47.6462 49.8858 47.6462Z" fill="#1A1A1A"/>
</g>
<g opacity="0.367041" filter="url(#filter44_f_74_4)">
<path fill-rule="evenodd" clip-rule="evenodd" d="M45.7965 45.7306C45.7307 50.0355 49.4296 50.227 49.8704 49.8667C47.8225 48.4725 48.0578 49.334 46.9991 47.1442C46.8915 46.709 46.7149 46.2335 46.8389 45.7306C46.9148 45.423 47.3348 44.0829 47.3576 43.9056C47.4211 43.4129 46.3454 44.5435 45.7965 45.7306Z" fill="#D28B62"/>
</g>
<path fill-rule="evenodd" clip-rule="evenodd" d="M32.973 46.1553C33.6777 47.3138 32.1839 49.4096 30.408 49.502C28.8403 49.5835 27.3249 48.0986 27.3249 46.5377C27.4932 44.657 29.0467 43.8359 29.8459 43.6513C30.9719 43.3912 32.0967 44.6587 32.973 46.1553Z" fill="#E2976D"/>
<path fill-rule="evenodd" clip-rule="evenodd" d="M37.5111 40.9997C38.4162 41.621 36.5311 42.1159 35.4143 43.7094C34.9845 44.3226 34.6138 45.2676 34.2192 45.8244C33.7351 46.2607 33.4929 46.5107 33.0464 46.7538C32.2185 46.9118 31.5608 46.8384 30.8384 46.5272C30.8384 46.5272 30.6683 46.4238 30.5612 46.3561C29.5732 45.7316 29.3321 44.5041 29.9703 43.6927C31.5548 41.7837 36.1102 40.156 37.5111 40.9997Z" fill="#7E2807"/>
<g opacity="0.569288" filter="url(#filter45_f_74_4)">
<path fill-rule="evenodd" clip-rule="evenodd" d="M35.4143 43.7094C35.1483 44.3407 34.7777 45.2115 34.2192 45.8244C33.5839 46.5217 32.8164 46.8462 32.019 46.8344C31.4742 46.8264 30.9905 46.6073 30.9235 46.5738C30.6584 46.4353 30.5397 46.3153 30.3482 46.1861C30.3237 46.1813 29.9369 45.7666 29.9111 45.5399C30.0368 44.8005 33.1393 44.8172 33.4041 44.6756C34.0485 44.3313 34.4267 43.7679 34.6287 43.6172C39.1077 40.1044 35.9917 42.273 35.4143 43.7094Z" fill="#7E2807"/>
</g>
<g opacity="0.85" filter="url(#filter46_f_74_4)">
<path fill-rule="evenodd" clip-rule="evenodd" d="M30.0215 43.1992C28.3957 45.147 31.5881 43.0592 33.6828 42.2611C40.8352 39.6049 32.0967 40.8062 30.0215 43.1992Z" fill="white" fill-opacity="0.563559"/>
</g>
<g opacity="0.765385" filter="url(#filter47_f_74_4)">
<path d="M33.0949 46.7954C33.0053 46.8614 32.9157 46.9275 32.8508 46.9753C32.786 47.0231 32.746 47.0527 32.6877 47.0879C32.6293 47.123 32.5524 47.1639 32.5067 47.1861C32.4611 47.2083 32.4465 47.2118 32.4332 47.2168C32.42 47.2217 32.4084 47.2283 32.3859 47.2374C32.3634 47.2466 32.3299 47.2583 32.2869 47.2742C32.2439 47.2901 32.1915 47.3101 32.0955 47.3393C31.9995 47.3685 31.8599 47.4068 31.7256 47.4445C31.5913 47.4821 31.4624 47.5191 31.3748 47.5401C31.2873 47.561 31.2409 47.5659 31.1872 47.5724C31.1334 47.579 31.0724 47.5873 31.0059 47.5937C30.9393 47.6001 30.8683 47.6046 30.7956 47.6033C30.7229 47.6023 30.6469 47.5952 30.574 47.5901C30.5012 47.5849 30.4316 47.5815 30.3865 47.5785C30.3414 47.5757 30.3209 47.573 30.2993 47.5703" stroke="#8F4F34" stroke-opacity="0.572016" stroke-width="2.00315"/>
</g>
<g opacity="0.446154" filter="url(#filter48_f_74_4)">
<path d="M32.3946 47.2983C32.4156 47.4177 32.4347 47.5258 32.4539 47.6191C32.473 47.7124 32.4862 47.7613 32.4999 47.8124C32.5137 47.8635 32.5256 47.9081 32.5405 47.9563C32.5555 48.0045 32.5754 48.0624 32.5935 48.1153" stroke="#934824" stroke-opacity="0.572016" stroke-width="0.869291"/>
</g>
<g opacity="0.59176" filter="url(#filter49_f_74_4)">
<path fill-rule="evenodd" clip-rule="evenodd" d="M33.0883 46.7577C33.1971 46.7297 33.1313 46.6558 33.1106 47.1536C33.1032 47.3303 32.7221 48.0027 32.7144 47.9991C32.5782 47.9478 32.8125 47.439 32.7246 47.3321C32.6094 47.1922 32.5189 46.9318 32.6403 46.8869C32.7397 46.8501 32.974 46.8092 33.0883 46.7577Z" fill="#FFBF9D"/>
</g>
<g opacity="0.726923" filter="url(#filter50_f_74_4)">
<path fill-rule="evenodd" clip-rule="evenodd" d="M29.0914 49.0036C28.0447 47.7623 28.665 47.7039 28.9996 47.2824C31.0178 47.5052 30.4309 49.7573 29.0914 49.0036Z" fill="#EAB293"/>
</g>
<g opacity="0.876923" filter="url(#filter51_f_74_4)">
<path fill-rule="evenodd" clip-rule="evenodd" d="M30.1118 48.5495C29.9077 48.9179 29.5775 49.1429 29.1095 49.1665C28.7554 49.1844 30.452 49.7159 31.0718 49.3443C32.3442 48.8279 32.6029 48.1015 32.6029 48.1015C32.6376 47.8741 32.8632 47.3993 32.6807 47.1354C32.6199 47.0475 32.4064 47.2474 32.2688 47.1354C31.9814 46.9011 30.7642 46.8796 30.2602 47.242C30.3272 47.35 30.4676 47.6298 30.1118 48.5495Z" fill="#BB6535"/>
</g>
<g opacity="0.503846" filter="url(#filter52_f_74_4)">
<path fill-rule="evenodd" clip-rule="evenodd" d="M31.5418 47.2471C33.2378 47.3158 31.7278 47.4137 31.4068 47.4741C30.5917 47.5489 29.9103 49.473 30.4062 47.4454C30.5588 47.3006 31.431 47.2616 31.5418 47.2471Z" fill="#DB8150"/>
</g>
<g opacity="0.546816" filter="url(#filter53_f_74_4)">
<path fill-rule="evenodd" clip-rule="evenodd" d="M27.1964 46.4336C27.1564 44.4444 29.6864 43.4016 29.8278 43.6299C29.6857 43.6982 30.0751 43.6496 28.3021 44.7259C27.8641 44.9918 27.7346 45.676 27.6573 45.8751C27.5659 46.1795 27.562 46.1463 27.5703 46.4985C27.5754 46.7139 27.4705 47.6623 27.4705 47.6623C27.452 48.0072 27.3334 47.2654 27.1964 46.4336Z" fill="#1A1A1A"/>
</g>
<g opacity="0.75" filter="url(#filter54_f_74_4)">
<path fill-rule="evenodd" clip-rule="evenodd" d="M43.2027 42.2608C42.5511 41.8315 40.9676 42.2119 40.3096 41.9093C37.1574 40.46 31.7715 39.772 38.5753 43.5252C38.9275 43.1605 40.5912 43.0113 40.7089 43.0938C40.9403 43.2562 42.0123 43.2845 42.2885 43.6237C42.5775 43.6181 43.0644 44.1275 43.2939 44.1389C43.7176 44.1599 49.0224 43.5184 48.2566 42.3545C47.5466 41.2753 44.6125 41.2161 43.2027 42.2608Z" fill="#5B1C04" fill-opacity="0.716049"/>
</g>
<g opacity="0.192308" filter="url(#filter55_f_74_4)">
<path d="M30.2478 47.1909C30.3155 47.3668 30.3862 47.5509 30.4554 47.7308L30.4922 47.8951C30.5163 48.0402 30.5406 48.1868 30.5262 48.3455C30.5117 48.5043 30.4454 48.7234 30.3861 48.8311C30.3268 48.9387 30.1999 49.0714 30.0698 49.1532C29.9396 49.235 29.7841 49.2904 29.6773 49.312C29.5706 49.3335 29.5199 49.3208 29.4633 49.3065" stroke="#1A1A1A" stroke-width="4.27087"/>
</g>
<g opacity="0.524345" filter="url(#filter56_f_74_4)">
<path fill-rule="evenodd" clip-rule="evenodd" d="M27.5729 46.9701C27.539 46.9395 27.5455 47.6017 27.7564 47.9047C27.902 48.1138 27.8255 48.3447 28.2026 48.6306C28.5304 48.879 29.9393 49.4159 29.9434 49.3983C29.9827 49.3273 29.3832 49.1218 28.9756 48.8573C28.6954 48.6754 28.3777 48.5139 28.2494 48.375C27.904 48.0612 27.8041 47.0796 27.5729 46.9701Z" fill="#FFBF9D"/>
</g>
<path fill-rule="evenodd" clip-rule="evenodd" d="M57.4207 36.186C54.7417 40.3207 49.5949 42.9648 42.1222 42.2333C38.4442 41.8732 35.2884 41.2336 32.9234 39.9898C32.9175 39.9866 32.9117 39.9837 32.9058 39.9806C28.1486 37.4712 25.9601 33.2509 25.9601 27.6474C25.9601 19.2551 33.2954 12.5616 42.3425 12.4518C42.3503 12.4517 42.358 12.4516 42.3658 12.4516C43.7796 11.8864 44.2089 11.5384 44.6319 10.8834C44.6697 10.8249 45.3791 10.7803 44.6294 12.1492C46.1321 11.8337 46.6795 9.57059 47.1839 10.0723C48.3951 11.6398 47.3804 12.431 47.4676 12.5157C48.0507 13.0819 48.7217 11.7627 49.6747 11.6454C50.5343 11.957 49.4123 14.4817 50.3021 14.5778C58.9476 17.1472 61.3285 29.9907 57.4207 36.186Z" fill="#B75D24"/>
<g opacity="0.901149" filter="url(#filter57_f_74_4)">
<path fill-rule="evenodd" clip-rule="evenodd" d="M37.0821 15.9381C32.0171 17.4038 25.9641 19.9949 25.9601 27.6474C26.2056 37.5155 32.0986 39.4763 34.8638 40.87C31.7651 39.3028 27.6394 34.1818 27.8566 30.0341C27.8587 22.4303 33.7012 19.8773 37.0821 15.9381Z" fill="#7E2807"/>
<path fill-rule="evenodd" clip-rule="evenodd" d="M37.0821 15.9381C32.0171 17.4038 25.9641 19.9949 25.9601 27.6474C26.2056 37.5155 32.0986 39.4763 34.8638 40.87C31.7651 39.3028 27.6394 34.1818 27.8566 30.0341C27.8587 22.4303 33.7012 19.8773 37.0821 15.9381Z" stroke="#1A1A1A" stroke-width="1.00157"/>
</g>
<g filter="url(#filter58_f_74_4)">
<path fill-rule="evenodd" clip-rule="evenodd" d="M26.2287 29.5583C26.9038 37.2745 32.6237 39.8587 33.6702 40.3515C33.1937 40.0209 31.5983 38.463 30.4796 37.2515C29.0777 35.7334 29.1421 34.6361 28.5552 33.5932C27.5647 28.6545 26.1552 23.2683 26.2287 29.5583Z" fill="#7E2807"/>
</g>
<g opacity="0.850575" filter="url(#filter59_f_74_4)">
<path fill-rule="evenodd" clip-rule="evenodd" d="M52.9802 15.8098C59.5128 20.1641 59.1643 28.5578 59.0364 29.9644C59.0038 29.259 57.7345 24.0785 57.5122 23.1377C56.9712 20.8481 54.997 18.7259 54.4391 17.9539C53.5494 16.8751 53.7261 17.3863 52.5403 16.5729C51.8148 16.0752 49.9117 14.9586 49.5068 14.6353C48.3818 13.7371 50.018 14.3364 52.9802 15.8098Z" fill="#1A1A1A"/>
</g>
<g opacity="0.850575" filter="url(#filter60_f_74_4)">
<path fill-rule="evenodd" clip-rule="evenodd" d="M46.6859 20.3056C51.6527 18.706 55.4876 22.3655 56.1745 22.9903C55.0897 23.4365 52.858 22.4677 52.2724 22.2068C50.8472 21.5718 49.7967 21.7063 48.9138 21.6837C47.982 21.7083 47.6081 21.8148 46.6944 22.096C44.5821 22.7462 43.9813 21.563 46.6859 20.3056Z" fill="#1A1A1A"/>
</g>
<g opacity="0.74023" filter="url(#filter61_f_74_4)">
<path fill-rule="evenodd" clip-rule="evenodd" d="M58.7751 30.074C57.9796 38.1561 51.24 40.8628 50.0069 41.379C50.5683 41.0328 52.4481 39.4009 53.7663 38.132C55.4181 36.542 55.3422 35.3926 56.0337 34.3002C57.2008 29.1273 58.8616 23.4858 58.7751 30.074Z" fill="#7E2807"/>
</g>
<g opacity="0.429885" filter="url(#filter62_f_74_4)">
<path fill-rule="evenodd" clip-rule="evenodd" d="M56.4593 18.1291C54.0151 14.2863 46.6839 13.2365 40.9854 15.3078C32.7423 18.2598 36.0856 18.1709 35.6968 21.202C36.137 17.8039 41.2564 18.9026 44.812 17.9686C51.218 15.8771 52.1809 15.9767 56.4593 18.1291Z" fill="#7E2807"/>
<path fill-rule="evenodd" clip-rule="evenodd" d="M56.4593 18.1291C54.0151 14.2863 46.6839 13.2365 40.9854 15.3078C32.7423 18.2598 36.0856 18.1709 35.6968 21.202C36.137 17.8039 41.2564 18.9026 44.812 17.9686C51.218 15.8771 52.1809 15.9767 56.4593 18.1291Z" stroke="#1A1A1A" stroke-width="1.00157"/>
</g>
<g filter="url(#filter63_f_74_4)">
<path fill-rule="evenodd" clip-rule="evenodd" d="M28.7965 18.1679C29.8286 15.8138 31.5863 13.8621 36.1437 12.5843C36.8237 12.3937 38.1726 12.0149 39.4634 11.8617C40.3507 11.7563 41.1571 11.9225 41.9402 11.7175C42.9928 12.1168 47.572 12.1723 46.7334 12.7389C44.3569 14.3447 31.5997 16.8621 28.7965 18.1679Z" fill="#1A1A1A"/>
<path fill-rule="evenodd" clip-rule="evenodd" d="M28.7965 18.1679C29.8286 15.8138 31.5863 13.8621 36.1437 12.5843C36.8237 12.3937 38.1726 12.0149 39.4634 11.8617C40.3507 11.7563 41.1571 11.9225 41.9402 11.7175C42.9928 12.1168 47.572 12.1723 46.7334 12.7389C44.3569 14.3447 31.5997 16.8621 28.7965 18.1679Z" stroke="#1A1A1A" stroke-width="1.00157"/>
</g>
<g opacity="0.429885" filter="url(#filter64_f_74_4)">
<path fill-rule="evenodd" clip-rule="evenodd" d="M46.3 10.3469C46.2418 10.3809 46.0074 11.2313 45.6482 11.5678C45.1962 11.9913 44.6469 11.8455 45.1339 10.9876C45.3227 10.6552 44.7468 10.7924 44.6319 10.8836C39.4246 15.0151 43.524 10.8188 43.1176 13.876C47.2508 13.3107 47.4828 13.5434 48.1713 13.4106C49.2786 13.3653 48.9482 14.4691 49.5068 14.0784C50.6026 13.3122 49.465 11.7191 49.6747 11.6456C50.0696 11.5071 46.7854 13.3615 47.471 12.4647C48.0959 11.6474 47.452 9.07947 46.3 10.3469Z" fill="#7E2807"/>
<path fill-rule="evenodd" clip-rule="evenodd" d="M46.3 10.3469C46.2418 10.3809 46.0074 11.2313 45.6482 11.5678C45.1962 11.9913 44.6469 11.8455 45.1339 10.9876C45.3227 10.6552 44.7468 10.7924 44.6319 10.8836C39.4246 15.0151 43.524 10.8188 43.1176 13.876C47.2508 13.3107 47.4828 13.5434 48.1713 13.4106C49.2786 13.3653 48.9482 14.4691 49.5068 14.0784C50.6026 13.3122 49.465 11.7191 49.6747 11.6456C50.0696 11.5071 46.7854 13.3615 47.471 12.4647C48.0959 11.6474 47.452 9.07947 46.3 10.3469Z" stroke="#1A1A1A" stroke-width="1.00157"/>
</g>
<path fill-rule="evenodd" clip-rule="evenodd" d="M35.9593 20.4064C30.8386 20.8749 28.2009 24.6486 27.8853 28.7537C27.6614 31.666 28.773 34.7451 30.2513 36.9292C32.417 40.1291 36.3555 41.5809 40.2479 42.0941C41.8141 42.294 43.6711 42.3096 44.568 42.3548C51.2785 42.6929 55.7268 37.323 56.741 32.6537C56.9684 31.6066 57.1072 30.1678 56.9697 29.1403C56.2263 23.586 52.8825 21.5907 48.9138 21.6838C46.9017 21.731 44.9042 22.6912 43.2829 24.1971C41.3877 21.9432 38.6861 20.3867 35.9593 20.4064Z" fill="#EBBD98" stroke="#A95725" stroke-opacity="0.131387" stroke-width="3.02362"/>
<g opacity="0.406667" filter="url(#filter65_f_74_4)">
<path fill-rule="evenodd" clip-rule="evenodd" d="M47.0642 28.981C47.038 29.8636 46.719 31.3497 45.6049 31.4758C45.0885 31.5342 44.0727 31.5937 42.7377 31.7846C40.9104 32.0458 39.5284 31.3383 38.8348 31.3019C37.9442 31.2552 37.9299 29.8331 38.4112 28.981C39.3238 27.3653 38.8797 28.0405 40.2522 27.6871C40.7756 27.5523 41.5224 27.1346 42.7982 26.9357C44.0502 26.7406 44.6507 26.0409 45.4428 26.4743C46.2353 26.908 47.1064 27.5597 47.0642 28.981Z" fill="#D8A178"/>
</g>
<g opacity="0.678161" filter="url(#filter66_f_74_4)">
<path fill-rule="evenodd" clip-rule="evenodd" d="M46.912 23.5568C59.0798 20.644 54.3422 34.9332 52.6396 32.8566C50.9307 30.623 50.6421 31.5037 49.5834 31.4241C49.2763 30.3224 49.0608 30.5911 47.6685 30.0304C44.444 28.7319 43.669 27.9801 46.912 23.5568Z" fill="#1A1A1A"/>
</g>
<g opacity="0.873563" filter="url(#filter67_f_74_4)">
<path fill-rule="evenodd" clip-rule="evenodd" d="M47.8034 42.0601C38.1872 43.1914 32.4202 39.8979 31.5673 38.5629C32.2022 38.788 34.7553 40.3999 36.7696 40.8412C39.2938 41.3943 40.7957 41.5937 42.3425 41.7437C47.3557 42.392 52.7964 40.4689 51.9011 40.7462C51.5918 40.842 49.7136 41.7551 47.8034 42.0601Z" fill="#7E2807"/>
</g>
<g opacity="0.705747" filter="url(#filter68_f_74_4)">
<path fill-rule="evenodd" clip-rule="evenodd" d="M28.9623 34.4007C25.4207 26.3712 30.9512 21.6442 32.488 21.3528C32.2378 21.9092 30.6333 24.076 30.0697 25.8685C29.3634 28.1151 30.0654 29.4984 29.8091 30.894C29.6155 34.6183 33.4326 37.0528 32.7989 38.5809C32.6393 38.9657 30.3756 38.4948 28.9623 34.4007Z" fill="#D59864"/>
</g>
<g opacity="0.9" filter="url(#filter69_f_74_4)">
<path d="M48.3781 37.0698C50.1531 37.5662 51.844 37.3312 52.1548 36.5449C52.4655 35.7587 51.2785 34.7188 49.5035 34.2224C47.7285 33.726 46.0376 33.961 45.7268 34.7473C45.4161 35.5336 46.6031 36.5734 48.3781 37.0698Z" fill="#FE9697"/>
</g>
<g opacity="0.9" filter="url(#filter70_f_74_4)">
<path d="M35.2809 35.8414C33.4224 36.2255 31.688 35.8918 31.407 35.0961C31.1259 34.3004 32.4048 33.3441 34.2633 32.96C36.1218 32.576 37.8563 32.9097 38.1373 33.7054C38.4183 34.501 37.1395 35.4574 35.2809 35.8414Z" fill="#FE9697"/>
</g>
<g opacity="0.616092" filter="url(#filter71_f_74_4)">
<path d="M42.9962 35.5927C45.2959 35.572 47.1403 34.715 47.1158 33.6785C47.0914 32.6421 45.2072 31.8186 42.9075 31.8393C40.6078 31.86 38.7634 32.717 38.7878 33.7535C38.8123 34.79 40.6965 35.6134 42.9962 35.5927Z" fill="#E7E7E7"/>
</g>
<path d="M42.1391 34.219C42.9723 34.2683 43.6715 33.9081 43.7007 33.4143C43.73 32.9206 43.0782 32.4803 42.245 32.431C41.4117 32.3816 40.7125 32.7419 40.6833 33.2356C40.654 33.7293 41.3058 34.1696 42.1391 34.219Z" fill="#611405"/>
<g opacity="0.314607" filter="url(#filter72_f_74_4)">
<path d="M42.4451 33.136C42.7546 33.1606 43.011 33.0803 43.0178 32.9566C43.0246 32.8329 42.7793 32.7126 42.4698 32.688C42.1604 32.6634 41.904 32.7437 41.8971 32.8674C41.8903 32.9912 42.1356 33.1114 42.4451 33.136Z" fill="#1A1A1A"/>
</g>
<g filter="url(#filter73_f_74_4)">
<path fill-rule="evenodd" clip-rule="evenodd" d="M39.2543 28.841C39.2543 31.5615 36.8503 32.8451 34.2893 32.8451C31.7282 32.8451 29.9799 31.5615 29.9799 28.841C29.9799 26.1205 32.056 23.9151 34.6171 23.9151C37.1782 23.9151 39.2543 26.1205 39.2543 28.841Z" fill="#590D04"/>
<path fill-rule="evenodd" clip-rule="evenodd" d="M39.2543 28.841C39.2543 31.5615 36.8503 32.8451 34.2893 32.8451C31.7282 32.8451 29.9799 31.5615 29.9799 28.841C29.9799 26.1205 32.056 23.9151 34.6171 23.9151C37.1782 23.9151 39.2543 26.1205 39.2543 28.841Z" stroke="#7E2807" stroke-width="0.245669"/>
</g>
<g filter="url(#filter74_f_74_4)">
<path fill-rule="evenodd" clip-rule="evenodd" d="M39.1885 29.6682C39.0972 30.4416 36.6983 31.8302 34.25 31.8302C31.8016 31.8302 31.1807 31.9469 30.4419 29.5904C29.5765 26.8302 32.4266 24.3527 34.875 24.3527C37.3233 24.3527 39.5278 26.7954 39.1885 29.6682Z" fill="#470600"/>
<path fill-rule="evenodd" clip-rule="evenodd" d="M39.1885 29.6682C39.0972 30.4416 36.6983 31.8302 34.25 31.8302C31.8016 31.8302 31.1807 31.9469 30.4419 29.5904C29.5765 26.8302 32.4266 24.3527 34.875 24.3527C37.3233 24.3527 39.5278 26.7954 39.1885 29.6682Z" stroke="#1A1A1A" stroke-width="0.245669"/>
</g>
<g opacity="0.865" filter="url(#filter75_f_74_4)">
<path fill-rule="evenodd" clip-rule="evenodd" d="M39.2567 29.2057C39.2567 31.8348 36.703 32.8452 34.2893 32.8452C31.8755 32.8452 30.7864 32.2568 30.7864 29.6277C30.7864 26.9986 32.7432 24.8672 35.1569 24.8672C37.5706 24.8672 39.2567 26.5765 39.2567 29.2057Z" fill="#FEF9F8"/>
</g>
<g filter="url(#filter76_f_74_4)">
<path d="M35.6157 32.8123C37.6266 32.8123 39.2567 31.1976 39.2567 29.2057C39.2567 27.2138 37.6266 25.599 35.6157 25.599C33.6048 25.599 31.9747 27.2138 31.9747 29.2057C31.9747 31.1976 33.6048 32.8123 35.6157 32.8123Z" fill="#742708"/>
</g>
<g filter="url(#filter77_f_74_4)">
<path d="M35.6157 31.2071C36.7565 31.2071 37.6813 30.311 37.6813 29.2057C37.6813 28.1003 36.7565 27.2043 35.6157 27.2043C34.4749 27.2043 33.5501 28.1003 33.5501 29.2057C33.5501 30.311 34.4749 31.2071 35.6157 31.2071Z" fill="#470E01"/>
</g>
<g opacity="0.48324" filter="url(#filter78_f_74_4)">
<path fill-rule="evenodd" clip-rule="evenodd" d="M39.1636 28.7508C39.1636 30.4636 38.2161 29.7758 36.235 29.7758C34.2539 29.7758 31.9893 30.4636 31.9893 28.7508C31.9893 27.0379 33.5953 25.6494 35.5764 25.6494C37.5576 25.6494 39.1636 27.0379 39.1636 28.7508Z" fill="#1A1A1A" fill-opacity="0.736527"/>
</g>
<g filter="url(#filter79_f_74_4)">
<path d="M36.5823 28.3627C36.9554 28.3627 37.2579 28.0602 37.2579 27.687C37.2579 27.3139 36.9554 27.0114 36.5823 27.0114C36.2091 27.0114 35.9066 27.3139 35.9066 27.687C35.9066 28.0602 36.2091 28.3627 36.5823 28.3627Z" fill="#FAFDF9"/>
</g>
<g filter="url(#filter80_f_74_4)">
<path fill-rule="evenodd" clip-rule="evenodd" d="M45.7266 29.6673C45.3096 32.3556 47.4953 33.9936 50.0334 34.3873C52.5714 34.781 54.5008 33.7813 54.9178 31.093C55.3348 28.4046 53.6154 25.9061 51.0773 25.5124C48.5392 25.1187 46.1436 26.9789 45.7266 29.6673Z" fill="#590D04"/>
<path fill-rule="evenodd" clip-rule="evenodd" d="M45.7266 29.6673C45.3096 32.3556 47.4953 33.9936 50.0334 34.3873C52.5714 34.781 54.5008 33.7813 54.9178 31.093C55.3348 28.4046 53.6154 25.9061 51.0773 25.5124C48.5392 25.1187 46.1436 26.9789 45.7266 29.6673Z" stroke="#7E2807" stroke-width="0.245669"/>
</g>
<g filter="url(#filter81_f_74_4)">
<path fill-rule="evenodd" clip-rule="evenodd" d="M45.6651 30.4945C45.6371 31.2728 47.8015 33.0137 50.2279 33.3901C52.6543 33.7665 53.2518 33.9773 54.3451 31.7622C55.6259 29.1676 53.181 26.2813 50.7547 25.9049C48.3283 25.5285 45.7693 27.6035 45.6651 30.4945Z" fill="#470600"/>
<path fill-rule="evenodd" clip-rule="evenodd" d="M45.6651 30.4945C45.6371 31.2728 47.8015 33.0137 50.2279 33.3901C52.6543 33.7665 53.2518 33.9773 54.3451 31.7622C55.6259 29.1676 53.181 26.2813 50.7547 25.9049C48.3283 25.5285 45.7693 27.6035 45.6651 30.4945Z" stroke="#1A1A1A" stroke-width="0.245669"/>
</g>
<g opacity="0.865" filter="url(#filter82_f_74_4)">
<path fill-rule="evenodd" clip-rule="evenodd" d="M45.6684 30.027C45.2654 32.625 47.6413 34.0161 50.0334 34.3872C52.4254 34.7582 53.5949 34.3442 53.9979 31.7461C54.4009 29.1481 52.7885 26.7411 50.3964 26.3701C48.0044 25.999 46.0714 27.4289 45.6684 30.027Z" fill="#FEF9F8"/>
</g>
<g filter="url(#filter83_f_74_4)">
<path d="M48.7239 34.1507C46.7311 33.8416 45.3631 31.9954 45.6684 30.027C45.9737 28.0587 47.8367 26.7136 49.8295 27.0227C51.8224 27.3318 53.1903 29.1781 52.885 31.1464C52.5797 33.1148 50.7167 34.4599 48.7239 34.1507Z" fill="#742708"/>
</g>
<g filter="url(#filter84_f_74_4)">
<path d="M48.9699 32.5644C47.8394 32.389 47.0602 31.3614 47.2297 30.2691C47.3991 29.1768 48.4529 28.4335 49.5835 28.6089C50.7141 28.7843 51.4932 29.8119 51.3238 30.9042C51.1543 31.9965 50.1005 32.7398 48.9699 32.5644Z" fill="#470E01"/>
</g>
<g opacity="0.48324" filter="url(#filter85_f_74_4)">
<path fill-rule="evenodd" clip-rule="evenodd" d="M45.7278 29.6516C45.4652 31.3442 46.5096 30.8102 48.4729 31.1147C50.4363 31.4193 52.5751 32.4471 52.8376 30.7545C53.1002 29.0619 51.7214 27.4429 49.7581 27.1383C47.7948 26.8338 45.9903 27.959 45.7278 29.6516Z" fill="#1A1A1A" fill-opacity="0.736527"/>
<path fill-rule="evenodd" clip-rule="evenodd" d="M45.7278 29.6516C45.4652 31.3442 46.5096 30.8102 48.4729 31.1147C50.4363 31.4193 52.5751 32.4471 52.8376 30.7545C53.1002 29.0619 51.7214 27.4429 49.7581 27.1383C47.7948 26.8338 45.9903 27.959 45.7278 29.6516Z" stroke="#7E2807" stroke-width="1.00143"/>
</g>
<g filter="url(#filter86_f_74_4)">
<path d="M50.1086 29.5423C49.7388 29.4849 49.4854 29.1395 49.5426 28.7708C49.5998 28.402 49.9459 28.1496 50.3157 28.207C50.6855 28.2644 50.9389 28.6098 50.8817 28.9785C50.8245 29.3472 50.4784 29.5996 50.1086 29.5423Z" fill="#FAFDF9"/>
</g>
<g opacity="0.85" filter="url(#filter87_f_74_4)">
<path fill-rule="evenodd" clip-rule="evenodd" d="M39.4439 38.9996C38.128 36.9894 38.2313 36.0411 38.5456 35.9689C38.8041 35.9096 38.2757 36.5797 39.0217 37.9598C39.4177 38.6923 40.4836 39.509 41.0806 39.7297C41.9214 39.8743 43.295 39.0019 43.7959 39.1053C44.3332 39.2163 45.0247 36.6702 45.2368 36.7001C45.7553 36.7731 44.5118 40.1611 41.8737 39.9533C40.4783 39.8433 40.2106 39.4087 39.4439 38.9996Z" fill="white" fill-opacity="0.563559"/>
</g>
<g opacity="0.85" filter="url(#filter88_f_74_4)">
<path fill-rule="evenodd" clip-rule="evenodd" d="M39.6204 36.3883C38.9861 35.203 37.7819 34.8554 39.3262 35.2761C39.8612 35.9141 40.7509 36.7305 41.3479 36.9512C42.7128 37.5291 44.3983 36.1544 45.0048 35.8311C45.5233 35.9041 44.6883 37.5499 42.0502 37.342C40.6548 37.2321 40.3871 36.7975 39.6204 36.3883Z" fill="white" fill-opacity="0.563559"/>
</g>
<g opacity="0.811538" filter="url(#filter89_f_74_4)">
<path fill-rule="evenodd" clip-rule="evenodd" d="M38.7245 34.9745C38.5426 34.9826 38.586 35.3441 38.5593 35.5218C38.49 36.6282 38.8097 37.8151 39.4047 38.5893C39.9431 39.2898 40.7101 39.6281 41.563 39.7065C42.4529 39.7883 43.074 39.6421 43.7959 39.1052C44.1812 38.8187 44.5131 38.3351 44.7016 37.9677C44.9521 37.4794 45.1115 36.8347 45.1495 36.2281C45.1521 36.1691 45.1564 35.9577 45.106 35.9351C44.9653 35.8719 44.8123 36.05 44.7309 36.1202C44.5681 36.2605 44.4344 36.3576 44.1782 36.5048C43.5914 36.8421 42.7101 37.1316 42.0502 37.0908C40.6913 37.005 39.6604 35.9218 38.9478 35.1387C38.9037 35.0902 38.8309 34.9698 38.7245 34.9745Z" fill="#920000"/>
</g>
<path d="M41.563 39.7068C42.7548 39.8401 43.777 39.3894 43.8462 38.7003C43.9154 38.0111 43.0053 37.3444 41.8135 37.2112C40.6216 37.0779 39.5994 37.5285 39.5302 38.2177C39.4611 38.9068 40.3711 39.5735 41.563 39.7068Z" fill="#C25451"/>
<g opacity="0.234615" filter="url(#filter90_f_74_4)">
<path d="M41.548 39.476C42.4777 39.6081 43.2941 39.3755 43.3716 38.9565C43.449 38.5374 42.7581 38.0907 41.8284 37.9586C40.8987 37.8265 40.0823 38.0591 40.0048 38.4781C39.9274 38.8971 40.6183 39.3439 41.548 39.476Z" fill="#1A1A1A"/>
</g>
<g opacity="0.449438" filter="url(#filter91_f_74_4)">
<path fill-rule="evenodd" clip-rule="evenodd" d="M38.7214 35.0209C38.715 35.0202 38.7084 35.0201 38.7017 35.0203C38.5198 35.0285 38.5634 35.3899 38.5366 35.5676C38.4957 36.2203 38.7746 37.1574 38.994 37.7303C39.2842 37.8788 39.4624 38.0003 39.8227 37.9838C40.5485 37.9505 41.1119 37.9123 41.8284 37.9585C42.3889 37.9947 43.2924 38.2169 43.5815 38.291C43.9819 38.3938 44.3262 38.0019 44.7016 37.8847C44.9389 37.407 45.09 36.8615 45.1268 36.2737C45.1295 36.2146 45.1337 36.0033 45.0833 35.9806C44.9426 35.9175 44.7895 36.0957 44.7081 36.1659C44.5453 36.3062 44.4116 36.4032 44.1554 36.5504C43.5687 36.8877 42.6873 37.1773 42.0274 37.1365C40.6686 37.0507 39.6377 35.9675 38.9251 35.1844C38.8837 35.1389 38.8172 35.0303 38.7214 35.0209Z" fill="#8C3130"/>
</g>
<path d="M92.1057 30.7C92.1057 31.8333 91.7057 32.8133 90.9057 33.64C90.1057 34.4533 88.939 35.04 87.4057 35.4C88.2324 35.6267 88.8591 36 89.2857 36.52C89.7124 37.0267 89.9257 37.6133 89.9257 38.28C89.9257 39.3333 89.5924 40.2467 88.9257 41.02C88.2724 41.7933 87.3124 42.3933 86.0457 42.82C84.779 43.2333 83.2524 43.44 81.4657 43.44C80.799 43.44 80.2657 43.42 79.8657 43.38C79.8524 43.7533 79.6924 44.0333 79.3857 44.22C79.079 44.4067 78.6857 44.5 78.2057 44.5C77.7257 44.5 77.3924 44.3933 77.2057 44.18C77.0324 43.9667 76.959 43.6533 76.9857 43.24C77.1057 41.3733 77.339 39.42 77.6857 37.38C78.0324 35.3267 78.4724 33.3467 79.0057 31.44C79.099 31.1067 79.2857 30.8733 79.5657 30.74C79.8457 30.6067 80.2124 30.54 80.6657 30.54C81.479 30.54 81.8857 30.7667 81.8857 31.22C81.8857 31.4067 81.8457 31.62 81.7657 31.86C81.419 32.9 81.0724 34.3133 80.7257 36.1C80.379 37.8733 80.1324 39.5667 79.9857 41.18C80.6257 41.2333 81.1457 41.26 81.5457 41.26C83.4124 41.26 84.779 40.9933 85.6457 40.46C86.5257 39.9133 86.9657 39.22 86.9657 38.38C86.9657 37.7933 86.7124 37.3 86.2057 36.9C85.7124 36.5 84.879 36.28 83.7057 36.24C83.439 36.2267 83.2524 36.16 83.1457 36.04C83.039 35.92 82.9857 35.7267 82.9857 35.46C82.9857 35.0733 83.0657 34.76 83.2257 34.52C83.3857 34.28 83.679 34.1533 84.1057 34.14C85.0524 34.1133 85.9057 33.9733 86.6657 33.72C87.4391 33.4667 88.0457 33.1133 88.4857 32.66C88.9257 32.1933 89.1457 31.6533 89.1457 31.04C89.1457 30.2667 88.7657 29.66 88.0057 29.22C87.2457 28.7667 86.079 28.54 84.5057 28.54C83.079 28.54 81.699 28.7267 80.3657 29.1C79.0324 29.46 77.899 29.92 76.9657 30.48C76.539 30.7333 76.179 30.86 75.8857 30.86C75.6457 30.86 75.459 30.78 75.3257 30.62C75.2057 30.4467 75.1457 30.2333 75.1457 29.98C75.1457 29.6467 75.2124 29.36 75.3457 29.12C75.4924 28.88 75.8324 28.6067 76.3657 28.3C77.4857 27.66 78.799 27.16 80.3057 26.8C81.8124 26.44 83.3524 26.26 84.9257 26.26C87.3391 26.26 89.1391 26.6667 90.3257 27.48C91.5124 28.2933 92.1057 29.3667 92.1057 30.7ZM94.4781 32.86C93.9181 32.86 93.4981 32.7333 93.2181 32.48C92.9381 32.2133 92.7981 31.8467 92.7981 31.38C92.7981 30.9133 92.9781 30.5267 93.3381 30.22C93.7114 29.9 94.1714 29.74 94.7181 29.74C95.2114 29.74 95.6114 29.86 95.9181 30.1C96.2247 30.34 96.3781 30.68 96.3781 31.12C96.3781 31.6533 96.2047 32.08 95.8581 32.4C95.5114 32.7067 95.0514 32.86 94.4781 32.86ZM94.3181 43.6C93.4514 43.6 92.8181 43.2933 92.4181 42.68C92.0314 42.0667 91.8381 41.2533 91.8381 40.24C91.8381 39.64 91.9114 38.8733 92.0581 37.94C92.2181 36.9933 92.4181 36.1133 92.6581 35.3C92.7781 34.8733 92.9381 34.58 93.1381 34.42C93.3381 34.26 93.6581 34.18 94.0981 34.18C94.7781 34.18 95.1181 34.4067 95.1181 34.86C95.1181 35.1933 94.9914 35.9667 94.7381 37.18C94.4181 38.6467 94.2581 39.64 94.2581 40.16C94.2581 40.56 94.3114 40.8667 94.4181 41.08C94.5247 41.2933 94.7047 41.4 94.9581 41.4C95.1981 41.4 95.4981 41.2333 95.8581 40.9C96.2181 40.5667 96.6981 40.04 97.2981 39.32C97.4581 39.1333 97.6381 39.04 97.8381 39.04C98.0114 39.04 98.1447 39.12 98.2381 39.28C98.3447 39.44 98.3981 39.66 98.3981 39.94C98.3981 40.4733 98.2714 40.8867 98.0181 41.18C96.6981 42.7933 95.4647 43.6 94.3181 43.6ZM98.1999 43.6C97.6933 43.6 97.3333 43.3333 97.1199 42.8C96.9199 42.2667 96.8199 41.4133 96.8199 40.24C96.8199 38.5067 97.0666 36.86 97.5599 35.3C97.6799 34.9133 97.8733 34.6333 98.1399 34.46C98.4199 34.2733 98.8066 34.18 99.2999 34.18C99.5666 34.18 99.7533 34.2133 99.8599 34.28C99.9666 34.3467 100.02 34.4733 100.02 34.66C100.02 34.8733 99.9199 35.3533 99.7199 36.1C99.5866 36.6333 99.4799 37.1 99.3999 37.5C99.3199 37.9 99.2533 38.3933 99.1999 38.98C99.6399 37.8333 100.133 36.9 100.68 36.18C101.227 35.46 101.76 34.9467 102.28 34.64C102.813 34.3333 103.3 34.18 103.74 34.18C104.607 34.18 105.04 34.6133 105.04 35.48C105.04 36 104.893 36.94 104.6 38.3C104.347 39.46 104.22 40.2267 104.22 40.6C104.22 41.1333 104.413 41.4 104.8 41.4C105.067 41.4 105.38 41.24 105.74 40.92C106.113 40.5867 106.607 40.0533 107.22 39.32C107.38 39.1333 107.56 39.04 107.76 39.04C107.933 39.04 108.067 39.12 108.16 39.28C108.267 39.44 108.32 39.66 108.32 39.94C108.32 40.4733 108.193 40.8867 107.94 41.18C107.367 41.8867 106.747 42.4667 106.08 42.92C105.427 43.3733 104.68 43.6 103.84 43.6C103.16 43.6 102.647 43.4067 102.3 43.02C101.953 42.62 101.78 42.0467 101.78 41.3C101.78 40.9267 101.873 40.26 102.06 39.3C102.233 38.46 102.32 37.88 102.32 37.56C102.32 37.3467 102.247 37.24 102.1 37.24C101.927 37.24 101.68 37.4667 101.36 37.92C101.053 38.36 100.733 38.9467 100.4 39.68C100.08 40.4133 99.8199 41.1867 99.6199 42C99.4733 42.6267 99.2999 43.0533 99.0999 43.28C98.9133 43.4933 98.6133 43.6 98.1999 43.6ZM118.262 39.04C118.435 39.04 118.568 39.12 118.662 39.28C118.768 39.44 118.822 39.66 118.822 39.94C118.822 40.4733 118.695 40.8867 118.442 41.18C117.842 41.9133 117.235 42.5 116.622 42.94C116.008 43.38 115.282 43.6 114.442 43.6C113.415 43.6 112.588 43.3067 111.962 42.72C111.335 42.1333 111.022 41.3533 111.022 40.38C111.022 39.86 111.288 39.4867 111.822 39.26C112.408 39.0067 112.828 38.74 113.082 38.46C113.335 38.1667 113.462 37.8133 113.462 37.4C113.462 37.16 113.408 36.98 113.302 36.86C113.208 36.74 113.088 36.68 112.942 36.68C112.582 36.68 112.182 36.94 111.742 37.46C111.315 37.98 110.915 38.6533 110.542 39.48C110.168 40.2933 109.875 41.1333 109.662 42C109.515 42.6267 109.342 43.0533 109.142 43.28C108.955 43.4933 108.655 43.6 108.242 43.6C107.828 43.6 107.522 43.4533 107.322 43.16C107.135 42.8533 107.008 42.3867 106.942 41.76C106.875 41.1333 106.842 40.2133 106.842 39C106.842 36.9467 107.048 34.8067 107.462 32.58C107.888 30.3533 108.508 28.4867 109.322 26.98C110.148 25.46 111.135 24.7 112.282 24.7C112.895 24.7 113.388 24.9667 113.762 25.5C114.148 26.02 114.342 26.7 114.342 27.54C114.342 28.8867 113.948 30.2867 113.162 31.74C112.375 33.18 111.095 34.8667 109.322 36.8C109.282 37.4933 109.262 38.2067 109.262 38.94C109.902 37.2733 110.635 36.0667 111.462 35.32C112.288 34.56 113.062 34.18 113.782 34.18C114.448 34.18 114.982 34.4067 115.382 34.86C115.795 35.3133 116.002 35.8733 116.002 36.54C116.002 37.2733 115.815 37.9467 115.442 38.56C115.068 39.1733 114.428 39.72 113.522 40.2C113.575 40.56 113.735 40.8533 114.002 41.08C114.282 41.2933 114.615 41.4 115.002 41.4C115.415 41.4 115.815 41.24 116.202 40.92C116.588 40.6 117.095 40.0667 117.722 39.32C117.882 39.1333 118.062 39.04 118.262 39.04ZM111.862 26.68C111.622 26.68 111.355 27.0267 111.062 27.72C110.768 28.4 110.482 29.3267 110.202 30.5C109.935 31.66 109.715 32.9267 109.542 34.3C110.368 33.3267 111.048 32.2667 111.582 31.12C112.128 29.9733 112.402 28.9333 112.402 28C112.402 27.5733 112.355 27.2467 112.262 27.02C112.168 26.7933 112.035 26.68 111.862 26.68ZM124.21 34.18C124.516 34.18 124.73 34.22 124.85 34.3C124.97 34.38 125.03 34.5133 125.03 34.7C125.03 35.02 124.856 36.16 124.51 38.12C124.203 40 124.023 41.1133 123.97 41.46C123.476 44.8867 122.796 47.6 121.93 49.6C121.063 51.6 119.91 52.6 118.47 52.6C117.79 52.6 117.236 52.3867 116.81 51.96C116.383 51.5467 116.17 51 116.17 50.32C116.17 49.6933 116.31 49.0533 116.59 48.4C116.883 47.7467 117.416 46.9933 118.19 46.14C118.976 45.3 120.083 44.3333 121.51 43.24L121.57 42.78C121.663 42.2867 121.77 41.58 121.89 40.66C121.623 41.62 121.25 42.3533 120.77 42.86C120.29 43.3533 119.783 43.6 119.25 43.6C118.65 43.6 118.156 43.3267 117.77 42.78C117.396 42.22 117.21 41.5267 117.21 40.7C117.21 39.7 117.276 38.7867 117.41 37.96C117.543 37.12 117.763 36.2333 118.07 35.3C118.203 34.9 118.39 34.6133 118.63 34.44C118.87 34.2667 119.25 34.18 119.77 34.18C120.063 34.18 120.263 34.2267 120.37 34.32C120.49 34.4133 120.55 34.5533 120.55 34.74C120.55 34.8467 120.476 35.2067 120.33 35.82C120.196 36.3133 120.09 36.76 120.01 37.16C119.903 37.7067 119.81 38.2333 119.73 38.74C119.65 39.2333 119.61 39.64 119.61 39.96C119.61 40.4667 119.75 40.72 120.03 40.72C120.23 40.72 120.476 40.52 120.77 40.12C121.076 39.72 121.396 39.1133 121.73 38.3C122.076 37.4867 122.41 36.4867 122.73 35.3C122.836 34.9 122.996 34.6133 123.21 34.44C123.436 34.2667 123.77 34.18 124.21 34.18ZM118.69 50.66C119.023 50.66 119.396 50.2733 119.81 49.5C120.223 48.7267 120.636 47.44 121.05 45.64C120.023 46.5067 119.276 47.2933 118.81 48C118.356 48.72 118.13 49.3467 118.13 49.88C118.13 50.1067 118.17 50.2933 118.25 50.44C118.343 50.5867 118.49 50.66 118.69 50.66ZM135.167 43.6C134.674 43.6 134.32 43.4933 134.107 43.28C133.894 43.0533 133.787 42.6333 133.787 42.02C133.787 41.6067 133.827 41.08 133.907 40.44C134 39.7867 134.147 38.8933 134.347 37.76C134.694 35.6667 134.967 33.8533 135.167 32.32C135.287 31.36 135.347 30.56 135.347 29.92C135.347 29.32 135.127 29.02 134.687 29.02C134.34 29.02 133.92 29.2 133.427 29.56C132.947 29.9067 132.414 30.4667 131.827 31.24C131.64 31.4933 131.434 31.62 131.207 31.62C131.02 31.62 130.854 31.5333 130.707 31.36C130.574 31.1733 130.507 30.9667 130.507 30.74C130.507 30.5267 130.547 30.3133 130.627 30.1C130.72 29.8733 130.867 29.62 131.067 29.34C131.707 28.4467 132.42 27.76 133.207 27.28C133.994 26.7867 134.78 26.54 135.567 26.54C136.3 26.54 136.86 26.7733 137.247 27.24C137.647 27.7067 137.847 28.3867 137.847 29.28C137.847 29.64 137.814 30.0667 137.747 30.56C137.68 31.04 137.62 31.4333 137.567 31.74C137.514 32.0467 137.474 32.26 137.447 32.38C138.207 30.2067 139.06 28.6933 140.007 27.84C140.954 26.9733 141.994 26.54 143.127 26.54C143.994 26.54 144.674 26.8467 145.167 27.46C145.674 28.0733 145.927 28.94 145.927 30.06C145.927 30.5 145.867 31.0467 145.747 31.7C146.414 29.86 147.194 28.54 148.087 27.74C148.98 26.94 150.007 26.54 151.167 26.54C152.1 26.54 152.814 26.84 153.307 27.44C153.814 28.04 154.067 28.88 154.067 29.96C154.067 30.5467 153.98 31.26 153.807 32.1L152.587 37.82C152.454 38.4867 152.387 39.06 152.387 39.54C152.387 40.1 152.514 40.52 152.767 40.8C153.034 41.08 153.4 41.22 153.867 41.22C154.307 41.22 154.734 41.0733 155.147 40.78C155.574 40.4867 156.074 40 156.647 39.32C156.807 39.1333 156.987 39.04 157.187 39.04C157.36 39.04 157.494 39.12 157.587 39.28C157.694 39.44 157.747 39.66 157.747 39.94C157.747 40.46 157.62 40.8733 157.367 41.18C156.674 42.02 155.987 42.6333 155.307 43.02C154.627 43.4067 153.914 43.6 153.167 43.6C152.034 43.6 151.147 43.2667 150.507 42.6C149.867 41.92 149.547 41.0133 149.547 39.88C149.547 39.0933 149.707 37.9533 150.027 36.46L150.827 32.8C150.854 32.68 150.9 32.4667 150.967 32.16C151.034 31.8533 151.087 31.5667 151.127 31.3C151.167 31.02 151.187 30.7467 151.187 30.48C151.187 30.0133 151.094 29.6667 150.907 29.44C150.734 29.2 150.48 29.08 150.147 29.08C149.52 29.08 148.86 29.4867 148.167 30.3C147.487 31.1 146.834 32.4333 146.207 34.3C145.594 36.1667 145.094 38.5933 144.707 41.58C144.614 42.38 144.447 42.92 144.207 43.2C143.98 43.4667 143.607 43.6 143.087 43.6C142.634 43.6 142.3 43.4933 142.087 43.28C141.887 43.0667 141.787 42.6667 141.787 42.08C141.787 41.5333 141.86 40.82 142.007 39.94C142.154 39.0467 142.34 38 142.567 36.8C143.18 33.5733 143.487 31.4933 143.487 30.56C143.487 30.0533 143.387 29.68 143.187 29.44C143 29.2 142.714 29.08 142.327 29.08C141.674 29.08 141 29.4533 140.307 30.2C139.614 30.9333 138.934 32.2467 138.267 34.14C137.614 36.02 137.067 38.5667 136.627 41.78C136.534 42.46 136.394 42.9333 136.207 43.2C136.034 43.4667 135.687 43.6 135.167 43.6ZM166.335 37.36C166.509 37.36 166.642 37.4467 166.735 37.62C166.829 37.7933 166.875 38.0133 166.875 38.28C166.875 38.92 166.682 39.3 166.295 39.42C165.495 39.7 164.615 39.86 163.655 39.9C163.402 41.02 162.902 41.92 162.155 42.6C161.409 43.2667 160.562 43.6 159.615 43.6C158.815 43.6 158.129 43.4067 157.555 43.02C156.995 42.6333 156.569 42.12 156.275 41.48C155.982 40.84 155.835 40.1467 155.835 39.4C155.835 38.3867 156.029 37.4867 156.415 36.7C156.802 35.9 157.335 35.28 158.015 34.84C158.695 34.3867 159.449 34.16 160.275 34.16C161.289 34.16 162.102 34.5133 162.715 35.22C163.342 35.9133 163.709 36.7733 163.815 37.8C164.442 37.76 165.189 37.6267 166.055 37.4C166.162 37.3733 166.255 37.36 166.335 37.36ZM159.775 41.48C160.202 41.48 160.569 41.3067 160.875 40.96C161.195 40.6133 161.409 40.1133 161.515 39.46C161.102 39.18 160.782 38.8133 160.555 38.36C160.342 37.9067 160.235 37.4267 160.235 36.92C160.235 36.7067 160.255 36.4933 160.295 36.28H160.195C159.662 36.28 159.215 36.54 158.855 37.06C158.509 37.5667 158.335 38.2867 158.335 39.22C158.335 39.9533 158.475 40.5133 158.755 40.9C159.049 41.2867 159.389 41.48 159.775 41.48ZM166.579 43.6C166.072 43.6 165.712 43.3333 165.499 42.8C165.299 42.2667 165.199 41.4133 165.199 40.24C165.199 38.5067 165.446 36.86 165.939 35.3C166.059 34.9133 166.252 34.6333 166.519 34.46C166.799 34.2733 167.186 34.18 167.679 34.18C167.946 34.18 168.132 34.2133 168.239 34.28C168.346 34.3467 168.399 34.4733 168.399 34.66C168.399 34.8733 168.299 35.3533 168.099 36.1C167.966 36.6333 167.859 37.1 167.779 37.5C167.699 37.9 167.632 38.3933 167.579 38.98C168.019 37.8333 168.512 36.9 169.059 36.18C169.606 35.46 170.139 34.9467 170.659 34.64C171.192 34.3333 171.679 34.18 172.119 34.18C172.986 34.18 173.419 34.6133 173.419 35.48C173.419 36 173.272 36.94 172.979 38.3C172.726 39.46 172.599 40.2267 172.599 40.6C172.599 41.1333 172.792 41.4 173.179 41.4C173.446 41.4 173.759 41.24 174.119 40.92C174.492 40.5867 174.986 40.0533 175.599 39.32C175.759 39.1333 175.939 39.04 176.139 39.04C176.312 39.04 176.446 39.12 176.539 39.28C176.646 39.44 176.699 39.66 176.699 39.94C176.699 40.4733 176.572 40.8867 176.319 41.18C175.746 41.8867 175.126 42.4667 174.459 42.92C173.806 43.3733 173.059 43.6 172.219 43.6C171.539 43.6 171.026 43.4067 170.679 43.02C170.332 42.62 170.159 42.0467 170.159 41.3C170.159 40.9267 170.252 40.26 170.439 39.3C170.612 38.46 170.699 37.88 170.699 37.56C170.699 37.3467 170.626 37.24 170.479 37.24C170.306 37.24 170.059 37.4667 169.739 37.92C169.432 38.36 169.112 38.9467 168.779 39.68C168.459 40.4133 168.199 41.1867 167.999 42C167.852 42.6267 167.679 43.0533 167.479 43.28C167.292 43.4933 166.992 43.6 166.579 43.6ZM186.641 39.04C186.814 39.04 186.947 39.12 187.041 39.28C187.147 39.44 187.201 39.66 187.201 39.94C187.201 40.4733 187.074 40.8867 186.821 41.18C186.221 41.9133 185.614 42.5 185.001 42.94C184.387 43.38 183.661 43.6 182.821 43.6C181.794 43.6 180.967 43.3067 180.341 42.72C179.714 42.1333 179.401 41.3533 179.401 40.38C179.401 39.86 179.667 39.4867 180.201 39.26C180.787 39.0067 181.207 38.74 181.461 38.46C181.714 38.1667 181.841 37.8133 181.841 37.4C181.841 37.16 181.787 36.98 181.681 36.86C181.587 36.74 181.467 36.68 181.321 36.68C180.961 36.68 180.561 36.94 180.121 37.46C179.694 37.98 179.294 38.6533 178.921 39.48C178.547 40.2933 178.254 41.1333 178.041 42C177.894 42.6267 177.721 43.0533 177.521 43.28C177.334 43.4933 177.034 43.6 176.621 43.6C176.207 43.6 175.901 43.4533 175.701 43.16C175.514 42.8533 175.387 42.3867 175.321 41.76C175.254 41.1333 175.221 40.2133 175.221 39C175.221 36.9467 175.427 34.8067 175.841 32.58C176.267 30.3533 176.887 28.4867 177.701 26.98C178.527 25.46 179.514 24.7 180.661 24.7C181.274 24.7 181.767 24.9667 182.141 25.5C182.527 26.02 182.721 26.7 182.721 27.54C182.721 28.8867 182.327 30.2867 181.541 31.74C180.754 33.18 179.474 34.8667 177.701 36.8C177.661 37.4933 177.641 38.2067 177.641 38.94C178.281 37.2733 179.014 36.0667 179.841 35.32C180.667 34.56 181.441 34.18 182.161 34.18C182.827 34.18 183.361 34.4067 183.761 34.86C184.174 35.3133 184.381 35.8733 184.381 36.54C184.381 37.2733 184.194 37.9467 183.821 38.56C183.447 39.1733 182.807 39.72 181.901 40.2C181.954 40.56 182.114 40.8533 182.381 41.08C182.661 41.2933 182.994 41.4 183.381 41.4C183.794 41.4 184.194 41.24 184.581 40.92C184.967 40.6 185.474 40.0667 186.101 39.32C186.261 39.1333 186.441 39.04 186.641 39.04ZM180.241 26.68C180.001 26.68 179.734 27.0267 179.441 27.72C179.147 28.4 178.861 29.3267 178.581 30.5C178.314 31.66 178.094 32.9267 177.921 34.3C178.747 33.3267 179.427 32.2667 179.961 31.12C180.507 29.9733 180.781 28.9333 180.781 28C180.781 27.5733 180.734 27.2467 180.641 27.02C180.547 26.7933 180.414 26.68 180.241 26.68ZM194.509 39.04C194.682 39.04 194.815 39.12 194.909 39.28C195.015 39.44 195.069 39.66 195.069 39.94C195.069 40.4733 194.942 40.8867 194.689 41.18C194.195 41.78 193.495 42.3333 192.589 42.84C191.695 43.3467 190.735 43.6 189.709 43.6C188.309 43.6 187.222 43.22 186.449 42.46C185.675 41.7 185.289 40.66 185.289 39.34C185.289 38.42 185.482 37.5667 185.869 36.78C186.255 35.98 186.789 35.3467 187.469 34.88C188.162 34.4133 188.942 34.18 189.809 34.18C190.582 34.18 191.202 34.4133 191.669 34.88C192.135 35.3333 192.369 35.9533 192.369 36.74C192.369 37.66 192.035 38.4533 191.369 39.12C190.715 39.7733 189.602 40.2933 188.029 40.68C188.362 41.2933 188.995 41.6 189.929 41.6C190.529 41.6 191.209 41.3933 191.969 40.98C192.742 40.5533 193.409 40 193.969 39.32C194.129 39.1333 194.309 39.04 194.509 39.04ZM189.469 36.14C188.975 36.14 188.555 36.4267 188.209 37C187.875 37.5733 187.709 38.2667 187.709 39.08V39.12C188.495 38.9333 189.115 38.6533 189.569 38.28C190.022 37.9067 190.249 37.4733 190.249 36.98C190.249 36.7267 190.175 36.5267 190.029 36.38C189.895 36.22 189.709 36.14 189.469 36.14ZM200.44 34.18C200.747 34.18 200.96 34.22 201.08 34.3C201.2 34.38 201.26 34.5133 201.26 34.7C201.26 35.02 201.087 36.16 200.74 38.12C200.433 40 200.253 41.1133 200.2 41.46C199.707 44.8867 199.027 47.6 198.16 49.6C197.293 51.6 196.14 52.6 194.7 52.6C194.02 52.6 193.467 52.3867 193.04 51.96C192.613 51.5467 192.4 51 192.4 50.32C192.4 49.6933 192.54 49.0533 192.82 48.4C193.113 47.7467 193.647 46.9933 194.42 46.14C195.207 45.3 196.313 44.3333 197.74 43.24L197.8 42.78C197.893 42.2867 198 41.58 198.12 40.66C197.853 41.62 197.48 42.3533 197 42.86C196.52 43.3533 196.013 43.6 195.48 43.6C194.88 43.6 194.387 43.3267 194 42.78C193.627 42.22 193.44 41.5267 193.44 40.7C193.44 39.7 193.507 38.7867 193.64 37.96C193.773 37.12 193.993 36.2333 194.3 35.3C194.433 34.9 194.62 34.6133 194.86 34.44C195.1 34.2667 195.48 34.18 196 34.18C196.293 34.18 196.493 34.2267 196.6 34.32C196.72 34.4133 196.78 34.5533 196.78 34.74C196.78 34.8467 196.707 35.2067 196.56 35.82C196.427 36.3133 196.32 36.76 196.24 37.16C196.133 37.7067 196.04 38.2333 195.96 38.74C195.88 39.2333 195.84 39.64 195.84 39.96C195.84 40.4667 195.98 40.72 196.26 40.72C196.46 40.72 196.707 40.52 197 40.12C197.307 39.72 197.627 39.1133 197.96 38.3C198.307 37.4867 198.64 36.4867 198.96 35.3C199.067 34.9 199.227 34.6133 199.44 34.44C199.667 34.2667 200 34.18 200.44 34.18ZM194.92 50.66C195.253 50.66 195.627 50.2733 196.04 49.5C196.453 48.7267 196.867 47.44 197.28 45.64C196.253 46.5067 195.507 47.2933 195.04 48C194.587 48.72 194.36 49.3467 194.36 49.88C194.36 50.1067 194.4 50.2933 194.48 50.44C194.573 50.5867 194.72 50.66 194.92 50.66Z" fill="#7E2807"/>
<defs>
<filter id="filter0_f_74_4" x="40.8265" y="42.5376" width="22.6468" height="17.34" filterUnits="userSpaceOnUse" color-interpolation-filters="sRGB">
<feFlood flood-opacity="0" result="BackgroundImageFix"/>
<feBlend mode="normal" in="SourceGraphic" in2="BackgroundImageFix" result="shape"/>
<feGaussianBlur stdDeviation="3.99414" result="effect1_foregroundBlur_74_4"/>
</filter>
<filter id="filter1_f_74_4" x="48.2499" y="39.9998" width="15.9918" height="16.8513" filterUnits="userSpaceOnUse" color-interpolation-filters="sRGB">
<feFlood flood-opacity="0" result="BackgroundImageFix"/>
<feBlend mode="normal" in="SourceGraphic" in2="BackgroundImageFix" result="shape"/>
<feGaussianBlur stdDeviation="3.37699" result="effect1_foregroundBlur_74_4"/>
</filter>
<filter id="filter2_f_74_4" x="33.7379" y="36.8587" width="28.7642" height="28.1491" filterUnits="userSpaceOnUse" color-interpolation-filters="sRGB">
<feFlood flood-opacity="0" result="BackgroundImageFix"/>
<feBlend mode="normal" in="SourceGraphic" in2="BackgroundImageFix" result="shape"/>
<feGaussianBlur stdDeviation="6.73619" result="effect1_foregroundBlur_74_4"/>
</filter>
<filter id="filter3_f_74_4" x="39.1317" y="41.5677" width="26.6478" height="19.8987" filterUnits="userSpaceOnUse" color-interpolation-filters="sRGB">
<feFlood flood-opacity="0" result="BackgroundImageFix"/>
<feBlend mode="normal" in="SourceGraphic" in2="BackgroundImageFix" result="shape"/>
<feGaussianBlur stdDeviation="4.40434" result="effect1_foregroundBlur_74_4"/>
</filter>
<filter id="filter4_f_74_4" x="49.2515" y="41.6019" width="13.3118" height="14.7854" filterUnits="userSpaceOnUse" color-interpolation-filters="sRGB">
<feFlood flood-opacity="0" result="BackgroundImageFix"/>
<feBlend mode="normal" in="SourceGraphic" in2="BackgroundImageFix" result="shape"/>
<feGaussianBlur stdDeviation="3.01173" result="effect1_foregroundBlur_74_4"/>
</filter>
<filter id="filter5_f_74_4" x="47.8662" y="41.3602" width="14.624" height="14.7226" filterUnits="userSpaceOnUse" color-interpolation-filters="sRGB">
<feFlood flood-opacity="0" result="BackgroundImageFix"/>
<feBlend mode="normal" in="SourceGraphic" in2="BackgroundImageFix" result="shape"/>
<feGaussianBlur stdDeviation="2.86496" result="effect1_foregroundBlur_74_4"/>
</filter>
<filter id="filter6_f_74_4" x="11.5278" y="18.57" width="26.4065" height="22.2383" filterUnits="userSpaceOnUse" color-interpolation-filters="sRGB">
<feFlood flood-opacity="0" result="BackgroundImageFix"/>
<feBlend mode="normal" in="SourceGraphic" in2="BackgroundImageFix" result="shape"/>
<feGaussianBlur stdDeviation="4.50784" result="effect1_foregroundBlur_74_4"/>
</filter>
<filter id="filter7_f_74_4" x="12.5262" y="13.0336" width="22.7638" height="23.0017" filterUnits="userSpaceOnUse" color-interpolation-filters="sRGB">
<feFlood flood-opacity="0" result="BackgroundImageFix"/>
<feBlend mode="normal" in="SourceGraphic" in2="BackgroundImageFix" result="shape"/>
<feGaussianBlur stdDeviation="4.02961" result="effect1_foregroundBlur_74_4"/>
</filter>
<filter id="filter8_f_74_4" x="10.5843" y="11.7084" width="28.8728" height="29.5085" filterUnits="userSpaceOnUse" color-interpolation-filters="sRGB">
<feFlood flood-opacity="0" result="BackgroundImageFix"/>
<feBlend mode="normal" in="SourceGraphic" in2="BackgroundImageFix" result="shape"/>
<feGaussianBlur stdDeviation="5.51924" result="effect1_foregroundBlur_74_4"/>
</filter>
<filter id="filter9_f_74_4" x="8.38006" y="9.21747" width="33.2062" height="33.3452" filterUnits="userSpaceOnUse" color-interpolation-filters="sRGB">
<feFlood flood-opacity="0" result="BackgroundImageFix"/>
<feBlend mode="normal" in="SourceGraphic" in2="BackgroundImageFix" result="shape"/>
<feGaussianBlur stdDeviation="7.39383" result="effect1_foregroundBlur_74_4"/>
</filter>
<filter id="filter10_f_74_4" x="0.740088" y="1.38947" width="48.4649" height="47.1509" filterUnits="userSpaceOnUse" color-interpolation-filters="sRGB">
<feFlood flood-opacity="0" result="BackgroundImageFix"/>
<feBlend mode="normal" in="SourceGraphic" in2="BackgroundImageFix" result="shape"/>
<feGaussianBlur stdDeviation="11.0756" result="effect1_foregroundBlur_74_4"/>
</filter>
<filter id="filter11_f_74_4" x="46.8114" y="22.7247" width="26.4066" height="22.2383" filterUnits="userSpaceOnUse" color-interpolation-filters="sRGB">
<feFlood flood-opacity="0" result="BackgroundImageFix"/>
<feBlend mode="normal" in="SourceGraphic" in2="BackgroundImageFix" result="shape"/>
<feGaussianBlur stdDeviation="4.50784" result="effect1_foregroundBlur_74_4"/>
</filter>
<filter id="filter12_f_74_4" x="49.4557" y="17.1882" width="22.7639" height="23.0018" filterUnits="userSpaceOnUse" color-interpolation-filters="sRGB">
<feFlood flood-opacity="0" result="BackgroundImageFix"/>
<feBlend mode="normal" in="SourceGraphic" in2="BackgroundImageFix" result="shape"/>
<feGaussianBlur stdDeviation="4.02961" result="effect1_foregroundBlur_74_4"/>
</filter>
<filter id="filter13_f_74_4" x="45.2886" y="15.8631" width="28.8728" height="29.5086" filterUnits="userSpaceOnUse" color-interpolation-filters="sRGB">
<feFlood flood-opacity="0" result="BackgroundImageFix"/>
<feBlend mode="normal" in="SourceGraphic" in2="BackgroundImageFix" result="shape"/>
<feGaussianBlur stdDeviation="5.51924" result="effect1_foregroundBlur_74_4"/>
</filter>
<filter id="filter14_f_74_4" x="43.1594" y="13.3721" width="33.2063" height="33.3452" filterUnits="userSpaceOnUse" color-interpolation-filters="sRGB">
<feFlood flood-opacity="0" result="BackgroundImageFix"/>
<feBlend mode="normal" in="SourceGraphic" in2="BackgroundImageFix" result="shape"/>
<feGaussianBlur stdDeviation="7.39383" result="effect1_foregroundBlur_74_4"/>
</filter>
<filter id="filter15_f_74_4" x="35.5407" y="5.54413" width="48.4649" height="47.1509" filterUnits="userSpaceOnUse" color-interpolation-filters="sRGB">
<feFlood flood-opacity="0" result="BackgroundImageFix"/>
<feBlend mode="normal" in="SourceGraphic" in2="BackgroundImageFix" result="shape"/>
<feGaussianBlur stdDeviation="11.0756" result="effect1_foregroundBlur_74_4"/>
</filter>
<filter id="filter16_f_74_4" x="41.7817" y="33.9421" width="22.8711" height="22.8555" filterUnits="userSpaceOnUse" color-interpolation-filters="sRGB">
<feFlood flood-opacity="0" result="BackgroundImageFix"/>
<feBlend mode="normal" in="SourceGraphic" in2="BackgroundImageFix" result="shape"/>
<feGaussianBlur stdDeviation="4.84888" result="effect1_foregroundBlur_74_4"/>
</filter>
<filter id="filter17_f_74_4" x="38.9748" y="34.8661" width="20.3627" height="16.7501" filterUnits="userSpaceOnUse" color-interpolation-filters="sRGB">
<feFlood flood-opacity="0" result="BackgroundImageFix"/>
<feBlend mode="normal" in="SourceGraphic" in2="BackgroundImageFix" result="shape"/>
<feGaussianBlur stdDeviation="3.86899" result="effect1_foregroundBlur_74_4"/>
</filter>
<filter id="filter18_f_74_4" x="46.7832" y="41.2121" width="11.5407" height="13.0377" filterUnits="userSpaceOnUse" color-interpolation-filters="sRGB">
<feFlood flood-opacity="0" result="BackgroundImageFix"/>
<feBlend mode="normal" in="SourceGraphic" in2="BackgroundImageFix" result="shape"/>
<feGaussianBlur stdDeviation="2.5179" result="effect1_foregroundBlur_74_4"/>
</filter>
<filter id="filter19_f_74_4" x="18.1059" y="26.0051" width="35.217" height="37.213" filterUnits="userSpaceOnUse" color-interpolation-filters="sRGB">
<feFlood flood-opacity="0" result="BackgroundImageFix"/>
<feBlend mode="normal" in="SourceGraphic" in2="BackgroundImageFix" result="shape"/>
<feGaussianBlur stdDeviation="7.69775" result="effect1_foregroundBlur_74_4"/>
</filter>
<filter id="filter20_f_74_4" x="27.245" y="34.2558" width="22.2281" height="22.3346" filterUnits="userSpaceOnUse" color-interpolation-filters="sRGB">
<feFlood flood-opacity="0" result="BackgroundImageFix"/>
<feBlend mode="normal" in="SourceGraphic" in2="BackgroundImageFix" result="shape"/>
<feGaussianBlur stdDeviation="4.33889" result="effect1_foregroundBlur_74_4"/>
</filter>
<filter id="filter21_f_74_4" x="30.6764" y="36.7572" width="19.1515" height="15.8644" filterUnits="userSpaceOnUse" color-interpolation-filters="sRGB">
<feFlood flood-opacity="0" result="BackgroundImageFix"/>
<feBlend mode="normal" in="SourceGraphic" in2="BackgroundImageFix" result="shape"/>
<feGaussianBlur stdDeviation="3.27404" result="effect1_foregroundBlur_74_4"/>
</filter>
<filter id="filter22_f_74_4" x="26.1559" y="34.342" width="30.8135" height="31.4179" filterUnits="userSpaceOnUse" color-interpolation-filters="sRGB">
<feFlood flood-opacity="0" result="BackgroundImageFix"/>
<feBlend mode="normal" in="SourceGraphic" in2="BackgroundImageFix" result="shape"/>
<feGaussianBlur stdDeviation="6.58979" result="effect1_foregroundBlur_74_4"/>
</filter>
<filter id="filter23_f_74_4" x="25.4621" y="33.0436" width="29.7372" height="29.4185" filterUnits="userSpaceOnUse" color-interpolation-filters="sRGB">
<feFlood flood-opacity="0" result="BackgroundImageFix"/>
<feBlend mode="normal" in="SourceGraphic" in2="BackgroundImageFix" result="shape"/>
<feGaussianBlur stdDeviation="6.05099" result="effect1_foregroundBlur_74_4"/>
</filter>
<filter id="filter24_f_74_4" x="38.7742" y="36.4505" width="13.3372" height="14.0207" filterUnits="userSpaceOnUse" color-interpolation-filters="sRGB">
<feFlood flood-opacity="0" result="BackgroundImageFix"/>
<feBlend mode="normal" in="SourceGraphic" in2="BackgroundImageFix" result="shape"/>
<feGaussianBlur stdDeviation="2.84162" result="effect1_foregroundBlur_74_4"/>
</filter>
<filter id="filter25_f_74_4" x="25.7405" y="38.8457" width="22.7983" height="24.0846" filterUnits="userSpaceOnUse" color-interpolation-filters="sRGB">
<feFlood flood-opacity="0" result="BackgroundImageFix"/>
<feBlend mode="normal" in="SourceGraphic" in2="BackgroundImageFix" result="shape"/>
<feGaussianBlur stdDeviation="4.68296" result="effect1_foregroundBlur_74_4"/>
</filter>
<filter id="filter26_f_74_4" x="28.0305" y="40.9914" width="24.4201" height="24.0574" filterUnits="userSpaceOnUse" color-interpolation-filters="sRGB">
<feFlood flood-opacity="0" result="BackgroundImageFix"/>
<feBlend mode="normal" in="SourceGraphic" in2="BackgroundImageFix" result="shape"/>
<feGaussianBlur stdDeviation="5.36139" result="effect1_foregroundBlur_74_4"/>
</filter>
<filter id="filter27_f_74_4" x="23.8116" y="39.6852" width="20.5946" height="18.9002" filterUnits="userSpaceOnUse" color-interpolation-filters="sRGB">
<feFlood flood-opacity="0" result="BackgroundImageFix"/>
<feBlend mode="normal" in="SourceGraphic" in2="BackgroundImageFix" result="shape"/>
<feGaussianBlur stdDeviation="4.26734" result="effect1_foregroundBlur_74_4"/>
</filter>
<filter id="filter28_f_74_4" x="25.0496" y="41.2089" width="16.4172" height="15.7861" filterUnits="userSpaceOnUse" color-interpolation-filters="sRGB">
<feFlood flood-opacity="0" result="BackgroundImageFix"/>
<feBlend mode="normal" in="SourceGraphic" in2="BackgroundImageFix" result="shape"/>
<feGaussianBlur stdDeviation="3.20264" result="effect1_foregroundBlur_74_4"/>
</filter>
<filter id="filter29_f_74_4" x="33.9297" y="46.2458" width="8.31517" height="10.3402" filterUnits="userSpaceOnUse" color-interpolation-filters="sRGB">
<feFlood flood-opacity="0" result="BackgroundImageFix"/>
<feBlend mode="normal" in="SourceGraphic" in2="BackgroundImageFix" result="shape"/>
<feGaussianBlur stdDeviation="1.77778" result="effect1_foregroundBlur_74_4"/>
</filter>
<filter id="filter30_f_74_4" x="24.055" y="38.73" width="24.0917" height="23.8165" filterUnits="userSpaceOnUse" color-interpolation-filters="sRGB">
<feFlood flood-opacity="0" result="BackgroundImageFix"/>
<feBlend mode="normal" in="SourceGraphic" in2="BackgroundImageFix" result="shape"/>
<feGaussianBlur stdDeviation="5.65923" result="effect1_foregroundBlur_74_4"/>
</filter>
<filter id="filter31_f_74_4" x="12.5309" y="35.7593" width="44.9492" height="40.5852" filterUnits="userSpaceOnUse" color-interpolation-filters="sRGB">
<feFlood flood-opacity="0" result="BackgroundImageFix"/>
<feBlend mode="normal" in="SourceGraphic" in2="BackgroundImageFix" result="shape"/>
<feGaussianBlur stdDeviation="9.0776" result="effect1_foregroundBlur_74_4"/>
</filter>
<filter id="filter32_f_74_4" x="19.0695" y="36.8602" width="33.0206" height="30.2582" filterUnits="userSpaceOnUse" color-interpolation-filters="sRGB">
<feFlood flood-opacity="0" result="BackgroundImageFix"/>
<feBlend mode="normal" in="SourceGraphic" in2="BackgroundImageFix" result="shape"/>
<feGaussianBlur stdDeviation="6.60395" result="effect1_foregroundBlur_74_4"/>
</filter>
<filter id="filter33_f_74_4" x="16.15" y="36.5265" width="29.9917" height="29.9602" filterUnits="userSpaceOnUse" color-interpolation-filters="sRGB">
<feFlood flood-opacity="0" result="BackgroundImageFix"/>
<feBlend mode="normal" in="SourceGraphic" in2="BackgroundImageFix" result="shape"/>
<feGaussianBlur stdDeviation="6.6402" result="effect1_foregroundBlur_74_4"/>
</filter>
<filter id="filter34_f_74_4" x="37.3952" y="41.5075" width="24.3406" height="26.5779" filterUnits="userSpaceOnUse" color-interpolation-filters="sRGB">
<feFlood flood-opacity="0" result="BackgroundImageFix"/>
<feBlend mode="normal" in="SourceGraphic" in2="BackgroundImageFix" result="shape"/>
<feGaussianBlur stdDeviation="5.38381" result="effect1_foregroundBlur_74_4"/>
</filter>
<filter id="filter35_f_74_4" x="34.2484" y="45.5078" width="27.1978" height="23.9511" filterUnits="userSpaceOnUse" color-interpolation-filters="sRGB">
<feFlood flood-opacity="0" result="BackgroundImageFix"/>
<feBlend mode="normal" in="SourceGraphic" in2="BackgroundImageFix" result="shape"/>
<feGaussianBlur stdDeviation="5.38381" result="effect1_foregroundBlur_74_4"/>
</filter>
<filter id="filter36_f_74_4" x="39.2057" y="51.7377" width="17.2424" height="13.9178" filterUnits="userSpaceOnUse" color-interpolation-filters="sRGB">
<feFlood flood-opacity="0" result="BackgroundImageFix"/>
<feBlend mode="normal" in="SourceGraphic" in2="BackgroundImageFix" result="shape"/>
<feGaussianBlur stdDeviation="2.96823" result="effect1_foregroundBlur_74_4"/>
</filter>
<filter id="filter37_f_74_4" x="43.8814" y="48.5921" width="9.38242" height="8.3219" filterUnits="userSpaceOnUse" color-interpolation-filters="sRGB">
<feFlood flood-opacity="0" result="BackgroundImageFix"/>
<feBlend mode="normal" in="SourceGraphic" in2="BackgroundImageFix" result="shape"/>
<feGaussianBlur stdDeviation="1.65062" result="effect1_foregroundBlur_74_4"/>
</filter>
<filter id="filter38_f_74_4" x="31.8016" y="41.2401" width="25.2832" height="23.1691" filterUnits="userSpaceOnUse" color-interpolation-filters="sRGB">
<feFlood flood-opacity="0" result="BackgroundImageFix"/>
<feBlend mode="normal" in="SourceGraphic" in2="BackgroundImageFix" result="shape"/>
<feGaussianBlur stdDeviation="4.98196" result="effect1_foregroundBlur_74_4"/>
</filter>
<filter id="filter39_f_74_4" x="29.1377" y="36.2551" width="36.8588" height="37.2147" filterUnits="userSpaceOnUse" color-interpolation-filters="sRGB">
<feFlood flood-opacity="0" result="BackgroundImageFix"/>
<feBlend mode="normal" in="SourceGraphic" in2="BackgroundImageFix" result="shape"/>
<feGaussianBlur stdDeviation="8.30879" result="effect1_foregroundBlur_74_4"/>
</filter>
<filter id="filter40_f_74_4" x="43.1248" y="47.6376" width="8.46574" height="10.1684" filterUnits="userSpaceOnUse" color-interpolation-filters="sRGB">
<feFlood flood-opacity="0" result="BackgroundImageFix"/>
<feBlend mode="normal" in="SourceGraphic" in2="BackgroundImageFix" result="shape"/>
<feGaussianBlur stdDeviation="1.86102" result="effect1_foregroundBlur_74_4"/>
</filter>
<filter id="filter41_f_74_4" x="27.6699" y="40.5488" width="34.482" height="31.7479" filterUnits="userSpaceOnUse" color-interpolation-filters="sRGB">
<feFlood flood-opacity="0" result="BackgroundImageFix"/>
<feBlend mode="normal" in="SourceGraphic" in2="BackgroundImageFix" result="shape"/>
<feGaussianBlur stdDeviation="7.10278" result="effect1_foregroundBlur_74_4"/>
</filter>
<filter id="filter42_f_74_4" x="20.1646" y="23.8895" width="51.2638" height="51.4524" filterUnits="userSpaceOnUse" color-interpolation-filters="sRGB">
<feFlood flood-opacity="0" result="BackgroundImageFix"/>
<feBlend mode="normal" in="SourceGraphic" in2="BackgroundImageFix" result="shape"/>
<feGaussianBlur stdDeviation="12.1617" result="effect1_foregroundBlur_74_4"/>
</filter>
<filter id="filter43_f_74_4" x="33.5671" y="29.3874" width="32.6373" height="32.6865" filterUnits="userSpaceOnUse" color-interpolation-filters="sRGB">
<feFlood flood-opacity="0" result="BackgroundImageFix"/>
<feBlend mode="normal" in="SourceGraphic" in2="BackgroundImageFix" result="shape"/>
<feGaussianBlur stdDeviation="7.21382" result="effect1_foregroundBlur_74_4"/>
</filter>
<filter id="filter44_f_74_4" x="43.632" y="41.6235" width="8.40218" height="10.5284" filterUnits="userSpaceOnUse" color-interpolation-filters="sRGB">
<feFlood flood-opacity="0" result="BackgroundImageFix"/>
<feBlend mode="normal" in="SourceGraphic" in2="BackgroundImageFix" result="shape"/>
<feGaussianBlur stdDeviation="1.08185" result="effect1_foregroundBlur_74_4"/>
</filter>
<filter id="filter45_f_74_4" x="19.6256" y="31.4329" width="27.6664" height="25.6873" filterUnits="userSpaceOnUse" color-interpolation-filters="sRGB">
<feFlood flood-opacity="0" result="BackgroundImageFix"/>
<feBlend mode="normal" in="SourceGraphic" in2="BackgroundImageFix" result="shape"/>
<feGaussianBlur stdDeviation="5.14275" result="effect1_foregroundBlur_74_4"/>
</filter>
<filter id="filter46_f_74_4" x="23.0053" y="34.1839" width="20.0138" height="16.3932" filterUnits="userSpaceOnUse" color-interpolation-filters="sRGB">
<feFlood flood-opacity="0" result="BackgroundImageFix"/>
<feBlend mode="normal" in="SourceGraphic" in2="BackgroundImageFix" result="shape"/>
<feGaussianBlur stdDeviation="3.28535" result="effect1_foregroundBlur_74_4"/>
</filter>
<filter id="filter47_f_74_4" x="26.332" y="42.1477" width="11.1985" height="10.2988" filterUnits="userSpaceOnUse" color-interpolation-filters="sRGB">
<feFlood flood-opacity="0" result="BackgroundImageFix"/>
<feBlend mode="normal" in="SourceGraphic" in2="BackgroundImageFix" result="shape"/>
<feGaussianBlur stdDeviation="1.92072" result="effect1_foregroundBlur_74_4"/>
</filter>
<filter id="filter48_f_74_4" x="30.2571" y="45.5135" width="4.457" height="4.45255" filterUnits="userSpaceOnUse" color-interpolation-filters="sRGB">
<feFlood flood-opacity="0" result="BackgroundImageFix"/>
<feBlend mode="normal" in="SourceGraphic" in2="BackgroundImageFix" result="shape"/>
<feGaussianBlur stdDeviation="0.854737" result="effect1_foregroundBlur_74_4"/>
</filter>
<filter id="filter49_f_74_4" x="29.8974" y="44.0516" width="5.93695" height="6.6327" filterUnits="userSpaceOnUse" color-interpolation-filters="sRGB">
<feFlood flood-opacity="0" result="BackgroundImageFix"/>
<feBlend mode="normal" in="SourceGraphic" in2="BackgroundImageFix" result="shape"/>
<feGaussianBlur stdDeviation="1.34258" result="effect1_foregroundBlur_74_4"/>
</filter>
<filter id="filter50_f_74_4" x="11.8828" y="30.6552" width="35.0557" height="35.1292" filterUnits="userSpaceOnUse" color-interpolation-filters="sRGB">
<feFlood flood-opacity="0" result="BackgroundImageFix"/>
<feBlend mode="normal" in="SourceGraphic" in2="BackgroundImageFix" result="shape"/>
<feGaussianBlur stdDeviation="8.31358" result="effect1_foregroundBlur_74_4"/>
</filter>
<filter id="filter51_f_74_4" x="12.7108" y="30.6132" width="36.391" height="35.2134" filterUnits="userSpaceOnUse" color-interpolation-filters="sRGB">
<feFlood flood-opacity="0" result="BackgroundImageFix"/>
<feBlend mode="normal" in="SourceGraphic" in2="BackgroundImageFix" result="shape"/>
<feGaussianBlur stdDeviation="8.17532" result="effect1_foregroundBlur_74_4"/>
</filter>
<filter id="filter52_f_74_4" x="27.3144" y="44.3234" width="7.94218" height="6.97147" filterUnits="userSpaceOnUse" color-interpolation-filters="sRGB">
<feFlood flood-opacity="0" result="BackgroundImageFix"/>
<feBlend mode="normal" in="SourceGraphic" in2="BackgroundImageFix" result="shape"/>
<feGaussianBlur stdDeviation="1.46185" result="effect1_foregroundBlur_74_4"/>
</filter>
<filter id="filter53_f_74_4" x="24.2267" y="40.6298" width="8.57025" height="10.0883" filterUnits="userSpaceOnUse" color-interpolation-filters="sRGB">
<feFlood flood-opacity="0" result="BackgroundImageFix"/>
<feBlend mode="normal" in="SourceGraphic" in2="BackgroundImageFix" result="shape"/>
<feGaussianBlur stdDeviation="1.48459" result="effect1_foregroundBlur_74_4"/>
</filter>
<filter id="filter54_f_74_4" x="19.2446" y="24.7026" width="45.1353" height="35.4846" filterUnits="userSpaceOnUse" color-interpolation-filters="sRGB">
<feFlood flood-opacity="0" result="BackgroundImageFix"/>
<feBlend mode="normal" in="SourceGraphic" in2="BackgroundImageFix" result="shape"/>
<feGaussianBlur stdDeviation="8.02392" result="effect1_foregroundBlur_74_4"/>
</filter>
<filter id="filter55_f_74_4" x="22.4902" y="40.6602" width="15.9398" height="16.5632" filterUnits="userSpaceOnUse" color-interpolation-filters="sRGB">
<feFlood flood-opacity="0" result="BackgroundImageFix"/>
<feBlend mode="normal" in="SourceGraphic" in2="BackgroundImageFix" result="shape"/>
<feGaussianBlur stdDeviation="2.88223" result="effect1_foregroundBlur_74_4"/>
</filter>
<filter id="filter56_f_74_4" x="24.2074" y="43.619" width="9.088" height="9.12987" filterUnits="userSpaceOnUse" color-interpolation-filters="sRGB">
<feFlood flood-opacity="0" result="BackgroundImageFix"/>
<feBlend mode="normal" in="SourceGraphic" in2="BackgroundImageFix" result="shape"/>
<feGaussianBlur stdDeviation="1.67506" result="effect1_foregroundBlur_74_4"/>
</filter>
<filter id="filter57_f_74_4" x="-2.84951" y="-13.3182" width="69.7136" height="82.9441" filterUnits="userSpaceOnUse" color-interpolation-filters="sRGB">
<feFlood flood-opacity="0" result="BackgroundImageFix"/>
<feBlend mode="normal" in="SourceGraphic" in2="BackgroundImageFix" result="shape"/>
<feGaussianBlur stdDeviation="14.1543" result="effect1_foregroundBlur_74_4"/>
</filter>
<filter id="filter58_f_74_4" x="9.47162" y="9.95493" width="40.9529" height="47.1508" filterUnits="userSpaceOnUse" color-interpolation-filters="sRGB">
<feFlood flood-opacity="0" result="BackgroundImageFix"/>
<feBlend mode="normal" in="SourceGraphic" in2="BackgroundImageFix" result="shape"/>
<feGaussianBlur stdDeviation="8.37715" result="effect1_foregroundBlur_74_4"/>
</filter>
<filter id="filter59_f_74_4" x="28.2536" y="-6.68357" width="51.7285" height="57.5442" filterUnits="userSpaceOnUse" color-interpolation-filters="sRGB">
<feFlood flood-opacity="0" result="BackgroundImageFix"/>
<feBlend mode="normal" in="SourceGraphic" in2="BackgroundImageFix" result="shape"/>
<feGaussianBlur stdDeviation="10.4481" result="effect1_foregroundBlur_74_4"/>
</filter>
<filter id="filter60_f_74_4" x="8.57346" y="-16.3987" width="83.9042" height="75.8079" filterUnits="userSpaceOnUse" color-interpolation-filters="sRGB">
<feFlood flood-opacity="0" result="BackgroundImageFix"/>
<feBlend mode="normal" in="SourceGraphic" in2="BackgroundImageFix" result="shape"/>
<feGaussianBlur stdDeviation="18.1516" result="effect1_foregroundBlur_74_4"/>
</filter>
<filter id="filter61_f_74_4" x="23.0465" y="0.129446" width="62.6922" height="68.2099" filterUnits="userSpaceOnUse" color-interpolation-filters="sRGB">
<feFlood flood-opacity="0" result="BackgroundImageFix"/>
<feBlend mode="normal" in="SourceGraphic" in2="BackgroundImageFix" result="shape"/>
<feGaussianBlur stdDeviation="13.4802" result="effect1_foregroundBlur_74_4"/>
</filter>
<filter id="filter62_f_74_4" x="5.47573" y="-15.6058" width="81.7502" height="66.2416" filterUnits="userSpaceOnUse" color-interpolation-filters="sRGB">
<feFlood flood-opacity="0" result="BackgroundImageFix"/>
<feBlend mode="normal" in="SourceGraphic" in2="BackgroundImageFix" result="shape"/>
<feGaussianBlur stdDeviation="14.6848" result="effect1_foregroundBlur_74_4"/>
</filter>
<filter id="filter63_f_74_4" x="-16.8432" y="-33.4556" width="108.828" height="97.286" filterUnits="userSpaceOnUse" color-interpolation-filters="sRGB">
<feFlood flood-opacity="0" result="BackgroundImageFix"/>
<feBlend mode="normal" in="SourceGraphic" in2="BackgroundImageFix" result="shape"/>
<feGaussianBlur stdDeviation="22.3241" result="effect1_foregroundBlur_74_4"/>
</filter>
<filter id="filter64_f_74_4" x="28.9683" y="-2.99721" width="34.0188" height="30.1568" filterUnits="userSpaceOnUse" color-interpolation-filters="sRGB">
<feFlood flood-opacity="0" result="BackgroundImageFix"/>
<feBlend mode="normal" in="SourceGraphic" in2="BackgroundImageFix" result="shape"/>
<feGaussianBlur stdDeviation="6.24825" result="effect1_foregroundBlur_74_4"/>
</filter>
<filter id="filter65_f_74_4" x="25.9012" y="14.1411" width="33.3585" height="29.8953" filterUnits="userSpaceOnUse" color-interpolation-filters="sRGB">
<feFlood flood-opacity="0" result="BackgroundImageFix"/>
<feBlend mode="normal" in="SourceGraphic" in2="BackgroundImageFix" result="shape"/>
<feGaussianBlur stdDeviation="6.09701" result="effect1_foregroundBlur_74_4"/>
</filter>
<filter id="filter66_f_74_4" x="6.53716" y="-15.1306" width="86.7409" height="86.4885" filterUnits="userSpaceOnUse" color-interpolation-filters="sRGB">
<feFlood flood-opacity="0" result="BackgroundImageFix"/>
<feBlend mode="normal" in="SourceGraphic" in2="BackgroundImageFix" result="shape"/>
<feGaussianBlur stdDeviation="19.147" result="effect1_foregroundBlur_74_4"/>
</filter>
<filter id="filter67_f_74_4" x="15.21" y="22.2056" width="53.1458" height="36.4443" filterUnits="userSpaceOnUse" color-interpolation-filters="sRGB">
<feFlood flood-opacity="0" result="BackgroundImageFix"/>
<feBlend mode="normal" in="SourceGraphic" in2="BackgroundImageFix" result="shape"/>
<feGaussianBlur stdDeviation="8.17864" result="effect1_foregroundBlur_74_4"/>
</filter>
<filter id="filter68_f_74_4" x="16.438" y="9.99187" width="27.7929" height="40.0585" filterUnits="userSpaceOnUse" color-interpolation-filters="sRGB">
<feFlood flood-opacity="0" result="BackgroundImageFix"/>
<feBlend mode="normal" in="SourceGraphic" in2="BackgroundImageFix" result="shape"/>
<feGaussianBlur stdDeviation="5.68046" result="effect1_foregroundBlur_74_4"/>
</filter>
<filter id="filter69_f_74_4" x="27.3279" y="15.6128" width="43.2257" height="40.0667" filterUnits="userSpaceOnUse" color-interpolation-filters="sRGB">
<feFlood flood-opacity="0" result="BackgroundImageFix"/>
<feBlend mode="normal" in="SourceGraphic" in2="BackgroundImageFix" result="shape"/>
<feGaussianBlur stdDeviation="9.17472" result="effect1_foregroundBlur_74_4"/>
</filter>
<filter id="filter70_f_74_4" x="12.7666" y="14.199" width="44.0111" height="40.4035" filterUnits="userSpaceOnUse" color-interpolation-filters="sRGB">
<feFlood flood-opacity="0" result="BackgroundImageFix"/>
<feBlend mode="normal" in="SourceGraphic" in2="BackgroundImageFix" result="shape"/>
<feGaussianBlur stdDeviation="9.30083" result="effect1_foregroundBlur_74_4"/>
</filter>
<filter id="filter71_f_74_4" x="13.7348" y="6.78617" width="58.434" height="53.8597" filterUnits="userSpaceOnUse" color-interpolation-filters="sRGB">
<feFlood flood-opacity="0" result="BackgroundImageFix"/>
<feBlend mode="normal" in="SourceGraphic" in2="BackgroundImageFix" result="shape"/>
<feGaussianBlur stdDeviation="12.5264" result="effect1_foregroundBlur_74_4"/>
</filter>
<filter id="filter72_f_74_4" x="38.0797" y="28.8662" width="8.75565" height="8.0916" filterUnits="userSpaceOnUse" color-interpolation-filters="sRGB">
<feFlood flood-opacity="0" result="BackgroundImageFix"/>
<feBlend mode="normal" in="SourceGraphic" in2="BackgroundImageFix" result="shape"/>
<feGaussianBlur stdDeviation="1.90868" result="effect1_foregroundBlur_74_4"/>
</filter>
<filter id="filter73_f_74_4" x="29.5646" y="23.4999" width="10.1051" height="9.76055" filterUnits="userSpaceOnUse" color-interpolation-filters="sRGB">
<feFlood flood-opacity="0" result="BackgroundImageFix"/>
<feBlend mode="normal" in="SourceGraphic" in2="BackgroundImageFix" result="shape"/>
<feGaussianBlur stdDeviation="0.146227" result="effect1_foregroundBlur_74_4"/>
</filter>
<filter id="filter74_f_74_4" x="26.395" y="20.4644" width="16.7164" height="15.2551" filterUnits="userSpaceOnUse" color-interpolation-filters="sRGB">
<feFlood flood-opacity="0" result="BackgroundImageFix"/>
<feBlend mode="normal" in="SourceGraphic" in2="BackgroundImageFix" result="shape"/>
<feGaussianBlur stdDeviation="1.88273" result="effect1_foregroundBlur_74_4"/>
</filter>
<filter id="filter75_f_74_4" x="30.3751" y="24.4559" width="9.29293" height="8.80063" filterUnits="userSpaceOnUse" color-interpolation-filters="sRGB">
<feFlood flood-opacity="0" result="BackgroundImageFix"/>
<feBlend mode="normal" in="SourceGraphic" in2="BackgroundImageFix" result="shape"/>
<feGaussianBlur stdDeviation="0.205658" result="effect1_foregroundBlur_74_4"/>
</filter>
<filter id="filter76_f_74_4" x="31.6857" y="25.3101" width="7.85993" height="7.79123" filterUnits="userSpaceOnUse" color-interpolation-filters="sRGB">
<feFlood flood-opacity="0" result="BackgroundImageFix"/>
<feBlend mode="normal" in="SourceGraphic" in2="BackgroundImageFix" result="shape"/>
<feGaussianBlur stdDeviation="0.144483" result="effect1_foregroundBlur_74_4"/>
</filter>
<filter id="filter77_f_74_4" x="31.1932" y="24.8474" width="8.84503" height="8.71663" filterUnits="userSpaceOnUse" color-interpolation-filters="sRGB">
<feFlood flood-opacity="0" result="BackgroundImageFix"/>
<feBlend mode="normal" in="SourceGraphic" in2="BackgroundImageFix" result="shape"/>
<feGaussianBlur stdDeviation="1.17846" result="effect1_foregroundBlur_74_4"/>
</filter>
<filter id="filter78_f_74_4" x="19.7974" y="13.4576" width="31.558" height="28.6465" filterUnits="userSpaceOnUse" color-interpolation-filters="sRGB">
<feFlood flood-opacity="0" result="BackgroundImageFix"/>
<feBlend mode="normal" in="SourceGraphic" in2="BackgroundImageFix" result="shape"/>
<feGaussianBlur stdDeviation="6.09592" result="effect1_foregroundBlur_74_4"/>
</filter>
<filter id="filter79_f_74_4" x="33.542" y="24.6468" width="6.0805" height="6.0805" filterUnits="userSpaceOnUse" color-interpolation-filters="sRGB">
<feFlood flood-opacity="0" result="BackgroundImageFix"/>
<feBlend mode="normal" in="SourceGraphic" in2="BackgroundImageFix" result="shape"/>
<feGaussianBlur stdDeviation="1.18231" result="effect1_foregroundBlur_74_4"/>
</filter>
<filter id="filter80_f_74_4" x="45.2596" y="25.0441" width="10.1362" height="9.84151" filterUnits="userSpaceOnUse" color-interpolation-filters="sRGB">
<feFlood flood-opacity="0" result="BackgroundImageFix"/>
<feBlend mode="normal" in="SourceGraphic" in2="BackgroundImageFix" result="shape"/>
<feGaussianBlur stdDeviation="0.146437" result="effect1_foregroundBlur_74_4"/>
</filter>
<filter id="filter81_f_74_4" x="41.7712" y="21.967" width="16.82" height="15.5545" filterUnits="userSpaceOnUse" color-interpolation-filters="sRGB">
<feFlood flood-opacity="0" result="BackgroundImageFix"/>
<feBlend mode="normal" in="SourceGraphic" in2="BackgroundImageFix" result="shape"/>
<feGaussianBlur stdDeviation="1.88543" result="effect1_foregroundBlur_74_4"/>
</filter>
<filter id="filter82_f_74_4" x="45.2115" y="25.9001" width="9.26002" height="9.01618" filterUnits="userSpaceOnUse" color-interpolation-filters="sRGB">
<feFlood flood-opacity="0" result="BackgroundImageFix"/>
<feBlend mode="normal" in="SourceGraphic" in2="BackgroundImageFix" result="shape"/>
<feGaussianBlur stdDeviation="0.205953" result="effect1_foregroundBlur_74_4"/>
</filter>
<filter id="filter83_f_74_4" x="45.3364" y="26.6891" width="7.8806" height="7.79523" filterUnits="userSpaceOnUse" color-interpolation-filters="sRGB">
<feFlood flood-opacity="0" result="BackgroundImageFix"/>
<feBlend mode="normal" in="SourceGraphic" in2="BackgroundImageFix" result="shape"/>
<feGaussianBlur stdDeviation="0.144691" result="effect1_foregroundBlur_74_4"/>
</filter>
<filter id="filter84_f_74_4" x="44.8462" y="26.223" width="8.86098" height="8.72734" filterUnits="userSpaceOnUse" color-interpolation-filters="sRGB">
<feFlood flood-opacity="0" result="BackgroundImageFix"/>
<feBlend mode="normal" in="SourceGraphic" in2="BackgroundImageFix" result="shape"/>
<feGaussianBlur stdDeviation="1.18015" result="effect1_foregroundBlur_74_4"/>
</filter>
<filter id="filter85_f_74_4" x="32.3286" y="13.7303" width="33.901" height="31.3317" filterUnits="userSpaceOnUse" color-interpolation-filters="sRGB">
<feFlood flood-opacity="0" result="BackgroundImageFix"/>
<feBlend mode="normal" in="SourceGraphic" in2="BackgroundImageFix" result="shape"/>
<feGaussianBlur stdDeviation="6.42922" result="effect1_foregroundBlur_74_4"/>
</filter>
<filter id="filter86_f_74_4" x="47.1665" y="25.8309" width="6.09126" height="6.08757" filterUnits="userSpaceOnUse" color-interpolation-filters="sRGB">
<feFlood flood-opacity="0" result="BackgroundImageFix"/>
<feBlend mode="normal" in="SourceGraphic" in2="BackgroundImageFix" result="shape"/>
<feGaussianBlur stdDeviation="1.18401" result="effect1_foregroundBlur_74_4"/>
</filter>
<filter id="filter87_f_74_4" x="33.1307" y="30.7514" width="17.4356" height="14.4249" filterUnits="userSpaceOnUse" color-interpolation-filters="sRGB">
<feFlood flood-opacity="0" result="BackgroundImageFix"/>
<feBlend mode="normal" in="SourceGraphic" in2="BackgroundImageFix" result="shape"/>
<feGaussianBlur stdDeviation="2.60694" result="effect1_foregroundBlur_74_4"/>
</filter>
<filter id="filter88_f_74_4" x="34.3868" y="30.9194" width="14.9493" height="10.6262" filterUnits="userSpaceOnUse" color-interpolation-filters="sRGB">
<feFlood flood-opacity="0" result="BackgroundImageFix"/>
<feBlend mode="normal" in="SourceGraphic" in2="BackgroundImageFix" result="shape"/>
<feGaussianBlur stdDeviation="2.09268" result="effect1_foregroundBlur_74_4"/>
</filter>
<filter id="filter89_f_74_4" x="38.2675" y="34.6919" width="7.16579" height="5.31813" filterUnits="userSpaceOnUse" color-interpolation-filters="sRGB">
<feFlood flood-opacity="0" result="BackgroundImageFix"/>
<feBlend mode="normal" in="SourceGraphic" in2="BackgroundImageFix" result="shape"/>
<feGaussianBlur stdDeviation="0.141214" result="effect1_foregroundBlur_74_4"/>
</filter>
<filter id="filter90_f_74_4" x="34.9871" y="32.9097" width="13.4023" height="11.6152" filterUnits="userSpaceOnUse" color-interpolation-filters="sRGB">
<feFlood flood-opacity="0" result="BackgroundImageFix"/>
<feBlend mode="normal" in="SourceGraphic" in2="BackgroundImageFix" result="shape"/>
<feGaussianBlur stdDeviation="2.50594" result="effect1_foregroundBlur_74_4"/>
</filter>
<filter id="filter91_f_74_4" x="33.2944" y="29.7821" width="17.0719" height="13.7641" filterUnits="userSpaceOnUse" color-interpolation-filters="sRGB">
<feFlood flood-opacity="0" result="BackgroundImageFix"/>
<feBlend mode="normal" in="SourceGraphic" in2="BackgroundImageFix" result="shape"/>
<feGaussianBlur stdDeviation="2.61907" result="effect1_foregroundBlur_74_4"/>
</filter>
</defs>
</svg>
