<svg width="381" height="439" viewBox="0 0 381 439" fill="none" xmlns="http://www.w3.org/2000/svg">
<path fill-rule="evenodd" clip-rule="evenodd" d="M233.368 267.221C224.503 263.166 208.508 254.651 205.507 249.551C204.347 247.58 204.165 244.329 204.914 243.612C206.311 242.275 210.063 244.702 210.534 245.108C211.459 246.726 226.473 257.301 231.76 260.103C236.289 262.505 249.144 264.195 256.326 262.793C265.163 261.068 282.579 248.984 269.782 240.668C268.514 239.915 265.229 239.576 263.496 241.809C260.403 245.792 261.522 249.906 259.02 249.022C255.992 247.952 256.318 242.213 259.02 238.376C267.257 226.685 284.199 236.748 280.725 250.363C278.516 259.021 271.293 264.958 261.776 268.01C252.357 271.03 242.121 270.306 233.368 267.221Z" fill="#95451E"/>
<g filter="url(#filter0_f_71_418)">
<path fill-rule="evenodd" clip-rule="evenodd" d="M231.759 260.103C240.746 262.689 242.915 263.249 247.368 263.326C250.111 263.03 252.725 263.171 254.905 263.021C257.817 262.822 260.519 261.523 262.454 260.574C267.009 258.341 268.725 255.613 269.05 256.249C269.499 257.127 268.856 258.325 264.704 260.383C262.626 261.412 260.331 262.917 256.22 263.689C252.883 264.316 248.109 264.315 243.212 264.336C233.185 263.912 224.682 256.307 231.759 260.103Z" fill="#FFFEFD" fill-opacity="0.827251"/>
</g>
<g opacity="0.465385" filter="url(#filter1_f_71_418)">
<path fill-rule="evenodd" clip-rule="evenodd" d="M271.368 236.897C274.864 237.597 277.454 241.915 277.454 241.915C278.809 245.076 279.892 246.643 278.886 253.582C282.636 250.211 281.833 239.699 276.281 236.288C276.281 236.288 271.778 233.556 269.385 233.523C264.802 233.462 265.171 235.483 271.368 236.897Z" fill="#FFFEFD" fill-opacity="0.827251"/>
</g>
<g filter="url(#filter2_f_71_418)">
<path fill-rule="evenodd" clip-rule="evenodd" d="M221.298 255.117C216.037 256.537 223.489 263.135 230.44 262.102C227.36 262.22 223.816 253.846 221.298 255.117Z" fill="#C14815"/>
</g>
<g filter="url(#filter3_f_71_418)">
<path fill-rule="evenodd" clip-rule="evenodd" d="M227.438 261.863C239.604 266.191 242.541 267.127 248.57 267.257C252.283 266.761 255.822 266.996 258.773 266.746C262.715 266.412 266.373 264.24 268.993 262.652C275.16 258.915 277.484 254.35 277.924 255.415C278.531 256.883 277.661 258.889 272.039 262.331C269.227 264.053 266.119 266.571 260.554 267.863C256.036 268.912 249.573 268.911 242.943 268.946C229.368 268.237 217.857 255.513 227.438 261.863Z" fill="#341D06" fill-opacity="0.827251"/>
</g>
<g opacity="0.711538" filter="url(#filter4_f_71_418)">
<path fill-rule="evenodd" clip-rule="evenodd" d="M270.614 240.772C271.497 241.449 273.161 242.574 273.839 244.395C274.456 246.005 274.494 246.679 274.666 247.608C274.902 248.877 274.169 250.151 273.739 251.233C272.728 253.781 270.78 255.235 271.294 255.181C272.004 255.107 273.151 254.776 274.088 252.447C274.557 251.282 274.864 249.826 275.342 247.955C275.742 246.387 275.442 244.41 274.004 242.375C272.292 238.347 265.229 237.983 269.015 239.791L270.614 240.772Z" fill="#341D06" fill-opacity="0.827251"/>
</g>
<g opacity="0.465385" filter="url(#filter5_f_71_418)">
<path fill-rule="evenodd" clip-rule="evenodd" d="M267.753 239.377C271.249 240.077 273.839 244.395 273.839 244.395C275.193 247.556 273.632 248.177 272.626 255.117C276.375 251.746 279.29 241.816 273.738 238.404C273.738 238.404 268.132 235.572 265.739 235.54C264.834 235.528 259.639 238.796 258.528 240.547C256.732 243.379 259.021 249.022 259.021 249.022C259.253 249.436 260.071 243.541 262.404 240.547C263.807 238.745 266.628 239.12 267.753 239.377Z" fill="#341D06" fill-opacity="0.827451"/>
</g>
<path d="M92.0238 144.721C72.2738 144.721 56.2633 129.205 56.2633 110.064C56.2633 90.9228 72.2738 75.406 92.0238 75.406C111.774 75.406 127.784 90.9228 127.784 110.064C127.784 129.205 111.774 144.721 92.0238 144.721Z" fill="#95451E"/>
<g opacity="0.652874" filter="url(#filter6_f_71_418)">
<path fill-rule="evenodd" clip-rule="evenodd" d="M65.3978 122.661C71.4029 130.974 74.1685 133.263 77.8972 135.082C83.6921 137.908 89.7001 138.454 96.0845 136.158C123.319 125.17 92.069 150.2 73.8012 136.583C64.1703 130.411 58.8945 117.63 65.3978 122.661Z" fill="#C68B6F"/>
<path fill-rule="evenodd" clip-rule="evenodd" d="M65.3978 122.661C71.4029 130.974 74.1685 133.263 77.8972 135.082C83.6921 137.908 89.7001 138.454 96.0845 136.158C123.319 125.17 92.069 150.2 73.8012 136.583C64.1703 130.411 58.8945 117.63 65.3978 122.661Z" stroke="#912405" stroke-opacity="0.708029" stroke-width="1.00001"/>
</g>
<g opacity="0.652874" filter="url(#filter7_f_71_418)">
<path fill-rule="evenodd" clip-rule="evenodd" d="M97.0703 85.4088C87.0343 83.222 83.4826 83.6027 79.5746 85.2577C73.5008 87.8299 68.8616 92.6462 65.9308 100.357C63.7402 110.275 65.1515 122.721 63.3077 120.623C62.8633 120.117 59.1841 108.451 59.8584 105.657C60.6192 102.505 62.1797 98.2957 64.5239 94.2022C68.2269 87.7358 73.8853 81.5571 81.4353 80.2859C92.5539 77.3394 105.178 84.1971 97.0703 85.4088Z" fill="#C68B6F" fill-opacity="0.827251"/>
</g>
<g filter="url(#filter8_f_71_418)">
<path d="M86.3873 134.071C75.1277 134.071 65.9999 124.089 65.9999 111.776C65.9999 99.463 75.1277 89.4813 86.3873 89.4813C97.647 89.4813 106.775 99.463 106.775 111.776C106.775 124.089 97.647 134.071 86.3873 134.071Z" fill="#693839"/>
</g>
<path d="M86.0992 132.813C75.9142 132.813 67.6577 123.395 67.6577 111.776C67.6577 100.158 75.9142 90.7393 86.0992 90.7393C96.2841 90.7393 104.541 100.158 104.541 111.776C104.541 123.395 96.2841 132.813 86.0992 132.813Z" fill="#FFA08B"/>
<path d="M288.976 169.65C308.726 169.65 324.737 154.133 324.737 134.992C324.737 115.851 308.726 100.334 288.976 100.334C269.226 100.334 253.215 115.851 253.215 134.992C253.215 154.133 269.226 169.65 288.976 169.65Z" fill="#95451E"/>
<g opacity="0.652874" filter="url(#filter9_f_71_418)">
<path fill-rule="evenodd" clip-rule="evenodd" d="M315.602 147.589C309.597 155.902 306.831 158.191 303.103 160.01C297.308 162.836 291.3 163.382 284.915 161.086C257.681 150.098 288.931 175.128 307.199 161.511C316.83 155.339 322.105 142.558 315.602 147.589Z" fill="#C68B6F"/>
<path fill-rule="evenodd" clip-rule="evenodd" d="M315.602 147.589C309.597 155.902 306.831 158.191 303.103 160.01C297.308 162.836 291.3 163.382 284.915 161.086C257.681 150.098 288.931 175.128 307.199 161.511C316.83 155.339 322.105 142.558 315.602 147.589Z" stroke="#912405" stroke-opacity="0.708029" stroke-width="0.999999"/>
</g>
<g opacity="0.652874" filter="url(#filter10_f_71_418)">
<path fill-rule="evenodd" clip-rule="evenodd" d="M283.929 110.337C293.965 108.15 297.517 108.531 301.425 110.186C307.499 112.758 312.138 117.574 315.069 125.285C317.26 135.203 315.848 147.649 317.692 145.551C318.137 145.045 321.816 133.379 321.141 130.585C320.381 127.433 318.82 123.224 316.476 119.13C312.773 112.664 307.114 106.485 299.564 105.214C288.446 102.267 275.821 109.125 283.929 110.337Z" fill="#C68B6F" fill-opacity="0.827251"/>
</g>
<g filter="url(#filter11_f_71_418)">
<path d="M294.612 158.999C305.872 158.999 315 149.017 315 136.704C315 124.391 305.872 114.409 294.612 114.409C283.353 114.409 274.225 124.391 274.225 136.704C274.225 149.017 283.353 158.999 294.612 158.999Z" fill="#693839"/>
</g>
<path d="M294.904 157.741C305.089 157.741 313.345 148.323 313.345 136.704C313.345 125.086 305.089 115.667 294.904 115.667C284.719 115.667 276.462 125.086 276.462 136.704C276.462 148.323 284.719 157.741 294.904 157.741Z" fill="#FFA08B"/>
<path fill-rule="evenodd" clip-rule="evenodd" d="M254.713 241.012C245.6 257.259 232.025 249.809 217.117 242.131C192.723 205.936 201.587 197.033 233.76 209.203C250.672 215.322 261.217 229.418 254.713 241.012Z" fill="#7C3513"/>
<g opacity="0.326923" filter="url(#filter12_f_71_418)">
<path fill-rule="evenodd" clip-rule="evenodd" d="M258.95 221.614C227.546 202.687 258.693 228.839 264.649 234.422C267.864 238.287 265.058 232.278 258.95 221.614Z" fill="#FEFEFE"/>
</g>
<g opacity="0.188462" filter="url(#filter13_f_71_418)">
<path fill-rule="evenodd" clip-rule="evenodd" d="M230.768 208.624C219.453 209.179 215.932 217.148 216.622 216.189C218.449 213.653 236.849 209.88 241.688 214.785C246.218 215.937 251.608 212.446 230.768 208.624Z" fill="#FEFEFE"/>
</g>
<g filter="url(#filter14_f_71_418)">
<path fill-rule="evenodd" clip-rule="evenodd" d="M247.192 248.283C246.969 247.51 249.276 243.723 250.976 239.716C252.819 235.37 254.084 230.801 254.335 230.487C254.867 230.719 255.132 231.474 255.428 232.254C256.16 234.18 256.361 237.315 254.903 240.497C253.397 243.785 250.303 247.062 247.192 248.283Z" fill="#5B1C04" fill-opacity="0.666667"/>
</g>
<path fill-rule="evenodd" clip-rule="evenodd" d="M179.979 280.524C160.427 279.78 133.372 258.582 138.62 237.55C142.961 220.152 151.119 207.332 162.4 201.868C166.988 199.646 173.267 200.33 179.065 201.281C186.881 202.713 199.752 201.569 204.624 207.128C207.098 209.922 211.383 217.823 213.839 222.918C217.015 231.557 222.329 242.521 221.613 251.063C220.785 271.962 193.433 282.236 179.979 280.524Z" fill="#7C3513"/>
<g opacity="0.75" filter="url(#filter15_f_71_418)">
<path fill-rule="evenodd" clip-rule="evenodd" d="M164.496 212.121C161.111 214.565 157.357 220.128 154.748 224.39C149.555 232.872 152.433 239.335 154.244 240.475C154.496 239.152 159.163 226.895 159.61 225.149C160.696 220.902 165.541 218.667 166.138 217.275C167.04 215.342 172.292 215.95 172.977 214.372C173.984 212.052 183.304 212.981 180.515 211.564C178.864 210.724 166.802 209.669 164.496 212.121Z" fill="#5B1C04" fill-opacity="0.707819"/>
</g>
<path fill-rule="evenodd" clip-rule="evenodd" d="M154.247 243.352C154.096 235.333 158.304 227.516 165.337 219.48C171.644 212.563 181.716 212.423 184.696 214.057C186.878 215.254 188.774 216.71 190.407 218.366C202.629 230.762 200.015 254.294 191.213 262.953C181.948 275.796 154.884 264.85 154.247 243.352Z" fill="#D79D71"/>
<g opacity="0.30855" filter="url(#filter16_f_71_418)">
<path fill-rule="evenodd" clip-rule="evenodd" d="M172.802 213.435C177.453 212.276 181.343 212.953 184.544 214.057C190.962 216.272 194.595 221.865 195.943 229.441C192.407 226.816 191.415 221.976 188.075 219.419C184.184 217.006 181.817 216.978 179.819 216.686C176.705 216.397 175.834 216.921 172.22 217.835C168.768 218.809 159.551 226.055 159.612 225.15C160.313 222.687 167.209 214.654 172.802 213.435Z" fill="#762E0B"/>
</g>
<g opacity="0.200743" filter="url(#filter17_f_71_418)">
<path fill-rule="evenodd" clip-rule="evenodd" d="M197.331 251.842C193.726 264.504 186.329 268.09 180.874 268.448C176.767 268.717 169.575 267.361 173.325 264.617C178.201 262.946 180.022 262.528 181.631 261.495C185.503 259.008 189 254.802 190.227 253.243C191.94 250.924 192.741 249.103 194.207 246.093C195.025 244.411 198.533 239.561 198.63 238.459C198.821 236.272 199.856 245.429 197.331 251.842Z" fill="#982F07"/>
</g>
<g filter="url(#filter18_f_71_418)">
<path fill-rule="evenodd" clip-rule="evenodd" d="M203.008 205.802C207.599 207.229 217.488 220.245 214.161 221.388C213.801 223.897 208.625 211.896 203.008 205.802Z" fill="#5B1C04" fill-opacity="0.695473"/>
</g>
<g opacity="0.557692" filter="url(#filter19_f_71_418)">
<path fill-rule="evenodd" clip-rule="evenodd" d="M158.203 245.041C165.634 249.791 169.315 256.155 170.669 261.741C172.64 269.881 169.672 276.372 166.165 273.824C165.617 267.913 165.857 265.343 165.203 263.3C163.629 258.384 160.053 254.035 158.797 252.33C156.905 249.921 156.697 250.082 154.071 247.824C152.604 246.564 148.261 244.876 147.378 244.155C144.924 242.151 152.456 240.843 158.203 245.041Z" fill="#C14815"/>
</g>
<g opacity="0.330769" filter="url(#filter20_f_71_418)">
<path fill-rule="evenodd" clip-rule="evenodd" d="M172.009 274.683C161.753 256.812 178.643 263.868 185.192 269.689C189.656 277.291 183.293 283.393 172.009 274.683Z" fill="#C14815"/>
</g>
<path fill-rule="evenodd" clip-rule="evenodd" d="M167.624 265.99C167.624 265.99 167.883 270.79 167.676 271.107C167.37 271.577 160.703 261.094 151.136 256.884C147.754 255.396 143.133 254.175 139.45 253.166C136.281 252.298 130.982 255.041 129.483 254.086C127.977 253.127 132.254 247.62 133.271 246.52C135.268 244.363 138.316 241.428 142.401 241.209C144.1 241.118 146.768 241.304 148.903 242.007C151.056 242.715 152.879 243.868 153.74 244.4C161.769 249.36 167.738 260.2 167.624 265.99Z" fill="#934E27"/>
<g opacity="0.472119" filter="url(#filter21_f_71_418)">
<path fill-rule="evenodd" clip-rule="evenodd" d="M164.907 262.438C165.566 264.61 164.07 266.161 164.486 267.526C165.296 270.178 167.693 271.523 167.677 271.108C167.666 270.832 168.725 268.624 168.298 265.422C167.103 260.062 163.539 254.682 162.499 252.994C161.852 251.946 161.438 251.623 161.241 251.904C160.766 252.585 162.95 253.534 164.907 262.438Z" fill="#C14815"/>
</g>
<path fill-rule="evenodd" clip-rule="evenodd" d="M167.165 297.261C147.985 316.549 99.708 282.605 119.686 259.172C140.23 235.075 187.963 276.346 167.165 297.261Z" fill="#DE9C7C"/>
<g opacity="0.269231" filter="url(#filter22_f_71_418)">
<path fill-rule="evenodd" clip-rule="evenodd" d="M168.987 276.487C176.727 285.945 171.571 306.177 142.162 301.423C135.628 300.366 122.62 291.164 120.38 285.963C135.155 293.18 155.085 297.729 168.987 276.487Z" fill="#AC3C00" fill-opacity="0.944915"/>
</g>
<g opacity="0.653846" filter="url(#filter23_f_71_418)">
<path fill-rule="evenodd" clip-rule="evenodd" d="M146.297 254.596C122.574 249.101 123.743 264.056 155.672 271.123C159.701 272.015 169.017 278.073 169.533 276.052C170.296 273.064 151.193 255.73 146.297 254.596Z" fill="white" fill-opacity="0.563559"/>
</g>
<g opacity="0.734615" filter="url(#filter24_f_71_418)">
<path fill-rule="evenodd" clip-rule="evenodd" d="M130.383 251.862C130.669 251.632 138.42 253.352 128.041 254.868C127.529 254.942 128.1 256.518 127.595 256.829C121.877 260.35 113.954 273.376 113.498 272.157C109.621 261.801 124.312 253.79 124.312 253.79C130.103 251.534 130.383 251.862 130.383 251.862Z" fill="#FDFCFC"/>
</g>
<path fill-rule="evenodd" clip-rule="evenodd" d="M221.785 311.09C209.784 311.514 201.275 300.945 201.592 288.076C201.905 275.37 210.978 264.137 222.128 264.339C229.677 265.799 234.535 270.03 237.609 275.476C245.431 289.332 239.616 310.635 221.785 311.09Z" fill="#DE9C7C"/>
<g opacity="0.61" filter="url(#filter25_f_71_418)">
<path fill-rule="evenodd" clip-rule="evenodd" d="M226.518 303.611C215.502 307.672 207.633 302.588 206.359 300.877C207.097 301.605 211.513 301.196 212.68 301.925C215.519 303.699 219.958 300.715 221.298 300.806C222.194 300.795 223.625 299.9 225.112 298.854C226.922 297.58 231.443 293.868 232.065 292.868C235.854 286.769 239.349 295.214 240.085 295.02C242.131 294.483 231.013 301.221 226.518 303.611Z" fill="#D78F6B"/>
</g>
<g opacity="0.146667" filter="url(#filter26_f_71_418)">
<path fill-rule="evenodd" clip-rule="evenodd" d="M227.042 310.279C216.025 314.34 208.391 305.243 207.116 303.531C207.854 304.259 212.271 303.851 213.438 304.58C216.277 306.354 221.527 304.525 222.867 304.616C224.853 304.595 229.387 302.639 231.41 301.927C232.647 301.492 236.965 300.076 238.997 299.109C241.065 298.126 233.172 308.61 227.042 310.279Z" fill="#AC3C00" fill-opacity="0.945098"/>
</g>
<g opacity="0.186667" filter="url(#filter27_f_71_418)">
<path fill-rule="evenodd" clip-rule="evenodd" d="M228.912 266.322C241.334 279.761 234.916 273.529 229.161 271.121C227.64 269.844 222.156 270.591 220.157 269.814C216.914 262.095 224.301 264.202 228.912 266.322Z" fill="#AC3C00" fill-opacity="0.945098"/>
</g>
<path fill-rule="evenodd" clip-rule="evenodd" d="M232.067 283.389C232.067 294.311 225.468 301.049 214.339 301.872C204.998 302.562 197.068 296.671 191.788 290.017C190.34 288.191 186.858 281.741 186.858 279.671C188.665 269.352 207.685 257.727 218.311 258.055C218.892 258.352 218.036 259.383 218.313 260.224C218.893 261.982 219.584 264.112 219.763 264.705C220.945 268.613 220.434 269.314 221.739 269.12C223.309 268.887 226.258 270.143 227.559 271.735C230.363 275.168 232.067 278.565 232.067 283.389Z" fill="#7C3513"/>
<g opacity="0.642308" filter="url(#filter28_f_71_418)">
<path fill-rule="evenodd" clip-rule="evenodd" d="M186.858 279.671C187.611 275.234 216.724 261.072 218.313 260.223C223.306 262.501 199.459 274.869 186.858 279.671Z" fill="#5B1C04" fill-opacity="0.695473"/>
</g>
<g opacity="0.632959" filter="url(#filter29_f_71_418)">
<path fill-rule="evenodd" clip-rule="evenodd" d="M217.656 261.157C219.536 261.658 219.877 267.559 221.68 271.194C224.154 276.186 223.307 277.067 223.43 277.493C223.398 277.71 221.765 274.149 220.625 273.212C219.763 272.366 218.859 270.516 218.361 267.645C218.219 267.003 217.288 265.477 217.347 264.965C217.606 262.716 217.772 261.827 217.656 261.157Z" fill="#5B1C04" fill-opacity="0.650206"/>
</g>
<g filter="url(#filter30_f_71_418)">
<path fill-rule="evenodd" clip-rule="evenodd" d="M187.517 281.538C189.316 281.239 196.748 286.546 204.913 290.683C213.767 295.169 223.35 298.546 223.942 299.104C223.211 300.122 221.436 300.508 219.591 300.952C215.034 302.049 208.025 301.862 201.585 298.361C194.931 294.744 188.948 287.966 187.517 281.538Z" fill="#5B1C04" fill-opacity="0.666667"/>
</g>
<g opacity="0.853846" filter="url(#filter31_f_71_418)">
<path fill-rule="evenodd" clip-rule="evenodd" d="M218.713 253.158C216.969 260.567 198.567 262.929 204.29 249.142C208.369 239.921 220.512 238.807 218.713 253.158Z" fill="#C14815"/>
</g>
<path fill-rule="evenodd" clip-rule="evenodd" d="M250.292 233.064C250.973 244.677 242.641 254.527 230.365 253.105C219.493 251.846 211.338 242.277 211.047 232.226C210.728 221.161 219.36 213.022 230.365 213.022C241.371 213.022 249.645 222.014 250.292 233.064Z" fill="#D99A76"/>
<g opacity="0.367041" filter="url(#filter32_f_71_418)">
<path fill-rule="evenodd" clip-rule="evenodd" d="M211.044 227.383C210.649 253.213 232.842 254.362 235.487 252.2C223.199 243.834 224.612 249.004 218.259 235.865C217.613 233.254 216.554 230.401 217.298 227.383C217.753 225.538 220.273 217.497 220.41 216.433C220.791 213.477 214.337 220.26 211.044 227.383Z" fill="#D28B62"/>
</g>
<path fill-rule="evenodd" clip-rule="evenodd" d="M134.101 229.931C138.329 236.882 129.366 249.457 118.711 250.011C109.305 250.5 100.212 241.591 100.212 232.226C101.222 220.942 110.543 216.015 115.338 214.907C122.094 213.347 128.843 220.952 134.101 229.931Z" fill="#E2976D"/>
<path fill-rule="evenodd" clip-rule="evenodd" d="M161.33 198.998C166.761 202.726 155.451 205.695 148.75 215.256C146.171 218.935 143.947 224.605 141.579 227.946C138.675 230.564 137.221 232.064 134.543 233.522C129.575 234.47 125.629 234.03 121.294 232.163C121.294 232.163 120.274 231.542 119.631 231.136C113.703 227.39 112.257 220.025 116.086 215.156C125.593 203.702 152.925 193.936 161.33 198.998Z" fill="#7C3513"/>
<g opacity="0.569288" filter="url(#filter33_f_71_418)">
<path fill-rule="evenodd" clip-rule="evenodd" d="M148.748 215.256C147.152 219.044 144.928 224.268 141.577 227.946C137.765 232.13 133.161 234.077 128.376 234.006C125.107 233.958 122.205 232.644 121.803 232.442C120.212 231.611 119.5 230.892 118.351 230.116C118.204 230.087 115.884 227.599 115.729 226.239C116.483 221.803 135.098 221.903 136.687 221.053C140.553 218.987 142.822 215.607 144.034 214.703C170.908 193.626 152.212 206.638 148.748 215.256Z" fill="#C14815"/>
</g>
<g opacity="0.85" filter="url(#filter34_f_71_418)">
<path fill-rule="evenodd" clip-rule="evenodd" d="M116.391 212.195C106.636 223.882 125.791 211.355 138.359 206.567C181.273 190.629 128.842 197.837 116.391 212.195Z" fill="white" fill-opacity="0.563559"/>
</g>
<g opacity="0.59176" filter="url(#filter35_f_71_418)">
<path fill-rule="evenodd" clip-rule="evenodd" d="M134.792 233.546C135.445 233.378 135.05 232.935 134.926 235.921C134.882 236.981 132.595 241.016 132.549 240.994C131.732 240.686 133.137 237.633 132.61 236.992C131.919 236.153 131.375 234.591 132.104 234.321C132.701 234.1 134.106 233.855 134.792 233.546Z" fill="#FFBF9D"/>
</g>
<g opacity="0.726923" filter="url(#filter36_f_71_418)">
<path fill-rule="evenodd" clip-rule="evenodd" d="M110.812 247.021C104.532 239.573 108.254 239.223 110.261 236.694C122.371 238.031 118.849 251.544 110.812 247.021Z" fill="#EAB293"/>
</g>
<g opacity="0.524345" filter="url(#filter37_f_71_418)">
<path fill-rule="evenodd" clip-rule="evenodd" d="M101.7 234.82C101.497 234.636 101.536 238.61 102.802 240.428C103.675 241.682 103.216 243.068 105.479 244.783C107.445 246.274 115.899 249.495 115.923 249.389C116.159 248.963 112.562 247.73 110.117 246.143C108.435 245.052 106.529 244.083 105.759 243.249C103.687 241.366 103.087 235.477 101.7 234.82Z" fill="#FFBF9D"/>
</g>
<path fill-rule="evenodd" clip-rule="evenodd" d="M280.787 170.116C264.713 194.924 233.832 210.788 188.996 206.399C166.928 204.239 147.993 200.401 133.803 192.939C133.768 192.919 133.733 192.902 133.698 192.883C105.155 177.827 92.0238 152.505 92.0238 118.884C92.0238 68.5307 136.036 28.3693 190.318 27.711C190.365 27.7104 190.411 27.7098 190.458 27.7093C198.94 24.3185 201.516 22.2304 204.054 18.3006C204.281 17.9493 208.537 17.682 204.039 25.895C213.056 24.0024 216.34 10.4236 219.366 13.4337C226.634 22.8389 220.545 27.586 221.068 28.0939C224.567 31.4916 228.593 23.5764 234.311 22.8725C239.469 24.7422 232.736 39.8902 238.076 40.4669C289.948 55.8828 304.234 132.944 280.787 170.116Z" fill="#B75D24"/>
<g opacity="0.901149" filter="url(#filter38_f_71_418)">
<path fill-rule="evenodd" clip-rule="evenodd" d="M158.756 48.6287C128.365 57.4229 92.0478 72.9693 92.0238 118.884C93.4969 178.093 128.854 189.858 145.446 198.22C126.853 188.817 102.1 158.09 103.402 133.205C103.415 87.5815 138.47 72.264 158.756 48.6287Z" fill="#C14815"/>
<path fill-rule="evenodd" clip-rule="evenodd" d="M158.756 48.6287C128.365 57.4229 92.0478 72.9693 92.0238 118.884C93.4969 178.093 128.854 189.858 145.446 198.22C126.853 188.817 102.1 158.09 103.402 133.205C103.415 87.5815 138.47 72.264 158.756 48.6287Z" stroke="black" stroke-width="1.00157"/>
</g>
<g opacity="0.74023" filter="url(#filter39_f_71_418)">
<path fill-rule="evenodd" clip-rule="evenodd" d="M288.912 133.444C284.14 181.936 243.702 198.177 236.304 201.274C239.672 199.197 250.951 189.405 258.86 181.792C268.771 172.252 268.315 165.356 272.464 158.801C279.467 127.764 289.432 93.9147 288.912 133.444Z" fill="#C14815"/>
</g>
<g opacity="0.429885" filter="url(#filter40_f_71_418)">
<path fill-rule="evenodd" clip-rule="evenodd" d="M214.062 15.0816C213.712 15.2855 212.306 20.3879 210.151 22.4068C207.439 24.9479 204.143 24.0734 207.066 18.926C208.198 16.9316 204.743 17.7546 204.053 18.302C172.81 43.0908 197.406 17.913 194.967 36.2561C219.766 32.8643 221.159 34.2606 225.29 33.4639C231.933 33.1921 229.951 39.8145 233.303 37.4706C239.877 32.8732 233.052 23.315 234.31 22.8738C236.68 22.0427 216.974 33.1693 221.088 27.7887C224.837 22.8845 220.974 7.47709 214.062 15.0816Z" fill="#C14815"/>
<path fill-rule="evenodd" clip-rule="evenodd" d="M214.062 15.0816C213.712 15.2855 212.306 20.3879 210.151 22.4068C207.439 24.9479 204.143 24.0734 207.066 18.926C208.198 16.9316 204.743 17.7546 204.053 18.302C172.81 43.0908 197.406 17.913 194.967 36.2561C219.766 32.8643 221.159 34.2606 225.29 33.4639C231.933 33.1921 229.951 39.8145 233.303 37.4706C239.877 32.8732 233.052 23.315 234.31 22.8738C236.68 22.0427 216.974 33.1693 221.088 27.7887C224.837 22.8845 220.974 7.47709 214.062 15.0816Z" stroke="black" stroke-width="1.00157"/>
</g>
<path fill-rule="evenodd" clip-rule="evenodd" d="M152.018 75.4382C121.294 78.2494 105.468 100.892 103.575 125.522C102.231 142.996 108.901 161.471 117.77 174.575C130.765 193.775 154.395 202.485 177.75 205.564C187.147 206.764 198.289 206.857 203.67 207.128C243.933 209.157 270.623 176.938 276.708 148.922C278.073 142.639 278.906 134.006 278.081 127.842C273.62 94.516 253.557 82.5439 229.745 83.1029C217.673 83.3862 205.688 89.147 195.96 98.1827C184.589 84.6592 168.379 75.3201 152.018 75.4382Z" fill="#EBBD98" stroke="#A95725" stroke-opacity="0.131387" stroke-width="3.02362"/>
<g opacity="0.406667" filter="url(#filter41_f_71_418)">
<path fill-rule="evenodd" clip-rule="evenodd" d="M218.648 126.886C218.491 132.181 216.577 141.098 209.892 141.855C206.793 142.205 200.699 142.562 192.689 143.708C181.725 145.275 173.433 141.03 169.272 140.812C163.928 140.531 163.842 131.999 166.73 126.886C172.206 117.192 169.541 121.243 177.776 119.123C180.917 118.314 185.397 115.807 193.052 114.614C200.564 113.443 204.167 109.245 208.92 111.846C213.675 114.448 218.901 118.358 218.648 126.886Z" fill="#D8A178"/>
</g>
<g opacity="0.873563" filter="url(#filter42_f_71_418)">
<path fill-rule="evenodd" clip-rule="evenodd" d="M223.084 205.361C165.387 212.148 130.785 192.387 125.668 184.378C129.477 185.728 144.795 195.399 156.881 198.047C172.027 201.365 181.038 202.562 190.318 203.462C220.398 207.352 253.042 195.813 247.67 197.477C245.814 198.052 234.545 203.531 223.084 205.361Z" fill="#C14815"/>
</g>
<g opacity="0.705747" filter="url(#filter43_f_71_418)">
<path fill-rule="evenodd" clip-rule="evenodd" d="M110.038 159.404C88.7882 111.227 121.971 82.8653 131.192 81.117C129.691 84.4555 120.064 97.4561 116.682 108.211C112.444 121.691 116.656 129.991 115.119 138.364C113.957 160.71 136.859 175.317 133.057 184.485C132.1 186.794 118.518 183.969 110.038 159.404Z" fill="#D59864"/>
</g>
<g opacity="0.9" filter="url(#filter44_f_71_418)">
<path d="M226.533 175.418C237.183 178.397 247.328 176.987 249.192 172.269C251.057 167.551 243.935 161.313 233.285 158.334C222.635 155.356 212.49 156.766 210.625 161.483C208.76 166.201 215.882 172.44 226.533 175.418Z" fill="#FE9697"/>
</g>
<g opacity="0.9" filter="url(#filter45_f_71_418)">
<path d="M147.947 168.048C136.796 170.352 126.39 168.35 124.704 163.576C123.018 158.802 130.69 153.064 141.842 150.76C152.993 148.456 163.399 150.458 165.085 155.232C166.772 160.006 159.099 165.744 147.947 168.048Z" fill="#FE9697"/>
</g>
<g opacity="0.616092" filter="url(#filter46_f_71_418)">
<path d="M194.239 166.556C208.037 166.432 219.104 161.29 218.957 155.071C218.81 148.853 207.505 143.912 193.707 144.036C179.909 144.161 168.842 149.302 168.989 155.521C169.136 161.74 180.441 166.68 194.239 166.556Z" fill="#E7E7E7"/>
</g>
<path d="M189.097 158.314C194.096 158.61 198.291 156.449 198.467 153.486C198.642 150.524 194.732 147.882 189.732 147.586C184.733 147.29 180.538 149.451 180.362 152.414C180.187 155.376 184.097 158.018 189.097 158.314Z" fill="#611405"/>
<g opacity="0.314607" filter="url(#filter47_f_71_418)">
<path d="M190.935 151.816C192.792 151.964 194.33 151.482 194.372 150.74C194.413 149.997 192.941 149.276 191.084 149.128C189.227 148.981 187.689 149.463 187.648 150.205C187.607 150.947 189.079 151.669 190.935 151.816Z" fill="black"/>
</g>
<g filter="url(#filter48_f_71_418)">
<path fill-rule="evenodd" clip-rule="evenodd" d="M171.789 126.046C171.789 142.369 157.365 150.07 141.999 150.07C126.632 150.07 116.142 142.369 116.142 126.046C116.142 109.723 128.599 96.4907 143.966 96.4907C159.332 96.4907 171.789 109.723 171.789 126.046Z" fill="#590D04"/>
<path fill-rule="evenodd" clip-rule="evenodd" d="M171.789 126.046C171.789 142.369 157.365 150.07 141.999 150.07C126.632 150.07 116.142 142.369 116.142 126.046C116.142 109.723 128.599 96.4907 143.966 96.4907C159.332 96.4907 171.789 109.723 171.789 126.046Z" stroke="#C14815" stroke-width="0.245669"/>
</g>
<g filter="url(#filter49_f_71_418)">
<path fill-rule="evenodd" clip-rule="evenodd" d="M171.393 131.009C170.845 135.65 156.452 143.981 141.762 143.981C127.072 143.981 123.346 144.682 118.913 130.543C113.721 113.981 130.822 99.1163 145.512 99.1163C160.202 99.1163 173.429 113.773 171.393 131.009Z" fill="#470600"/>
<path fill-rule="evenodd" clip-rule="evenodd" d="M171.393 131.009C170.845 135.65 156.452 143.981 141.762 143.981C127.072 143.981 123.346 144.682 118.913 130.543C113.721 113.981 130.822 99.1163 145.512 99.1163C160.202 99.1163 173.429 113.773 171.393 131.009Z" stroke="black" stroke-width="0.245669"/>
</g>
<g opacity="0.865" filter="url(#filter50_f_71_418)">
<path fill-rule="evenodd" clip-rule="evenodd" d="M171.802 128.234C171.802 144.009 156.48 150.071 141.997 150.071C127.515 150.071 120.98 146.541 120.98 130.766C120.98 114.991 132.721 102.203 147.203 102.203C161.685 102.203 171.802 112.459 171.802 128.234Z" fill="#FEF9F8"/>
</g>
<g filter="url(#filter51_f_71_418)">
<path d="M149.956 149.874C162.022 149.874 171.802 140.186 171.802 128.234C171.802 116.283 162.022 106.594 149.956 106.594C137.891 106.594 128.11 116.283 128.11 128.234C128.11 140.186 137.891 149.874 149.956 149.874Z" fill="#742708"/>
</g>
<g filter="url(#filter52_f_71_418)">
<path d="M149.959 140.242C156.804 140.242 162.353 134.866 162.353 128.234C162.353 121.602 156.804 116.226 149.959 116.226C143.114 116.226 137.566 121.602 137.566 128.234C137.566 134.866 143.114 140.242 149.959 140.242Z" fill="#470E01"/>
</g>
<g opacity="0.48324" filter="url(#filter53_f_71_418)">
<path fill-rule="evenodd" clip-rule="evenodd" d="M171.244 125.505C171.244 135.782 165.559 131.655 153.673 131.655C141.786 131.655 128.198 135.782 128.198 125.505C128.198 115.228 137.834 106.896 149.721 106.896C161.608 106.896 171.244 115.228 171.244 125.505Z" fill="black" fill-opacity="0.736527"/>
</g>
<g filter="url(#filter54_f_71_418)">
<path d="M155.756 123.176C157.994 123.176 159.809 121.361 159.809 119.122C159.809 116.883 157.994 115.068 155.756 115.068C153.517 115.068 151.702 116.883 151.702 119.122C151.702 121.361 153.517 123.176 155.756 123.176Z" fill="#FAFDF9"/>
</g>
<g filter="url(#filter55_f_71_418)">
<path fill-rule="evenodd" clip-rule="evenodd" d="M210.622 131.003C208.12 147.134 221.234 156.961 236.462 159.323C251.691 161.686 263.267 155.688 265.769 139.558C268.271 123.428 257.954 108.437 242.726 106.075C227.497 103.712 213.124 114.873 210.622 131.003Z" fill="#590D04"/>
<path fill-rule="evenodd" clip-rule="evenodd" d="M210.622 131.003C208.12 147.134 221.234 156.961 236.462 159.323C251.691 161.686 263.267 155.688 265.769 139.558C268.271 123.428 257.954 108.437 242.726 106.075C227.497 103.712 213.124 114.873 210.622 131.003Z" stroke="#C14815" stroke-width="0.245669"/>
</g>
<g filter="url(#filter56_f_71_418)">
<path fill-rule="evenodd" clip-rule="evenodd" d="M210.255 135.967C210.087 140.637 223.074 151.082 237.632 153.341C252.19 155.599 255.775 156.864 262.335 143.573C270.019 128.006 255.351 110.688 240.792 108.429C226.234 106.171 210.88 118.621 210.255 135.967Z" fill="#470600"/>
<path fill-rule="evenodd" clip-rule="evenodd" d="M210.255 135.967C210.087 140.637 223.074 151.082 237.632 153.341C252.19 155.599 255.775 156.864 262.335 143.573C270.019 128.006 255.351 110.688 240.792 108.429C226.234 106.171 210.88 118.621 210.255 135.967Z" stroke="black" stroke-width="0.245669"/>
</g>
<g opacity="0.865" filter="url(#filter57_f_71_418)">
<path fill-rule="evenodd" clip-rule="evenodd" d="M210.275 133.162C207.857 148.75 222.112 157.097 236.464 159.323C250.817 161.549 257.834 159.065 260.252 143.477C262.67 127.888 252.995 113.447 238.643 111.221C224.29 108.994 212.693 117.574 210.275 133.162Z" fill="#FEF9F8"/>
</g>
<g filter="url(#filter58_f_71_418)">
<path d="M228.608 157.904C216.651 156.05 208.443 144.972 210.275 133.162C212.107 121.352 223.285 113.281 235.242 115.136C247.199 116.991 255.407 128.068 253.575 139.879C251.743 151.689 240.565 159.759 228.608 157.904Z" fill="#742708"/>
</g>
<g filter="url(#filter59_f_71_418)">
<path d="M230.085 148.386C223.301 147.334 218.626 141.168 219.643 134.614C220.66 128.061 226.983 123.601 233.766 124.653C240.549 125.705 245.224 131.871 244.208 138.425C243.191 144.979 236.868 149.438 230.085 148.386Z" fill="#470E01"/>
</g>
<g opacity="0.48324" filter="url(#filter60_f_71_418)">
<path fill-rule="evenodd" clip-rule="evenodd" d="M210.63 130.909C209.055 141.065 215.321 137.861 227.101 139.688C238.881 141.515 251.714 147.682 253.289 137.526C254.864 127.371 246.592 117.657 234.812 115.83C223.032 114.002 212.205 120.754 210.63 130.909Z" fill="black" fill-opacity="0.736527"/>
<path fill-rule="evenodd" clip-rule="evenodd" d="M210.63 130.909C209.055 141.065 215.321 137.861 227.101 139.688C238.881 141.515 251.714 147.682 253.289 137.526C254.864 127.371 246.592 117.657 234.812 115.83C223.032 114.002 212.205 120.754 210.63 130.909Z" stroke="#C14815" stroke-width="1.00143"/>
</g>
<g filter="url(#filter61_f_71_418)">
<path d="M236.914 130.254C234.695 129.91 233.175 127.837 233.518 125.625C233.861 123.412 235.938 121.898 238.157 122.242C240.376 122.586 241.896 124.659 241.553 126.871C241.21 129.083 239.133 130.598 236.914 130.254Z" fill="#FAFDF9"/>
</g>
<g opacity="0.85" filter="url(#filter62_f_71_418)">
<path fill-rule="evenodd" clip-rule="evenodd" d="M172.927 186.997C165.032 174.936 165.652 169.246 167.538 168.813C169.089 168.457 165.918 172.478 170.394 180.759C172.77 185.153 179.166 190.054 182.748 191.378C187.793 192.245 196.034 187.011 199.039 187.632C202.263 188.298 206.413 173.021 207.685 173.2C210.796 173.639 203.335 193.967 187.506 192.719C179.134 192.06 177.528 189.452 172.927 186.997Z" fill="white" fill-opacity="0.563559"/>
</g>
<g opacity="0.85" filter="url(#filter63_f_71_418)">
<path fill-rule="evenodd" clip-rule="evenodd" d="M173.987 171.33C170.181 164.218 162.956 162.132 172.222 164.656C175.432 168.485 180.77 173.383 184.352 174.707C192.541 178.175 202.655 169.926 206.293 167.986C209.404 168.425 204.395 178.299 188.566 177.052C180.193 176.392 178.587 173.785 173.987 171.33Z" fill="white" fill-opacity="0.563559"/>
</g>
<g opacity="0.811538" filter="url(#filter64_f_71_418)">
<path fill-rule="evenodd" clip-rule="evenodd" d="M168.612 162.847C167.52 162.896 167.781 165.064 167.62 166.131C167.205 172.769 169.122 179.89 172.693 184.535C175.923 188.739 180.525 190.768 185.642 191.239C190.982 191.729 194.708 190.852 199.04 187.631C201.351 185.912 203.343 183.01 204.474 180.806C205.977 177.876 206.933 174.008 207.161 170.369C207.177 170.014 207.203 168.746 206.9 168.61C206.056 168.231 205.138 169.3 204.65 169.721C203.673 170.563 202.871 171.145 201.334 172.029C197.813 174.052 192.525 175.789 188.566 175.545C180.413 175.03 174.227 168.531 169.951 163.832C169.687 163.541 169.25 162.818 168.612 162.847Z" fill="#920000"/>
</g>
<path d="M185.642 191.241C192.793 192.04 198.927 189.336 199.342 185.201C199.757 181.067 194.296 177.066 187.145 176.267C179.995 175.467 173.861 178.171 173.446 182.306C173.031 186.441 178.492 190.441 185.642 191.241Z" fill="#C25451"/>
<g opacity="0.234615" filter="url(#filter65_f_71_418)">
<path d="M185.552 189.856C191.13 190.648 196.029 189.253 196.494 186.739C196.958 184.225 192.813 181.544 187.235 180.751C181.657 179.959 176.758 181.354 176.293 183.868C175.829 186.383 179.974 189.063 185.552 189.856Z" fill="black"/>
</g>
<g opacity="0.449438" filter="url(#filter66_f_71_418)">
<path fill-rule="evenodd" clip-rule="evenodd" d="M168.59 163.125C168.552 163.121 168.512 163.12 168.472 163.122C167.381 163.171 167.642 165.339 167.481 166.406C167.236 170.322 168.909 175.944 170.226 179.382C171.967 180.273 173.036 181.002 175.198 180.903C179.553 180.703 182.933 180.474 187.232 180.751C190.596 180.968 196.016 182.301 197.751 182.746C200.153 183.363 202.219 181.012 204.471 180.308C205.895 177.442 206.802 174.169 207.023 170.642C207.039 170.288 207.064 169.02 206.762 168.884C205.917 168.505 204.999 169.574 204.511 169.995C203.534 170.837 202.731 171.419 201.194 172.303C197.674 174.326 192.386 176.064 188.426 175.819C180.273 175.304 174.088 168.805 169.813 164.106C169.564 163.833 169.165 163.182 168.59 163.125Z" fill="#8C3130"/>
</g>
<path d="M52.08 372.6C52.08 376 50.88 378.94 48.48 381.42C46.08 383.86 42.58 385.62 37.98 386.7C40.46 387.38 42.34 388.5 43.62 390.06C44.9 391.58 45.54 393.34 45.54 395.34C45.54 398.5 44.54 401.24 42.54 403.56C40.58 405.88 37.7 407.68 33.9 408.96C30.1 410.2 25.52 410.82 20.16 410.82C18.16 410.82 16.56 410.76 15.36 410.64C15.32 411.76 14.84 412.6 13.92 413.16C13 413.72 11.82 414 10.38 414C8.94 414 7.94 413.68 7.38 413.04C6.86 412.4 6.64 411.46 6.72 410.22C7.08 404.62 7.78 398.76 8.82 392.64C9.86 386.48 11.18 380.54 12.78 374.82C13.06 373.82 13.62 373.12 14.46 372.72C15.3 372.32 16.4 372.12 17.76 372.12C20.2 372.12 21.42 372.8 21.42 374.16C21.42 374.72 21.3 375.36 21.06 376.08C20.02 379.2 18.98 383.44 17.94 388.8C16.9 394.12 16.16 399.2 15.72 404.04C17.64 404.2 19.2 404.28 20.4 404.28C26 404.28 30.1 403.48 32.7 401.88C35.34 400.24 36.66 398.16 36.66 395.64C36.66 393.88 35.9 392.4 34.38 391.2C32.9 390 30.4 389.34 26.88 389.22C26.08 389.18 25.52 388.98 25.2 388.62C24.88 388.26 24.72 387.68 24.72 386.88C24.72 385.72 24.96 384.78 25.44 384.06C25.92 383.34 26.8 382.96 28.08 382.92C30.92 382.84 33.48 382.42 35.76 381.66C38.08 380.9 39.9 379.84 41.22 378.48C42.54 377.08 43.2 375.46 43.2 373.62C43.2 371.3 42.06 369.48 39.78 368.16C37.5 366.8 34 366.12 29.28 366.12C25 366.12 20.86 366.68 16.86 367.8C12.86 368.88 9.46 370.26 6.66 371.94C5.38 372.7 4.3 373.08 3.42 373.08C2.7 373.08 2.14 372.84 1.74 372.36C1.38 371.84 1.2 371.2 1.2 370.44C1.2 369.44 1.4 368.58 1.8 367.86C2.24 367.14 3.26 366.32 4.86 365.4C8.22 363.48 12.16 361.98 16.68 360.9C21.2 359.82 25.82 359.28 30.54 359.28C37.78 359.28 43.18 360.5 46.74 362.94C50.3 365.38 52.08 368.6 52.08 372.6ZM59.197 379.08C57.517 379.08 56.257 378.7 55.417 377.94C54.577 377.14 54.157 376.04 54.157 374.64C54.157 373.24 54.697 372.08 55.777 371.16C56.897 370.2 58.277 369.72 59.917 369.72C61.397 369.72 62.597 370.08 63.517 370.8C64.437 371.52 64.897 372.54 64.897 373.86C64.897 375.46 64.377 376.74 63.337 377.7C62.297 378.62 60.917 379.08 59.197 379.08ZM58.717 411.3C56.117 411.3 54.217 410.38 53.017 408.54C51.857 406.7 51.277 404.26 51.277 401.22C51.277 399.42 51.497 397.12 51.937 394.32C52.417 391.48 53.017 388.84 53.737 386.4C54.097 385.12 54.577 384.24 55.177 383.76C55.777 383.28 56.737 383.04 58.057 383.04C60.097 383.04 61.117 383.72 61.117 385.08C61.117 386.08 60.737 388.4 59.977 392.04C59.017 396.44 58.537 399.42 58.537 400.98C58.537 402.18 58.697 403.1 59.017 403.74C59.337 404.38 59.877 404.7 60.637 404.7C61.357 404.7 62.257 404.2 63.337 403.2C64.417 402.2 65.857 400.62 67.657 398.46C68.137 397.9 68.677 397.62 69.277 397.62C69.797 397.62 70.197 397.86 70.477 398.34C70.797 398.82 70.957 399.48 70.957 400.32C70.957 401.92 70.577 403.16 69.817 404.04C65.857 408.88 62.157 411.3 58.717 411.3ZM70.3627 411.3C68.8427 411.3 67.7627 410.5 67.1227 408.9C66.5227 407.3 66.2227 404.74 66.2227 401.22C66.2227 396.02 66.9627 391.08 68.4427 386.4C68.8027 385.24 69.3827 384.4 70.1827 383.88C71.0227 383.32 72.1827 383.04 73.6627 383.04C74.4627 383.04 75.0227 383.14 75.3427 383.34C75.6627 383.54 75.8227 383.92 75.8227 384.48C75.8227 385.12 75.5227 386.56 74.9227 388.8C74.5227 390.4 74.2027 391.8 73.9627 393C73.7227 394.2 73.5227 395.68 73.3627 397.44C74.6827 394 76.1627 391.2 77.8027 389.04C79.4427 386.88 81.0427 385.34 82.6027 384.42C84.2027 383.5 85.6627 383.04 86.9827 383.04C89.5827 383.04 90.8827 384.34 90.8827 386.94C90.8827 388.5 90.4427 391.32 89.5627 395.4C88.8027 398.88 88.4227 401.18 88.4227 402.3C88.4227 403.9 89.0027 404.7 90.1627 404.7C90.9627 404.7 91.9027 404.22 92.9827 403.26C94.1027 402.26 95.5827 400.66 97.4227 398.46C97.9027 397.9 98.4427 397.62 99.0427 397.62C99.5627 397.62 99.9627 397.86 100.243 398.34C100.563 398.82 100.723 399.48 100.723 400.32C100.723 401.92 100.343 403.16 99.5827 404.04C97.8627 406.16 96.0027 407.9 94.0027 409.26C92.0427 410.62 89.8027 411.3 87.2827 411.3C85.2427 411.3 83.7027 410.72 82.6627 409.56C81.6227 408.36 81.1027 406.64 81.1027 404.4C81.1027 403.28 81.3827 401.28 81.9427 398.4C82.4627 395.88 82.7227 394.14 82.7227 393.18C82.7227 392.54 82.5027 392.22 82.0627 392.22C81.5427 392.22 80.8027 392.9 79.8427 394.26C78.9227 395.58 77.9627 397.34 76.9627 399.54C76.0027 401.74 75.2227 404.06 74.6227 406.5C74.1827 408.38 73.6627 409.66 73.0627 410.34C72.5027 410.98 71.6027 411.3 70.3627 411.3ZM130.548 397.62C131.068 397.62 131.468 397.86 131.748 398.34C132.068 398.82 132.228 399.48 132.228 400.32C132.228 401.92 131.848 403.16 131.088 404.04C129.288 406.24 127.468 408 125.628 409.32C123.788 410.64 121.608 411.3 119.088 411.3C116.008 411.3 113.528 410.42 111.648 408.66C109.768 406.9 108.828 404.56 108.828 401.64C108.828 400.08 109.628 398.96 111.228 398.28C112.988 397.52 114.248 396.72 115.008 395.88C115.768 395 116.148 393.94 116.148 392.7C116.148 391.98 115.988 391.44 115.668 391.08C115.388 390.72 115.028 390.54 114.588 390.54C113.508 390.54 112.308 391.32 110.988 392.88C109.708 394.44 108.508 396.46 107.388 398.94C106.268 401.38 105.388 403.9 104.748 406.5C104.308 408.38 103.788 409.66 103.188 410.34C102.628 410.98 101.728 411.3 100.488 411.3C99.2483 411.3 98.3283 410.86 97.7283 409.98C97.1683 409.06 96.7883 407.66 96.5883 405.78C96.3883 403.9 96.2883 401.14 96.2883 397.5C96.2883 391.34 96.9083 384.92 98.1483 378.24C99.4283 371.56 101.288 365.96 103.728 361.44C106.208 356.88 109.168 354.6 112.608 354.6C114.448 354.6 115.928 355.4 117.048 357C118.208 358.56 118.788 360.6 118.788 363.12C118.788 367.16 117.608 371.36 115.248 375.72C112.888 380.04 109.048 385.1 103.728 390.9C103.608 392.98 103.548 395.12 103.548 397.32C105.468 392.32 107.668 388.7 110.148 386.46C112.628 384.18 114.948 383.04 117.108 383.04C119.108 383.04 120.708 383.72 121.908 385.08C123.148 386.44 123.768 388.12 123.768 390.12C123.768 392.32 123.208 394.34 122.088 396.18C120.968 398.02 119.048 399.66 116.328 401.1C116.488 402.18 116.968 403.06 117.768 403.74C118.608 404.38 119.608 404.7 120.768 404.7C122.008 404.7 123.208 404.22 124.368 403.26C125.528 402.3 127.048 400.7 128.928 398.46C129.408 397.9 129.948 397.62 130.548 397.62ZM111.348 360.54C110.628 360.54 109.828 361.58 108.948 363.66C108.068 365.7 107.208 368.48 106.368 372C105.568 375.48 104.908 379.28 104.388 383.4C106.868 380.48 108.908 377.3 110.508 373.86C112.148 370.42 112.968 367.3 112.968 364.5C112.968 363.22 112.828 362.24 112.548 361.56C112.268 360.88 111.868 360.54 111.348 360.54ZM148.392 383.04C149.312 383.04 149.952 383.16 150.312 383.4C150.672 383.64 150.852 384.04 150.852 384.6C150.852 385.56 150.332 388.98 149.292 394.86C148.372 400.5 147.832 403.84 147.672 404.88C146.192 415.16 144.152 423.3 141.552 429.3C138.952 435.3 135.492 438.3 131.172 438.3C129.132 438.3 127.472 437.66 126.192 436.38C124.912 435.14 124.272 433.5 124.272 431.46C124.272 429.58 124.692 427.66 125.532 425.7C126.412 423.74 128.012 421.48 130.332 418.92C132.692 416.4 136.012 413.5 140.292 410.22L140.472 408.84C140.752 407.36 141.072 405.24 141.432 402.48C140.632 405.36 139.512 407.56 138.072 409.08C136.632 410.56 135.112 411.3 133.512 411.3C131.712 411.3 130.232 410.48 129.072 408.84C127.952 407.16 127.392 405.08 127.392 402.6C127.392 399.6 127.592 396.86 127.992 394.38C128.392 391.86 129.052 389.2 129.972 386.4C130.372 385.2 130.932 384.34 131.652 383.82C132.372 383.3 133.512 383.04 135.072 383.04C135.952 383.04 136.552 383.18 136.872 383.46C137.232 383.74 137.412 384.16 137.412 384.72C137.412 385.04 137.192 386.12 136.752 387.96C136.352 389.44 136.032 390.78 135.792 391.98C135.472 393.62 135.192 395.2 134.952 396.72C134.712 398.2 134.592 399.42 134.592 400.38C134.592 401.9 135.012 402.66 135.852 402.66C136.452 402.66 137.192 402.06 138.072 400.86C138.992 399.66 139.952 397.84 140.952 395.4C141.992 392.96 142.992 389.96 143.952 386.4C144.272 385.2 144.752 384.34 145.392 383.82C146.072 383.3 147.072 383.04 148.392 383.04ZM131.832 432.48C132.832 432.48 133.952 431.32 135.192 429C136.432 426.68 137.672 422.82 138.912 417.42C135.832 420.02 133.592 422.38 132.192 424.5C130.832 426.66 130.152 428.54 130.152 430.14C130.152 430.82 130.272 431.38 130.512 431.82C130.792 432.26 131.232 432.48 131.832 432.48ZM181.264 411.3C179.784 411.3 178.724 410.98 178.084 410.34C177.444 409.66 177.124 408.4 177.124 406.56C177.124 405.32 177.244 403.74 177.484 401.82C177.764 399.86 178.204 397.18 178.804 393.78C179.844 387.5 180.664 382.06 181.264 377.46C181.624 374.58 181.804 372.18 181.804 370.26C181.804 368.46 181.144 367.56 179.824 367.56C178.784 367.56 177.524 368.1 176.044 369.18C174.604 370.22 173.004 371.9 171.244 374.22C170.684 374.98 170.064 375.36 169.384 375.36C168.824 375.36 168.324 375.1 167.884 374.58C167.484 374.02 167.284 373.4 167.284 372.72C167.284 372.08 167.404 371.44 167.644 370.8C167.924 370.12 168.364 369.36 168.964 368.52C170.884 365.84 173.024 363.78 175.384 362.34C177.744 360.86 180.104 360.12 182.464 360.12C184.664 360.12 186.344 360.82 187.504 362.22C188.704 363.62 189.304 365.66 189.304 368.34C189.304 369.42 189.204 370.7 189.004 372.18C188.804 373.62 188.624 374.8 188.464 375.72C188.304 376.64 188.184 377.28 188.104 377.64C190.384 371.12 192.944 366.58 195.784 364.02C198.624 361.42 201.744 360.12 205.144 360.12C207.744 360.12 209.784 361.04 211.264 362.88C212.784 364.72 213.544 367.32 213.544 370.68C213.544 372 213.364 373.64 213.004 375.6C215.004 370.08 217.344 366.12 220.024 363.72C222.704 361.32 225.784 360.12 229.264 360.12C232.064 360.12 234.204 361.02 235.684 362.82C237.204 364.62 237.964 367.14 237.964 370.38C237.964 372.14 237.704 374.28 237.184 376.8L233.524 393.96C233.124 395.96 232.924 397.68 232.924 399.12C232.924 400.8 233.304 402.06 234.064 402.9C234.864 403.74 235.964 404.16 237.364 404.16C238.684 404.16 239.964 403.72 241.204 402.84C242.484 401.96 243.984 400.5 245.704 398.46C246.184 397.9 246.724 397.62 247.324 397.62C247.844 397.62 248.244 397.86 248.524 398.34C248.844 398.82 249.004 399.48 249.004 400.32C249.004 401.88 248.624 403.12 247.864 404.04C245.784 406.56 243.724 408.4 241.684 409.56C239.644 410.72 237.504 411.3 235.264 411.3C231.864 411.3 229.204 410.3 227.284 408.3C225.364 406.26 224.404 403.54 224.404 400.14C224.404 397.78 224.884 394.36 225.844 389.88L228.244 378.9C228.324 378.54 228.464 377.9 228.664 376.98C228.864 376.06 229.024 375.2 229.144 374.4C229.264 373.56 229.324 372.74 229.324 371.94C229.324 370.54 229.044 369.5 228.484 368.82C227.964 368.1 227.204 367.74 226.204 367.74C224.324 367.74 222.344 368.96 220.264 371.4C218.224 373.8 216.264 377.8 214.384 383.4C212.544 389 211.044 396.28 209.884 405.24C209.604 407.64 209.104 409.26 208.384 410.1C207.704 410.9 206.584 411.3 205.024 411.3C203.664 411.3 202.664 410.98 202.024 410.34C201.424 409.7 201.124 408.5 201.124 406.74C201.124 405.1 201.344 402.96 201.784 400.32C202.224 397.64 202.784 394.5 203.464 390.9C205.304 381.22 206.224 374.98 206.224 372.18C206.224 370.66 205.924 369.54 205.324 368.82C204.764 368.1 203.904 367.74 202.744 367.74C200.784 367.74 198.764 368.86 196.684 371.1C194.604 373.3 192.564 377.24 190.564 382.92C188.604 388.56 186.964 396.2 185.644 405.84C185.364 407.88 184.944 409.3 184.384 410.1C183.864 410.9 182.824 411.3 181.264 411.3ZM274.769 392.58C275.289 392.58 275.689 392.84 275.969 393.36C276.249 393.88 276.389 394.54 276.389 395.34C276.389 397.26 275.809 398.4 274.649 398.76C272.249 399.6 269.609 400.08 266.729 400.2C265.969 403.56 264.469 406.26 262.229 408.3C259.989 410.3 257.449 411.3 254.609 411.3C252.209 411.3 250.149 410.72 248.429 409.56C246.749 408.4 245.469 406.86 244.589 404.94C243.709 403.02 243.269 400.94 243.269 398.7C243.269 395.66 243.849 392.96 245.009 390.6C246.169 388.2 247.769 386.34 249.809 385.02C251.849 383.66 254.109 382.98 256.589 382.98C259.629 382.98 262.069 384.04 263.909 386.16C265.789 388.24 266.889 390.82 267.209 393.9C269.089 393.78 271.329 393.38 273.929 392.7C274.249 392.62 274.529 392.58 274.769 392.58ZM255.089 404.94C256.369 404.94 257.469 404.42 258.389 403.38C259.349 402.34 259.989 400.84 260.309 398.88C259.069 398.04 258.109 396.94 257.429 395.58C256.789 394.22 256.469 392.78 256.469 391.26C256.469 390.62 256.529 389.98 256.649 389.34H256.349C254.749 389.34 253.409 390.12 252.329 391.68C251.289 393.2 250.769 395.36 250.769 398.16C250.769 400.36 251.189 402.04 252.029 403.2C252.909 404.36 253.929 404.94 255.089 404.94ZM275.499 411.3C273.979 411.3 272.899 410.5 272.259 408.9C271.659 407.3 271.359 404.74 271.359 401.22C271.359 396.02 272.099 391.08 273.579 386.4C273.939 385.24 274.519 384.4 275.319 383.88C276.159 383.32 277.319 383.04 278.799 383.04C279.599 383.04 280.159 383.14 280.479 383.34C280.799 383.54 280.959 383.92 280.959 384.48C280.959 385.12 280.659 386.56 280.059 388.8C279.659 390.4 279.339 391.8 279.099 393C278.859 394.2 278.659 395.68 278.499 397.44C279.819 394 281.299 391.2 282.939 389.04C284.579 386.88 286.179 385.34 287.739 384.42C289.339 383.5 290.799 383.04 292.119 383.04C294.719 383.04 296.019 384.34 296.019 386.94C296.019 388.5 295.579 391.32 294.699 395.4C293.939 398.88 293.559 401.18 293.559 402.3C293.559 403.9 294.139 404.7 295.299 404.7C296.099 404.7 297.039 404.22 298.119 403.26C299.239 402.26 300.719 400.66 302.559 398.46C303.039 397.9 303.579 397.62 304.179 397.62C304.699 397.62 305.099 397.86 305.379 398.34C305.699 398.82 305.859 399.48 305.859 400.32C305.859 401.92 305.479 403.16 304.719 404.04C302.999 406.16 301.139 407.9 299.139 409.26C297.179 410.62 294.939 411.3 292.419 411.3C290.379 411.3 288.839 410.72 287.799 409.56C286.759 408.36 286.239 406.64 286.239 404.4C286.239 403.28 286.519 401.28 287.079 398.4C287.599 395.88 287.859 394.14 287.859 393.18C287.859 392.54 287.639 392.22 287.199 392.22C286.679 392.22 285.939 392.9 284.979 394.26C284.059 395.58 283.099 397.34 282.099 399.54C281.139 401.74 280.359 404.06 279.759 406.5C279.319 408.38 278.799 409.66 278.199 410.34C277.639 410.98 276.739 411.3 275.499 411.3ZM335.685 397.62C336.205 397.62 336.605 397.86 336.885 398.34C337.205 398.82 337.365 399.48 337.365 400.32C337.365 401.92 336.985 403.16 336.225 404.04C334.425 406.24 332.605 408 330.765 409.32C328.925 410.64 326.745 411.3 324.225 411.3C321.145 411.3 318.665 410.42 316.785 408.66C314.905 406.9 313.965 404.56 313.965 401.64C313.965 400.08 314.765 398.96 316.365 398.28C318.125 397.52 319.385 396.72 320.145 395.88C320.905 395 321.285 393.94 321.285 392.7C321.285 391.98 321.125 391.44 320.805 391.08C320.525 390.72 320.165 390.54 319.725 390.54C318.645 390.54 317.445 391.32 316.125 392.88C314.845 394.44 313.645 396.46 312.525 398.94C311.405 401.38 310.525 403.9 309.885 406.5C309.445 408.38 308.925 409.66 308.325 410.34C307.765 410.98 306.865 411.3 305.625 411.3C304.385 411.3 303.465 410.86 302.865 409.98C302.305 409.06 301.925 407.66 301.725 405.78C301.525 403.9 301.425 401.14 301.425 397.5C301.425 391.34 302.045 384.92 303.285 378.24C304.565 371.56 306.425 365.96 308.865 361.44C311.345 356.88 314.305 354.6 317.745 354.6C319.585 354.6 321.065 355.4 322.185 357C323.345 358.56 323.925 360.6 323.925 363.12C323.925 367.16 322.745 371.36 320.385 375.72C318.025 380.04 314.185 385.1 308.865 390.9C308.745 392.98 308.685 395.12 308.685 397.32C310.605 392.32 312.805 388.7 315.285 386.46C317.765 384.18 320.085 383.04 322.245 383.04C324.245 383.04 325.845 383.72 327.045 385.08C328.285 386.44 328.905 388.12 328.905 390.12C328.905 392.32 328.345 394.34 327.225 396.18C326.105 398.02 324.185 399.66 321.465 401.1C321.625 402.18 322.105 403.06 322.905 403.74C323.745 404.38 324.745 404.7 325.905 404.7C327.145 404.7 328.345 404.22 329.505 403.26C330.665 402.3 332.185 400.7 334.065 398.46C334.545 397.9 335.085 397.62 335.685 397.62ZM316.485 360.54C315.765 360.54 314.965 361.58 314.085 363.66C313.205 365.7 312.345 368.48 311.505 372C310.705 375.48 310.045 379.28 309.525 383.4C312.005 380.48 314.045 377.3 315.645 373.86C317.285 370.42 318.105 367.3 318.105 364.5C318.105 363.22 317.965 362.24 317.685 361.56C317.405 360.88 317.005 360.54 316.485 360.54ZM359.288 397.62C359.808 397.62 360.208 397.86 360.488 398.34C360.808 398.82 360.968 399.48 360.968 400.32C360.968 401.92 360.588 403.16 359.828 404.04C358.348 405.84 356.248 407.5 353.528 409.02C350.848 410.54 347.968 411.3 344.888 411.3C340.688 411.3 337.428 410.16 335.108 407.88C332.788 405.6 331.628 402.48 331.628 398.52C331.628 395.76 332.208 393.2 333.368 390.84C334.528 388.44 336.128 386.54 338.168 385.14C340.248 383.74 342.588 383.04 345.188 383.04C347.508 383.04 349.368 383.74 350.768 385.14C352.168 386.5 352.868 388.36 352.868 390.72C352.868 393.48 351.868 395.86 349.868 397.86C347.908 399.82 344.568 401.38 339.848 402.54C340.848 404.38 342.748 405.3 345.548 405.3C347.348 405.3 349.388 404.68 351.668 403.44C353.988 402.16 355.988 400.5 357.668 398.46C358.148 397.9 358.688 397.62 359.288 397.62ZM344.168 388.92C342.688 388.92 341.428 389.78 340.388 391.5C339.388 393.22 338.888 395.3 338.888 397.74V397.86C341.248 397.3 343.108 396.46 344.468 395.34C345.828 394.22 346.508 392.92 346.508 391.44C346.508 390.68 346.288 390.08 345.848 389.64C345.448 389.16 344.888 388.92 344.168 388.92ZM377.083 383.04C378.003 383.04 378.643 383.16 379.003 383.4C379.363 383.64 379.543 384.04 379.543 384.6C379.543 385.56 379.023 388.98 377.983 394.86C377.063 400.5 376.523 403.84 376.363 404.88C374.883 415.16 372.843 423.3 370.243 429.3C367.643 435.3 364.183 438.3 359.863 438.3C357.823 438.3 356.163 437.66 354.883 436.38C353.603 435.14 352.963 433.5 352.963 431.46C352.963 429.58 353.383 427.66 354.223 425.7C355.103 423.74 356.703 421.48 359.023 418.92C361.383 416.4 364.703 413.5 368.983 410.22L369.163 408.84C369.443 407.36 369.763 405.24 370.123 402.48C369.323 405.36 368.203 407.56 366.763 409.08C365.323 410.56 363.803 411.3 362.203 411.3C360.403 411.3 358.923 410.48 357.763 408.84C356.643 407.16 356.083 405.08 356.083 402.6C356.083 399.6 356.283 396.86 356.683 394.38C357.083 391.86 357.743 389.2 358.663 386.4C359.063 385.2 359.623 384.34 360.343 383.82C361.063 383.3 362.203 383.04 363.763 383.04C364.643 383.04 365.243 383.18 365.563 383.46C365.923 383.74 366.103 384.16 366.103 384.72C366.103 385.04 365.883 386.12 365.443 387.96C365.043 389.44 364.723 390.78 364.483 391.98C364.163 393.62 363.883 395.2 363.643 396.72C363.403 398.2 363.283 399.42 363.283 400.38C363.283 401.9 363.703 402.66 364.543 402.66C365.143 402.66 365.883 402.06 366.763 400.86C367.683 399.66 368.643 397.84 369.643 395.4C370.683 392.96 371.683 389.96 372.643 386.4C372.963 385.2 373.443 384.34 374.083 383.82C374.763 383.3 375.763 383.04 377.083 383.04ZM360.523 432.48C361.523 432.48 362.643 431.32 363.883 429C365.123 426.68 366.363 422.82 367.603 417.42C364.523 420.02 362.283 422.38 360.883 424.5C359.523 426.66 358.843 428.54 358.843 430.14C358.843 430.82 358.963 431.38 359.203 431.82C359.483 432.26 359.923 432.48 360.523 432.48Z" fill="#7E2807"/>
<defs>
<filter id="filter0_f_71_418" x="221.163" y="248.167" width="55.9978" height="24.1574" filterUnits="userSpaceOnUse" color-interpolation-filters="sRGB">
<feFlood flood-opacity="0" result="BackgroundImageFix"/>
<feBlend mode="normal" in="SourceGraphic" in2="BackgroundImageFix" result="shape"/>
<feGaussianBlur stdDeviation="3.99414" result="effect1_foregroundBlur_71_418"/>
</filter>
<filter id="filter1_f_71_418" x="259.532" y="226.768" width="28.411" height="33.568" filterUnits="userSpaceOnUse" color-interpolation-filters="sRGB">
<feFlood flood-opacity="0" result="BackgroundImageFix"/>
<feBlend mode="normal" in="SourceGraphic" in2="BackgroundImageFix" result="shape"/>
<feGaussianBlur stdDeviation="3.37699" result="effect1_foregroundBlur_71_418"/>
</filter>
<filter id="filter2_f_71_418" x="206.052" y="241.513" width="37.8613" height="34.1705" filterUnits="userSpaceOnUse" color-interpolation-filters="sRGB">
<feFlood flood-opacity="0" result="BackgroundImageFix"/>
<feBlend mode="normal" in="SourceGraphic" in2="BackgroundImageFix" result="shape"/>
<feGaussianBlur stdDeviation="6.73619" result="effect1_foregroundBlur_71_418"/>
</filter>
<filter id="filter3_f_71_418" x="215.098" y="246.449" width="71.7999" height="31.3053" filterUnits="userSpaceOnUse" color-interpolation-filters="sRGB">
<feFlood flood-opacity="0" result="BackgroundImageFix"/>
<feBlend mode="normal" in="SourceGraphic" in2="BackgroundImageFix" result="shape"/>
<feGaussianBlur stdDeviation="4.40434" result="effect1_foregroundBlur_71_418"/>
</filter>
<filter id="filter4_f_71_418" x="261.891" y="232.728" width="19.6365" height="28.4781" filterUnits="userSpaceOnUse" color-interpolation-filters="sRGB">
<feFlood flood-opacity="0" result="BackgroundImageFix"/>
<feBlend mode="normal" in="SourceGraphic" in2="BackgroundImageFix" result="shape"/>
<feGaussianBlur stdDeviation="3.01173" result="effect1_foregroundBlur_71_418"/>
</filter>
<filter id="filter5_f_71_418" x="252.111" y="229.81" width="30.4445" height="31.0364" filterUnits="userSpaceOnUse" color-interpolation-filters="sRGB">
<feFlood flood-opacity="0" result="BackgroundImageFix"/>
<feBlend mode="normal" in="SourceGraphic" in2="BackgroundImageFix" result="shape"/>
<feGaussianBlur stdDeviation="2.86496" result="effect1_foregroundBlur_71_418"/>
</filter>
<filter id="filter6_f_71_418" x="53.0082" y="111.998" width="63.2822" height="38.2728" filterUnits="userSpaceOnUse" color-interpolation-filters="sRGB">
<feFlood flood-opacity="0" result="BackgroundImageFix"/>
<feBlend mode="normal" in="SourceGraphic" in2="BackgroundImageFix" result="shape"/>
<feGaussianBlur stdDeviation="4.50784" result="effect1_foregroundBlur_71_418"/>
</filter>
<filter id="filter7_f_71_418" x="51.7169" y="71.4977" width="55.9905" height="57.418" filterUnits="userSpaceOnUse" color-interpolation-filters="sRGB">
<feFlood flood-opacity="0" result="BackgroundImageFix"/>
<feBlend mode="normal" in="SourceGraphic" in2="BackgroundImageFix" result="shape"/>
<feGaussianBlur stdDeviation="4.02961" result="effect1_foregroundBlur_71_418"/>
</filter>
<filter id="filter8_f_71_418" x="54.9614" y="78.4428" width="62.8519" height="66.6662" filterUnits="userSpaceOnUse" color-interpolation-filters="sRGB">
<feFlood flood-opacity="0" result="BackgroundImageFix"/>
<feBlend mode="normal" in="SourceGraphic" in2="BackgroundImageFix" result="shape"/>
<feGaussianBlur stdDeviation="5.51924" result="effect1_foregroundBlur_71_418"/>
</filter>
<filter id="filter9_f_71_418" x="264.709" y="136.926" width="63.2825" height="38.2729" filterUnits="userSpaceOnUse" color-interpolation-filters="sRGB">
<feFlood flood-opacity="0" result="BackgroundImageFix"/>
<feBlend mode="normal" in="SourceGraphic" in2="BackgroundImageFix" result="shape"/>
<feGaussianBlur stdDeviation="4.50784" result="effect1_foregroundBlur_71_418"/>
</filter>
<filter id="filter10_f_71_418" x="273.292" y="96.4257" width="55.9908" height="57.4182" filterUnits="userSpaceOnUse" color-interpolation-filters="sRGB">
<feFlood flood-opacity="0" result="BackgroundImageFix"/>
<feBlend mode="normal" in="SourceGraphic" in2="BackgroundImageFix" result="shape"/>
<feGaussianBlur stdDeviation="4.02961" result="effect1_foregroundBlur_71_418"/>
</filter>
<filter id="filter11_f_71_418" x="263.186" y="103.371" width="62.8521" height="66.6664" filterUnits="userSpaceOnUse" color-interpolation-filters="sRGB">
<feFlood flood-opacity="0" result="BackgroundImageFix"/>
<feBlend mode="normal" in="SourceGraphic" in2="BackgroundImageFix" result="shape"/>
<feGaussianBlur stdDeviation="5.51924" result="effect1_foregroundBlur_71_418"/>
</filter>
<filter id="filter12_f_71_418" x="235.442" y="205.141" width="40.2487" height="40.1555" filterUnits="userSpaceOnUse" color-interpolation-filters="sRGB">
<feFlood flood-opacity="0" result="BackgroundImageFix"/>
<feBlend mode="normal" in="SourceGraphic" in2="BackgroundImageFix" result="shape"/>
<feGaussianBlur stdDeviation="4.84888" result="effect1_foregroundBlur_71_418"/>
</filter>
<filter id="filter13_f_71_418" x="208.801" y="200.886" width="44.7962" height="23.1207" filterUnits="userSpaceOnUse" color-interpolation-filters="sRGB">
<feFlood flood-opacity="0" result="BackgroundImageFix"/>
<feBlend mode="normal" in="SourceGraphic" in2="BackgroundImageFix" result="shape"/>
<feGaussianBlur stdDeviation="3.86899" result="effect1_foregroundBlur_71_418"/>
</filter>
<filter id="filter14_f_71_418" x="242.141" y="225.451" width="18.8864" height="27.8683" filterUnits="userSpaceOnUse" color-interpolation-filters="sRGB">
<feFlood flood-opacity="0" result="BackgroundImageFix"/>
<feBlend mode="normal" in="SourceGraphic" in2="BackgroundImageFix" result="shape"/>
<feGaussianBlur stdDeviation="2.5179" result="effect1_foregroundBlur_71_418"/>
</filter>
<filter id="filter15_f_71_418" x="143.121" y="201.923" width="46.5907" height="47.2299" filterUnits="userSpaceOnUse" color-interpolation-filters="sRGB">
<feFlood flood-opacity="0" result="BackgroundImageFix"/>
<feBlend mode="normal" in="SourceGraphic" in2="BackgroundImageFix" result="shape"/>
<feGaussianBlur stdDeviation="4.33889" result="effect1_foregroundBlur_71_418"/>
</filter>
<filter id="filter16_f_71_418" x="153.063" y="206.283" width="49.4281" height="29.7059" filterUnits="userSpaceOnUse" color-interpolation-filters="sRGB">
<feFlood flood-opacity="0" result="BackgroundImageFix"/>
<feBlend mode="normal" in="SourceGraphic" in2="BackgroundImageFix" result="shape"/>
<feGaussianBlur stdDeviation="3.27404" result="effect1_foregroundBlur_71_418"/>
</filter>
<filter id="filter17_f_71_418" x="159.096" y="224.949" width="53.0852" height="56.7113" filterUnits="userSpaceOnUse" color-interpolation-filters="sRGB">
<feFlood flood-opacity="0" result="BackgroundImageFix"/>
<feBlend mode="normal" in="SourceGraphic" in2="BackgroundImageFix" result="shape"/>
<feGaussianBlur stdDeviation="6.58979" result="effect1_foregroundBlur_71_418"/>
</filter>
<filter id="filter18_f_71_418" x="197.325" y="200.119" width="23.1909" height="27.292" filterUnits="userSpaceOnUse" color-interpolation-filters="sRGB">
<feFlood flood-opacity="0" result="BackgroundImageFix"/>
<feBlend mode="normal" in="SourceGraphic" in2="BackgroundImageFix" result="shape"/>
<feGaussianBlur stdDeviation="2.84162" result="effect1_foregroundBlur_71_418"/>
</filter>
<filter id="filter19_f_71_418" x="137.535" y="232.904" width="43.1305" height="50.8481" filterUnits="userSpaceOnUse" color-interpolation-filters="sRGB">
<feFlood flood-opacity="0" result="BackgroundImageFix"/>
<feBlend mode="normal" in="SourceGraphic" in2="BackgroundImageFix" result="shape"/>
<feGaussianBlur stdDeviation="4.68296" result="effect1_foregroundBlur_71_418"/>
</filter>
<filter id="filter20_f_71_418" x="158.059" y="252.562" width="39.2929" height="37.1163" filterUnits="userSpaceOnUse" color-interpolation-filters="sRGB">
<feFlood flood-opacity="0" result="BackgroundImageFix"/>
<feBlend mode="normal" in="SourceGraphic" in2="BackgroundImageFix" result="shape"/>
<feGaussianBlur stdDeviation="5.36139" result="effect1_foregroundBlur_71_418"/>
</filter>
<filter id="filter21_f_71_418" x="157.62" y="248.252" width="14.3353" height="26.4855" filterUnits="userSpaceOnUse" color-interpolation-filters="sRGB">
<feFlood flood-opacity="0" result="BackgroundImageFix"/>
<feBlend mode="normal" in="SourceGraphic" in2="BackgroundImageFix" result="shape"/>
<feGaussianBlur stdDeviation="1.77778" result="effect1_foregroundBlur_71_418"/>
</filter>
<filter id="filter22_f_71_418" x="102.225" y="258.332" width="88.1429" height="61.9591" filterUnits="userSpaceOnUse" color-interpolation-filters="sRGB">
<feFlood flood-opacity="0" result="BackgroundImageFix"/>
<feBlend mode="normal" in="SourceGraphic" in2="BackgroundImageFix" result="shape"/>
<feGaussianBlur stdDeviation="9.0776" result="effect1_foregroundBlur_71_418"/>
</filter>
<filter id="filter23_f_71_418" x="116.719" y="240.2" width="66.0441" height="49.4701" filterUnits="userSpaceOnUse" color-interpolation-filters="sRGB">
<feFlood flood-opacity="0" result="BackgroundImageFix"/>
<feBlend mode="normal" in="SourceGraphic" in2="BackgroundImageFix" result="shape"/>
<feGaussianBlur stdDeviation="6.60395" result="effect1_foregroundBlur_71_418"/>
</filter>
<filter id="filter24_f_71_418" x="99.566" y="238.561" width="47.1459" height="46.9572" filterUnits="userSpaceOnUse" color-interpolation-filters="sRGB">
<feFlood flood-opacity="0" result="BackgroundImageFix"/>
<feBlend mode="normal" in="SourceGraphic" in2="BackgroundImageFix" result="shape"/>
<feGaussianBlur stdDeviation="6.6402" result="effect1_foregroundBlur_71_418"/>
</filter>
<filter id="filter25_f_71_418" x="195.591" y="279.884" width="55.5105" height="36.0305" filterUnits="userSpaceOnUse" color-interpolation-filters="sRGB">
<feFlood flood-opacity="0" result="BackgroundImageFix"/>
<feBlend mode="normal" in="SourceGraphic" in2="BackgroundImageFix" result="shape"/>
<feGaussianBlur stdDeviation="5.38381" result="effect1_foregroundBlur_71_418"/>
</filter>
<filter id="filter26_f_71_418" x="201.18" y="293.108" width="44.09" height="24.1418" filterUnits="userSpaceOnUse" color-interpolation-filters="sRGB">
<feFlood flood-opacity="0" result="BackgroundImageFix"/>
<feBlend mode="normal" in="SourceGraphic" in2="BackgroundImageFix" result="shape"/>
<feGaussianBlur stdDeviation="2.96823" result="effect1_foregroundBlur_71_418"/>
</filter>
<filter id="filter27_f_71_418" x="216.058" y="261.058" width="23.2822" height="16.9191" filterUnits="userSpaceOnUse" color-interpolation-filters="sRGB">
<feFlood flood-opacity="0" result="BackgroundImageFix"/>
<feBlend mode="normal" in="SourceGraphic" in2="BackgroundImageFix" result="shape"/>
<feGaussianBlur stdDeviation="1.65062" result="effect1_foregroundBlur_71_418"/>
</filter>
<filter id="filter28_f_71_418" x="176.894" y="250.259" width="52.0601" height="39.3753" filterUnits="userSpaceOnUse" color-interpolation-filters="sRGB">
<feFlood flood-opacity="0" result="BackgroundImageFix"/>
<feBlend mode="normal" in="SourceGraphic" in2="BackgroundImageFix" result="shape"/>
<feGaussianBlur stdDeviation="4.98196" result="effect1_foregroundBlur_71_418"/>
</filter>
<filter id="filter29_f_71_418" x="213.623" y="257.435" width="13.574" height="23.7897" filterUnits="userSpaceOnUse" color-interpolation-filters="sRGB">
<feFlood flood-opacity="0" result="BackgroundImageFix"/>
<feBlend mode="normal" in="SourceGraphic" in2="BackgroundImageFix" result="shape"/>
<feGaussianBlur stdDeviation="1.86102" result="effect1_foregroundBlur_71_418"/>
</filter>
<filter id="filter30_f_71_418" x="173.311" y="267.32" width="64.8364" height="48.4316" filterUnits="userSpaceOnUse" color-interpolation-filters="sRGB">
<feFlood flood-opacity="0" result="BackgroundImageFix"/>
<feBlend mode="normal" in="SourceGraphic" in2="BackgroundImageFix" result="shape"/>
<feGaussianBlur stdDeviation="7.10278" result="effect1_foregroundBlur_71_418"/>
</filter>
<filter id="filter31_f_71_418" x="178.867" y="217.954" width="64.3491" height="65.4807" filterUnits="userSpaceOnUse" color-interpolation-filters="sRGB">
<feFlood flood-opacity="0" result="BackgroundImageFix"/>
<feBlend mode="normal" in="SourceGraphic" in2="BackgroundImageFix" result="shape"/>
<feGaussianBlur stdDeviation="12.1617" result="effect1_foregroundBlur_71_418"/>
</filter>
<filter id="filter32_f_71_418" x="208.875" y="213.559" width="28.7759" height="41.533" filterUnits="userSpaceOnUse" color-interpolation-filters="sRGB">
<feFlood flood-opacity="0" result="BackgroundImageFix"/>
<feBlend mode="normal" in="SourceGraphic" in2="BackgroundImageFix" result="shape"/>
<feGaussianBlur stdDeviation="1.08185" result="effect1_foregroundBlur_71_418"/>
</filter>
<filter id="filter33_f_71_418" x="105.443" y="193.025" width="63.1435" height="51.2688" filterUnits="userSpaceOnUse" color-interpolation-filters="sRGB">
<feFlood flood-opacity="0" result="BackgroundImageFix"/>
<feBlend mode="normal" in="SourceGraphic" in2="BackgroundImageFix" result="shape"/>
<feGaussianBlur stdDeviation="5.14275" result="effect1_foregroundBlur_71_418"/>
</filter>
<filter id="filter34_f_71_418" x="107.148" y="190.957" width="54.3758" height="32.6519" filterUnits="userSpaceOnUse" color-interpolation-filters="sRGB">
<feFlood flood-opacity="0" result="BackgroundImageFix"/>
<feBlend mode="normal" in="SourceGraphic" in2="BackgroundImageFix" result="shape"/>
<feGaussianBlur stdDeviation="3.28535" result="effect1_foregroundBlur_71_418"/>
</filter>
<filter id="filter35_f_71_418" x="129.073" y="230.735" width="8.7702" height="12.9447" filterUnits="userSpaceOnUse" color-interpolation-filters="sRGB">
<feFlood flood-opacity="0" result="BackgroundImageFix"/>
<feBlend mode="normal" in="SourceGraphic" in2="BackgroundImageFix" result="shape"/>
<feGaussianBlur stdDeviation="1.34258" result="effect1_foregroundBlur_71_418"/>
</filter>
<filter id="filter36_f_71_418" x="90.6968" y="220.067" width="44.0625" height="44.5034" filterUnits="userSpaceOnUse" color-interpolation-filters="sRGB">
<feFlood flood-opacity="0" result="BackgroundImageFix"/>
<feBlend mode="normal" in="SourceGraphic" in2="BackgroundImageFix" result="shape"/>
<feGaussianBlur stdDeviation="8.31358" result="effect1_foregroundBlur_71_418"/>
</filter>
<filter id="filter37_f_71_418" x="98.2579" y="231.464" width="21.0267" height="21.278" filterUnits="userSpaceOnUse" color-interpolation-filters="sRGB">
<feFlood flood-opacity="0" result="BackgroundImageFix"/>
<feBlend mode="normal" in="SourceGraphic" in2="BackgroundImageFix" result="shape"/>
<feGaussianBlur stdDeviation="1.67506" result="effect1_foregroundBlur_71_418"/>
</filter>
<filter id="filter38_f_71_418" x="63.2141" y="19.3723" width="125.324" height="207.603" filterUnits="userSpaceOnUse" color-interpolation-filters="sRGB">
<feFlood flood-opacity="0" result="BackgroundImageFix"/>
<feBlend mode="normal" in="SourceGraphic" in2="BackgroundImageFix" result="shape"/>
<feGaussianBlur stdDeviation="14.1543" result="effect1_foregroundBlur_71_418"/>
</filter>
<filter id="filter39_f_71_418" x="209.343" y="88.5787" width="106.549" height="139.655" filterUnits="userSpaceOnUse" color-interpolation-filters="sRGB">
<feFlood flood-opacity="0" result="BackgroundImageFix"/>
<feBlend mode="normal" in="SourceGraphic" in2="BackgroundImageFix" result="shape"/>
<feGaussianBlur stdDeviation="13.4802" result="effect1_foregroundBlur_71_418"/>
</filter>
<filter id="filter40_f_71_418" x="175.061" y="0.0104542" width="74.1414" height="50.9605" filterUnits="userSpaceOnUse" color-interpolation-filters="sRGB">
<feFlood flood-opacity="0" result="BackgroundImageFix"/>
<feBlend mode="normal" in="SourceGraphic" in2="BackgroundImageFix" result="shape"/>
<feGaussianBlur stdDeviation="6.24825" result="effect1_foregroundBlur_71_418"/>
</filter>
<filter id="filter41_f_71_418" x="152.64" y="98.8168" width="78.2108" height="57.4313" filterUnits="userSpaceOnUse" color-interpolation-filters="sRGB">
<feFlood flood-opacity="0" result="BackgroundImageFix"/>
<feBlend mode="normal" in="SourceGraphic" in2="BackgroundImageFix" result="shape"/>
<feGaussianBlur stdDeviation="6.09701" result="effect1_foregroundBlur_71_418"/>
</filter>
<filter id="filter42_f_71_418" x="109.31" y="168.02" width="155.301" height="55.0929" filterUnits="userSpaceOnUse" color-interpolation-filters="sRGB">
<feFlood flood-opacity="0" result="BackgroundImageFix"/>
<feBlend mode="normal" in="SourceGraphic" in2="BackgroundImageFix" result="shape"/>
<feGaussianBlur stdDeviation="8.17864" result="effect1_foregroundBlur_71_418"/>
</filter>
<filter id="filter43_f_71_418" x="91.6967" y="69.7561" width="53.148" height="126.742" filterUnits="userSpaceOnUse" color-interpolation-filters="sRGB">
<feFlood flood-opacity="0" result="BackgroundImageFix"/>
<feBlend mode="normal" in="SourceGraphic" in2="BackgroundImageFix" result="shape"/>
<feGaussianBlur stdDeviation="5.68046" result="effect1_foregroundBlur_71_418"/>
</filter>
<filter id="filter44_f_71_418" x="191.979" y="138.424" width="75.8595" height="56.9055" filterUnits="userSpaceOnUse" color-interpolation-filters="sRGB">
<feFlood flood-opacity="0" result="BackgroundImageFix"/>
<feBlend mode="normal" in="SourceGraphic" in2="BackgroundImageFix" result="shape"/>
<feGaussianBlur stdDeviation="9.17472" result="effect1_foregroundBlur_71_418"/>
</filter>
<filter id="filter45_f_71_418" x="105.87" y="131.202" width="78.0498" height="56.4044" filterUnits="userSpaceOnUse" color-interpolation-filters="sRGB">
<feFlood flood-opacity="0" result="BackgroundImageFix"/>
<feBlend mode="normal" in="SourceGraphic" in2="BackgroundImageFix" result="shape"/>
<feGaussianBlur stdDeviation="9.30083" result="effect1_foregroundBlur_71_418"/>
</filter>
<filter id="filter46_f_71_418" x="143.935" y="118.981" width="100.076" height="72.6301" filterUnits="userSpaceOnUse" color-interpolation-filters="sRGB">
<feFlood flood-opacity="0" result="BackgroundImageFix"/>
<feBlend mode="normal" in="SourceGraphic" in2="BackgroundImageFix" result="shape"/>
<feGaussianBlur stdDeviation="12.5264" result="effect1_foregroundBlur_71_418"/>
</filter>
<filter id="filter47_f_71_418" x="183.829" y="145.284" width="14.3603" height="10.3761" filterUnits="userSpaceOnUse" color-interpolation-filters="sRGB">
<feFlood flood-opacity="0" result="BackgroundImageFix"/>
<feBlend mode="normal" in="SourceGraphic" in2="BackgroundImageFix" result="shape"/>
<feGaussianBlur stdDeviation="1.90868" result="effect1_foregroundBlur_71_418"/>
</filter>
<filter id="filter48_f_71_418" x="115.727" y="96.0754" width="56.4774" height="54.4103" filterUnits="userSpaceOnUse" color-interpolation-filters="sRGB">
<feFlood flood-opacity="0" result="BackgroundImageFix"/>
<feBlend mode="normal" in="SourceGraphic" in2="BackgroundImageFix" result="shape"/>
<feGaussianBlur stdDeviation="0.146227" result="effect1_foregroundBlur_71_418"/>
</filter>
<filter id="filter49_f_71_418" x="114.074" y="95.228" width="61.4148" height="52.6472" filterUnits="userSpaceOnUse" color-interpolation-filters="sRGB">
<feFlood flood-opacity="0" result="BackgroundImageFix"/>
<feBlend mode="normal" in="SourceGraphic" in2="BackgroundImageFix" result="shape"/>
<feGaussianBlur stdDeviation="1.88273" result="effect1_foregroundBlur_71_418"/>
</filter>
<filter id="filter50_f_71_418" x="120.569" y="101.792" width="51.6443" height="48.6906" filterUnits="userSpaceOnUse" color-interpolation-filters="sRGB">
<feFlood flood-opacity="0" result="BackgroundImageFix"/>
<feBlend mode="normal" in="SourceGraphic" in2="BackgroundImageFix" result="shape"/>
<feGaussianBlur stdDeviation="0.205658" result="effect1_foregroundBlur_71_418"/>
</filter>
<filter id="filter51_f_71_418" x="127.822" y="106.305" width="44.2698" height="43.8577" filterUnits="userSpaceOnUse" color-interpolation-filters="sRGB">
<feFlood flood-opacity="0" result="BackgroundImageFix"/>
<feBlend mode="normal" in="SourceGraphic" in2="BackgroundImageFix" result="shape"/>
<feGaussianBlur stdDeviation="0.144483" result="effect1_foregroundBlur_71_418"/>
</filter>
<filter id="filter52_f_71_418" x="135.209" y="113.869" width="29.5009" height="28.7306" filterUnits="userSpaceOnUse" color-interpolation-filters="sRGB">
<feFlood flood-opacity="0" result="BackgroundImageFix"/>
<feBlend mode="normal" in="SourceGraphic" in2="BackgroundImageFix" result="shape"/>
<feGaussianBlur stdDeviation="1.17846" result="effect1_foregroundBlur_71_418"/>
</filter>
<filter id="filter53_f_71_418" x="116.006" y="94.7046" width="67.4294" height="49.9607" filterUnits="userSpaceOnUse" color-interpolation-filters="sRGB">
<feFlood flood-opacity="0" result="BackgroundImageFix"/>
<feBlend mode="normal" in="SourceGraphic" in2="BackgroundImageFix" result="shape"/>
<feGaussianBlur stdDeviation="6.09592" result="effect1_foregroundBlur_71_418"/>
</filter>
<filter id="filter54_f_71_418" x="149.337" y="112.704" width="12.8368" height="12.8368" filterUnits="userSpaceOnUse" color-interpolation-filters="sRGB">
<feFlood flood-opacity="0" result="BackgroundImageFix"/>
<feBlend mode="normal" in="SourceGraphic" in2="BackgroundImageFix" result="shape"/>
<feGaussianBlur stdDeviation="1.18231" result="effect1_foregroundBlur_71_418"/>
</filter>
<filter id="filter55_f_71_418" x="209.898" y="105.343" width="56.6603" height="54.8915" filterUnits="userSpaceOnUse" color-interpolation-filters="sRGB">
<feFlood flood-opacity="0" result="BackgroundImageFix"/>
<feBlend mode="normal" in="SourceGraphic" in2="BackgroundImageFix" result="shape"/>
<feGaussianBlur stdDeviation="0.146437" result="effect1_foregroundBlur_71_418"/>
</filter>
<filter id="filter56_f_71_418" x="206.36" y="104.271" width="61.9824" height="54.3892" filterUnits="userSpaceOnUse" color-interpolation-filters="sRGB">
<feFlood flood-opacity="0" result="BackgroundImageFix"/>
<feBlend mode="normal" in="SourceGraphic" in2="BackgroundImageFix" result="shape"/>
<feGaussianBlur stdDeviation="1.88543" result="effect1_foregroundBlur_71_418"/>
</filter>
<filter id="filter57_f_71_418" x="209.593" y="110.46" width="51.441" height="49.9779" filterUnits="userSpaceOnUse" color-interpolation-filters="sRGB">
<feFlood flood-opacity="0" result="BackgroundImageFix"/>
<feBlend mode="normal" in="SourceGraphic" in2="BackgroundImageFix" result="shape"/>
<feGaussianBlur stdDeviation="0.205953" result="effect1_foregroundBlur_71_418"/>
</filter>
<filter id="filter58_f_71_418" x="209.73" y="114.582" width="44.3897" height="43.8775" filterUnits="userSpaceOnUse" color-interpolation-filters="sRGB">
<feFlood flood-opacity="0" result="BackgroundImageFix"/>
<feBlend mode="normal" in="SourceGraphic" in2="BackgroundImageFix" result="shape"/>
<feGaussianBlur stdDeviation="0.144691" result="effect1_foregroundBlur_71_418"/>
</filter>
<filter id="filter59_f_71_418" x="217.144" y="122.139" width="29.5629" height="28.761" filterUnits="userSpaceOnUse" color-interpolation-filters="sRGB">
<feFlood flood-opacity="0" result="BackgroundImageFix"/>
<feBlend mode="normal" in="SourceGraphic" in2="BackgroundImageFix" result="shape"/>
<feGaussianBlur stdDeviation="1.18015" result="effect1_foregroundBlur_71_418"/>
</filter>
<filter id="filter60_f_71_418" x="197.031" y="102.173" width="69.8104" height="54.4026" filterUnits="userSpaceOnUse" color-interpolation-filters="sRGB">
<feFlood flood-opacity="0" result="BackgroundImageFix"/>
<feBlend mode="normal" in="SourceGraphic" in2="BackgroundImageFix" result="shape"/>
<feGaussianBlur stdDeviation="6.42922" result="effect1_foregroundBlur_71_418"/>
</filter>
<filter id="filter61_f_71_418" x="231.102" y="119.825" width="12.8675" height="12.8452" filterUnits="userSpaceOnUse" color-interpolation-filters="sRGB">
<feFlood flood-opacity="0" result="BackgroundImageFix"/>
<feBlend mode="normal" in="SourceGraphic" in2="BackgroundImageFix" result="shape"/>
<feGaussianBlur stdDeviation="1.18401" result="effect1_foregroundBlur_71_418"/>
</filter>
<filter id="filter62_f_71_418" x="161.118" y="163.578" width="52.4749" height="34.4106" filterUnits="userSpaceOnUse" color-interpolation-filters="sRGB">
<feFlood flood-opacity="0" result="BackgroundImageFix"/>
<feBlend mode="normal" in="SourceGraphic" in2="BackgroundImageFix" result="shape"/>
<feGaussianBlur stdDeviation="2.60694" result="effect1_foregroundBlur_71_418"/>
</filter>
<filter id="filter63_f_71_418" x="163.512" y="159.443" width="47.8425" height="21.9034" filterUnits="userSpaceOnUse" color-interpolation-filters="sRGB">
<feFlood flood-opacity="0" result="BackgroundImageFix"/>
<feBlend mode="normal" in="SourceGraphic" in2="BackgroundImageFix" result="shape"/>
<feGaussianBlur stdDeviation="2.09268" result="effect1_foregroundBlur_71_418"/>
</filter>
<filter id="filter64_f_71_418" x="167.282" y="162.564" width="40.1703" height="29.0845" filterUnits="userSpaceOnUse" color-interpolation-filters="sRGB">
<feFlood flood-opacity="0" result="BackgroundImageFix"/>
<feBlend mode="normal" in="SourceGraphic" in2="BackgroundImageFix" result="shape"/>
<feGaussianBlur stdDeviation="0.141214" result="effect1_foregroundBlur_71_418"/>
</filter>
<filter id="filter65_f_71_418" x="171.246" y="175.517" width="30.2951" height="19.5727" filterUnits="userSpaceOnUse" color-interpolation-filters="sRGB">
<feFlood flood-opacity="0" result="BackgroundImageFix"/>
<feBlend mode="normal" in="SourceGraphic" in2="BackgroundImageFix" result="shape"/>
<feGaussianBlur stdDeviation="2.50594" result="effect1_foregroundBlur_71_418"/>
</filter>
<filter id="filter66_f_71_418" x="162.219" y="157.883" width="50.0501" height="30.2031" filterUnits="userSpaceOnUse" color-interpolation-filters="sRGB">
<feFlood flood-opacity="0" result="BackgroundImageFix"/>
<feBlend mode="normal" in="SourceGraphic" in2="BackgroundImageFix" result="shape"/>
<feGaussianBlur stdDeviation="2.61907" result="effect1_foregroundBlur_71_418"/>
</filter>
</defs>
</svg>
