<svg width="126" height="25" viewBox="0 0 126 25" fill="none" xmlns="http://www.w3.org/2000/svg">
<g clip-path="url(#clip0_56_385)">
<path d="M17.2577 22.0516H15.2552V21.6766C15.2552 21.3451 15.1235 21.0272 14.8891 20.7927C14.6547 20.5583 14.3367 20.4266 14.0052 20.4266H12.9327L11.8019 18.8808C13.2001 18.487 14.4317 17.6477 15.3097 16.4904C16.1876 15.3331 16.664 13.9209 16.6664 12.4683C16.6664 12.3578 16.6225 12.2518 16.5444 12.1737C16.4663 12.0955 16.3603 12.0516 16.2498 12.0516H14.5831V7.46828C14.5831 6.25271 14.1002 5.08692 13.2407 4.22738C12.3811 3.36783 11.2154 2.88495 9.99978 2.88495C8.7842 2.88495 7.61841 3.36783 6.75887 4.22738C5.89933 5.08692 5.41645 6.25271 5.41645 7.46828V12.0516H3.74978C3.63927 12.0516 3.53329 12.0955 3.45515 12.1737C3.37701 12.2518 3.33311 12.3578 3.33311 12.4683C3.33558 13.9209 3.81195 15.3331 4.68991 16.4904C5.56786 17.6477 6.79944 18.487 8.1977 18.8808L7.06686 20.4266H5.99436C5.66284 20.4266 5.3449 20.5583 5.11048 20.7927C4.87606 21.0272 4.74436 21.3451 4.74436 21.6766V22.0516H2.74186C2.63136 22.0516 2.52537 22.0955 2.44723 22.1737C2.36909 22.2518 2.3252 22.3578 2.3252 22.4683C2.3252 22.5788 2.36909 22.6848 2.44723 22.7629C2.52537 22.841 2.63136 22.8849 2.74186 22.8849H17.2577C17.3682 22.8849 17.4742 22.841 17.5523 22.7629C17.6305 22.6848 17.6744 22.5788 17.6744 22.4683C17.6744 22.3578 17.6305 22.2518 17.5523 22.1737C17.4742 22.0955 17.3682 22.0516 17.2577 22.0516ZM9.99978 3.71828C10.994 3.71938 11.9472 4.11483 12.6502 4.81785C13.3532 5.52087 13.7487 6.47406 13.7498 7.46828H12.0831C11.9726 7.46828 11.8666 7.51218 11.7885 7.59032C11.7103 7.66846 11.6664 7.77444 11.6664 7.88495C11.6664 7.99546 11.7103 8.10144 11.7885 8.17958C11.8666 8.25772 11.9726 8.30162 12.0831 8.30162H13.7498V9.13495H12.0831C11.9726 9.13495 11.8666 9.17885 11.7885 9.25699C11.7103 9.33513 11.6664 9.44111 11.6664 9.55162C11.6664 9.66212 11.7103 9.7681 11.7885 9.84624C11.8666 9.92438 11.9726 9.96828 12.0831 9.96828H13.7498V10.8016H12.0831C11.9726 10.8016 11.8666 10.8455 11.7885 10.9237C11.7103 11.0018 11.6664 11.1078 11.6664 11.2183C11.6664 11.3288 11.7103 11.4348 11.7885 11.5129C11.8666 11.5911 11.9726 11.6349 12.0831 11.6349H13.7498V12.4683H12.0831C11.9726 12.4683 11.8666 12.5122 11.7885 12.5903C11.7103 12.6685 11.6664 12.7744 11.6664 12.8849C11.6664 12.9955 11.7103 13.1014 11.7885 13.1796C11.8666 13.2577 11.9726 13.3016 12.0831 13.3016H13.7252C13.62 14.2159 13.1822 15.0596 12.4953 15.672C11.8083 16.2845 10.9201 16.6229 9.99978 16.6229C9.07945 16.6229 8.19125 16.2845 7.50429 15.672C6.81733 15.0596 6.37957 14.2159 6.27436 13.3016H7.91645C8.02695 13.3016 8.13293 13.2577 8.21107 13.1796C8.28921 13.1014 8.33311 12.9955 8.33311 12.8849C8.33311 12.7744 8.28921 12.6685 8.21107 12.5903C8.13293 12.5122 8.02695 12.4683 7.91645 12.4683H6.24978V11.6349H7.91645C8.02695 11.6349 8.13293 11.5911 8.21107 11.5129C8.28921 11.4348 8.33311 11.3288 8.33311 11.2183C8.33311 11.1078 8.28921 11.0018 8.21107 10.9237C8.13293 10.8455 8.02695 10.8016 7.91645 10.8016H6.24978V9.96828H7.91645C8.02695 9.96828 8.13293 9.92438 8.21107 9.84624C8.28921 9.7681 8.33311 9.66212 8.33311 9.55162C8.33311 9.44111 8.28921 9.33513 8.21107 9.25699C8.13293 9.17885 8.02695 9.13495 7.91645 9.13495H6.24978V8.30162H7.91645C8.02695 8.30162 8.13293 8.25772 8.21107 8.17958C8.28921 8.10144 8.33311 7.99546 8.33311 7.88495C8.33311 7.77444 8.28921 7.66846 8.21107 7.59032C8.13293 7.51218 8.02695 7.46828 7.91645 7.46828H6.24978C6.25088 6.47406 6.64632 5.52087 7.34935 4.81785C8.05237 4.11483 9.00556 3.71938 9.99978 3.71828ZM4.18103 12.8849H5.41645C5.41645 14.1005 5.89933 15.2663 6.75887 16.1259C7.61841 16.9854 8.7842 17.4683 9.99978 17.4683C11.2154 17.4683 12.3811 16.9854 13.2407 16.1259C14.1002 15.2663 14.5831 14.1005 14.5831 12.8849H15.8185C15.7142 14.357 15.0559 15.7348 13.9762 16.7408C12.8964 17.7467 11.4755 18.3061 9.99978 18.3061C8.52404 18.3061 7.10315 17.7467 6.0234 16.7408C4.94366 15.7348 4.28531 14.357 4.18103 12.8849ZM9.04436 19.1349H10.9552L11.9002 20.4266H8.09936L9.04436 19.1349ZM5.5777 22.0516V21.6766C5.5777 21.5661 5.62159 21.4601 5.69973 21.382C5.77787 21.3038 5.88386 21.2599 5.99436 21.2599H14.0052C14.1157 21.2599 14.2217 21.3038 14.2998 21.382C14.378 21.4601 14.4219 21.5661 14.4219 21.6766V22.0516H5.5777Z" fill="#1A1A1A"/>
<path d="M10.2212 5.39706C10.5386 5.43243 10.8437 5.53982 11.1133 5.71103C11.3828 5.88224 11.6097 6.11275 11.7767 6.38497C11.8344 6.47929 11.9271 6.54683 12.0346 6.57273C12.1421 6.59864 12.2555 6.58078 12.3498 6.5231C12.4441 6.46541 12.5116 6.37262 12.5376 6.26514C12.5635 6.15766 12.5456 6.04429 12.4879 5.94997C12.2539 5.56899 11.936 5.24648 11.5584 5.00703C11.1808 4.76758 10.7536 4.61753 10.3092 4.56831C10.1993 4.55665 10.0892 4.58912 10.0033 4.65859C9.91733 4.72806 9.86249 4.82882 9.85083 4.93872C9.83917 5.04862 9.87165 5.15865 9.94112 5.2446C10.0106 5.33056 10.1114 5.3854 10.2212 5.39706ZM16.25 10.385C16.3605 10.385 16.4665 10.3411 16.5446 10.2629C16.6228 10.1848 16.6667 10.0788 16.6667 9.96831V5.80164C16.6667 5.69113 16.6228 5.58515 16.5446 5.50701C16.4665 5.42887 16.3605 5.38497 16.25 5.38497C16.1395 5.38497 16.0335 5.42887 15.9554 5.50701C15.8772 5.58515 15.8333 5.69113 15.8333 5.80164V9.96831C15.8333 10.0788 15.8772 10.1848 15.9554 10.2629C16.0335 10.3411 16.1395 10.385 16.25 10.385ZM17.9167 6.21831C17.8062 6.21831 17.7002 6.2622 17.622 6.34034C17.5439 6.41848 17.5 6.52447 17.5 6.63497V9.13497C17.5 9.24548 17.5439 9.35146 17.622 9.4296C17.7002 9.50774 17.8062 9.55164 17.9167 9.55164C18.0272 9.55164 18.1332 9.50774 18.2113 9.4296C18.2894 9.35146 18.3333 9.24548 18.3333 9.13497V6.63497C18.3333 6.52447 18.2894 6.41848 18.2113 6.34034C18.1332 6.2622 18.0272 6.21831 17.9167 6.21831ZM19.5833 7.05164C19.4728 7.05164 19.3668 7.09554 19.2887 7.17368C19.2106 7.25182 19.1667 7.3578 19.1667 7.46831V8.30164C19.1667 8.41215 19.2106 8.51813 19.2887 8.59627C19.3668 8.67441 19.4728 8.71831 19.5833 8.71831C19.6938 8.71831 19.7998 8.67441 19.878 8.59627C19.9561 8.51813 20 8.41215 20 8.30164V7.46831C20 7.3578 19.9561 7.25182 19.878 7.17368C19.7998 7.09554 19.6938 7.05164 19.5833 7.05164ZM3.75 10.385C3.86051 10.385 3.96649 10.3411 4.04463 10.2629C4.12277 10.1848 4.16667 10.0788 4.16667 9.96831V5.80164C4.16667 5.69113 4.12277 5.58515 4.04463 5.50701C3.96649 5.42887 3.86051 5.38497 3.75 5.38497C3.63949 5.38497 3.53351 5.42887 3.45537 5.50701C3.37723 5.58515 3.33333 5.69113 3.33333 5.80164V9.96831C3.33333 10.0788 3.37723 10.1848 3.45537 10.2629C3.53351 10.3411 3.63949 10.385 3.75 10.385ZM2.5 9.13497V6.63497C2.5 6.52447 2.4561 6.41848 2.37796 6.34034C2.29982 6.2622 2.19384 6.21831 2.08333 6.21831C1.97283 6.21831 1.86685 6.2622 1.78871 6.34034C1.71057 6.41848 1.66667 6.52447 1.66667 6.63497V9.13497C1.66667 9.24548 1.71057 9.35146 1.78871 9.4296C1.86685 9.50774 1.97283 9.55164 2.08333 9.55164C2.19384 9.55164 2.29982 9.50774 2.37796 9.4296C2.4561 9.35146 2.5 9.24548 2.5 9.13497ZM0.416667 7.05164C0.30616 7.05164 0.200179 7.09554 0.122039 7.17368C0.0438987 7.25182 0 7.3578 0 7.46831L0 8.30164C0 8.41215 0.0438987 8.51813 0.122039 8.59627C0.200179 8.67441 0.30616 8.71831 0.416667 8.71831C0.527174 8.71831 0.633154 8.67441 0.711294 8.59627C0.789435 8.51813 0.833333 8.41215 0.833333 8.30164V7.46831C0.833333 7.3578 0.789435 7.25182 0.711294 7.17368C0.633154 7.09554 0.527174 7.05164 0.416667 7.05164Z" fill="#1A1A1A"/>
</g>
<path d="M30.2614 18.8849H28.3977L32.5852 7.24858H34.6136L38.8011 18.8849H36.9375L33.6477 9.36222H33.5568L30.2614 18.8849ZM30.5739 14.3281H36.6193V15.8054H30.5739V14.3281ZM45.8736 15.2656V10.1577H47.5781V18.8849H45.9077V17.3736H45.8168C45.616 17.8395 45.294 18.2278 44.8509 18.5384C44.4115 18.8452 43.8641 18.9986 43.2088 18.9986C42.6482 18.9986 42.152 18.8755 41.7202 18.6293C41.2921 18.3793 40.955 18.0099 40.7088 17.5213C40.4664 17.0327 40.3452 16.4285 40.3452 15.7088V10.1577H42.044V15.5043C42.044 16.099 42.2088 16.5724 42.5384 16.9247C42.8679 17.277 43.2959 17.4531 43.8224 17.4531C44.1406 17.4531 44.4569 17.3736 44.7713 17.2145C45.0895 17.0554 45.3527 16.8149 45.5611 16.4929C45.7732 16.1709 45.8774 15.7618 45.8736 15.2656ZM53.1278 19.0554C52.4233 19.0554 51.7945 18.8755 51.2415 18.5156C50.6922 18.152 50.2604 17.6349 49.946 16.9645C49.6354 16.2903 49.4801 15.4815 49.4801 14.5384C49.4801 13.5952 49.6373 12.7884 49.9517 12.1179C50.2699 11.4474 50.7055 10.9342 51.2585 10.5781C51.8116 10.2221 52.4384 10.044 53.1392 10.044C53.6809 10.044 54.1165 10.1349 54.446 10.3168C54.7794 10.4948 55.0369 10.7031 55.2188 10.9418C55.4044 11.1804 55.5483 11.3906 55.6506 11.5724H55.7528V7.24858H57.4517V18.8849H55.7926V17.527H55.6506C55.5483 17.7126 55.4006 17.9247 55.2074 18.1634C55.018 18.402 54.7566 18.6103 54.4233 18.7884C54.09 18.9664 53.6581 19.0554 53.1278 19.0554ZM53.5028 17.6065C53.9915 17.6065 54.4044 17.4778 54.7415 17.2202C55.0824 16.9588 55.34 16.5971 55.5142 16.1349C55.6922 15.6728 55.7812 15.1349 55.7812 14.5213C55.7812 13.9153 55.6941 13.3849 55.5199 12.9304C55.3456 12.4759 55.09 12.1217 54.7528 11.8679C54.4157 11.6141 53.9991 11.4872 53.5028 11.4872C52.9915 11.4872 52.5653 11.6198 52.2244 11.8849C51.8835 12.1501 51.6259 12.5118 51.4517 12.9702C51.2813 13.4285 51.196 13.9456 51.196 14.5213C51.196 15.1046 51.2831 15.6293 51.4574 16.0952C51.6316 16.5611 51.8892 16.9304 52.2301 17.2031C52.5748 17.4721 52.9991 17.6065 53.5028 17.6065ZM59.8764 18.8849V10.1577H61.5753V18.8849H59.8764ZM60.7344 8.81108C60.4389 8.81108 60.1851 8.7126 59.973 8.51563C59.7647 8.31487 59.6605 8.07624 59.6605 7.79972C59.6605 7.51942 59.7647 7.28078 59.973 7.08381C60.1851 6.88305 60.4389 6.78268 60.7344 6.78268C61.0298 6.78268 61.2817 6.88305 61.4901 7.08381C61.7022 7.28078 61.8082 7.51942 61.8082 7.79972C61.8082 8.07624 61.7022 8.31487 61.4901 8.51563C61.2817 8.7126 61.0298 8.81108 60.7344 8.81108ZM67.5369 19.0611C66.7188 19.0611 66.0047 18.8736 65.3949 18.4986C64.785 18.1236 64.3116 17.599 63.9744 16.9247C63.6373 16.2505 63.4688 15.4626 63.4688 14.5611C63.4688 13.6558 63.6373 12.8641 63.9744 12.1861C64.3116 11.5081 64.785 10.9815 65.3949 10.6065C66.0047 10.2315 66.7188 10.044 67.5369 10.044C68.3551 10.044 69.0691 10.2315 69.679 10.6065C70.2888 10.9815 70.7623 11.5081 71.0994 12.1861C71.4366 12.8641 71.6051 13.6558 71.6051 14.5611C71.6051 15.4626 71.4366 16.2505 71.0994 16.9247C70.7623 17.599 70.2888 18.1236 69.679 18.4986C69.0691 18.8736 68.3551 19.0611 67.5369 19.0611ZM67.5426 17.6349C68.0729 17.6349 68.5123 17.4948 68.8608 17.2145C69.2093 16.9342 69.4669 16.5611 69.6335 16.0952C69.804 15.6293 69.8892 15.116 69.8892 14.5554C69.8892 13.9986 69.804 13.4872 69.6335 13.0213C69.4669 12.5516 69.2093 12.1747 68.8608 11.8906C68.5123 11.6065 68.0729 11.4645 67.5426 11.4645C67.0085 11.4645 66.5653 11.6065 66.2131 11.8906C65.8646 12.1747 65.6051 12.5516 65.4347 13.0213C65.268 13.4872 65.1847 13.9986 65.1847 14.5554C65.1847 15.116 65.268 15.6293 65.4347 16.0952C65.6051 16.5611 65.8646 16.9342 66.2131 17.2145C66.5653 17.4948 67.0085 17.6349 67.5426 17.6349ZM78.8551 18.8849H76.9915L81.179 7.24858H83.2074L87.3949 18.8849H85.5312L82.2415 9.36222H82.1506L78.8551 18.8849ZM79.1676 14.3281H85.2131V15.8054H79.1676V14.3281ZM92.4744 19.0611C91.6297 19.0611 90.9025 18.8698 90.2926 18.4872C89.6866 18.1009 89.2206 17.5687 88.8949 16.8906C88.5691 16.2126 88.4062 15.4361 88.4062 14.5611C88.4062 13.6747 88.5729 12.8925 88.9062 12.2145C89.2396 11.5327 89.7093 11.0005 90.3153 10.6179C90.9214 10.2353 91.6354 10.044 92.4574 10.044C93.1203 10.044 93.7112 10.1671 94.2301 10.4134C94.7491 10.6558 95.1676 10.9967 95.4858 11.4361C95.8078 11.8755 95.9991 12.3887 96.0597 12.9759H94.4062C94.3153 12.5668 94.107 12.2145 93.7812 11.919C93.4593 11.6236 93.0275 11.4759 92.4858 11.4759C92.0123 11.4759 91.5975 11.6009 91.2415 11.8509C90.8892 12.0971 90.6146 12.4493 90.4176 12.9077C90.2206 13.3622 90.1222 13.9001 90.1222 14.5213C90.1222 15.1577 90.2188 15.7069 90.4119 16.169C90.6051 16.6312 90.8778 16.9891 91.2301 17.2429C91.5862 17.4967 92.0047 17.6236 92.4858 17.6236C92.8078 17.6236 93.0994 17.5649 93.3608 17.4474C93.6259 17.3262 93.8475 17.1539 94.0256 16.9304C94.2074 16.7069 94.3343 16.438 94.4062 16.1236H96.0597C95.9991 16.688 95.8153 17.1918 95.5085 17.6349C95.2017 18.0781 94.7907 18.4266 94.2756 18.6804C93.7642 18.9342 93.1638 19.0611 92.4744 19.0611ZM101.95 10.1577V11.5213H97.1832V10.1577H101.95ZM98.4616 8.06677H100.161V16.3224C100.161 16.652 100.21 16.9001 100.308 17.0668C100.407 17.2296 100.534 17.3414 100.689 17.402C100.848 17.4588 101.02 17.4872 101.206 17.4872C101.342 17.4872 101.462 17.4778 101.564 17.4588C101.666 17.4399 101.746 17.4247 101.803 17.4134L102.109 18.8168C102.011 18.8546 101.871 18.8925 101.689 18.9304C101.507 18.9721 101.28 18.9948 101.007 18.9986C100.56 19.0062 100.143 18.9266 99.7571 18.7599C99.3707 18.5933 99.0582 18.3357 98.8196 17.9872C98.581 17.6387 98.4616 17.2012 98.4616 16.6747V8.06677ZM103.83 18.8849V10.1577H105.528V18.8849H103.83ZM104.688 8.81108C104.392 8.81108 104.138 8.7126 103.926 8.51563C103.718 8.31487 103.614 8.07624 103.614 7.79972C103.614 7.51942 103.718 7.28078 103.926 7.08381C104.138 6.88305 104.392 6.78268 104.688 6.78268C104.983 6.78268 105.235 6.88305 105.443 7.08381C105.655 7.28078 105.761 7.51942 105.761 7.79972C105.761 8.07624 105.655 8.31487 105.443 8.51563C105.235 8.7126 104.983 8.81108 104.688 8.81108ZM111.49 19.0611C110.672 19.0611 109.958 18.8736 109.348 18.4986C108.738 18.1236 108.265 17.599 107.928 16.9247C107.59 16.2505 107.422 15.4626 107.422 14.5611C107.422 13.6558 107.59 12.8641 107.928 12.1861C108.265 11.5081 108.738 10.9815 109.348 10.6065C109.958 10.2315 110.672 10.044 111.49 10.044C112.308 10.044 113.022 10.2315 113.632 10.6065C114.242 10.9815 114.715 11.5081 115.053 12.1861C115.39 12.8641 115.558 13.6558 115.558 14.5611C115.558 15.4626 115.39 16.2505 115.053 16.9247C114.715 17.599 114.242 18.1236 113.632 18.4986C113.022 18.8736 112.308 19.0611 111.49 19.0611ZM111.496 17.6349C112.026 17.6349 112.465 17.4948 112.814 17.2145C113.162 16.9342 113.42 16.5611 113.587 16.0952C113.757 15.6293 113.842 15.116 113.842 14.5554C113.842 13.9986 113.757 13.4872 113.587 13.0213C113.42 12.5516 113.162 12.1747 112.814 11.8906C112.465 11.6065 112.026 11.4645 111.496 11.4645C110.962 11.4645 110.518 11.6065 110.166 11.8906C109.818 12.1747 109.558 12.5516 109.388 13.0213C109.221 13.4872 109.138 13.9986 109.138 14.5554C109.138 15.116 109.221 15.6293 109.388 16.0952C109.558 16.5611 109.818 16.9342 110.166 17.2145C110.518 17.4948 110.962 17.6349 111.496 17.6349ZM119.153 13.7031V18.8849H117.455V10.1577H119.085V11.5781H119.193C119.394 11.116 119.708 10.7448 120.136 10.4645C120.568 10.1842 121.112 10.044 121.767 10.044C122.362 10.044 122.883 10.169 123.33 10.419C123.777 10.6653 124.123 11.0327 124.369 11.5213C124.616 12.0099 124.739 12.6141 124.739 13.3338V18.8849H123.04V13.5384C123.04 12.9058 122.875 12.4115 122.545 12.0554C122.216 11.6956 121.763 11.5156 121.188 11.5156C120.794 11.5156 120.443 11.6009 120.136 11.7713C119.833 11.9418 119.593 12.1918 119.415 12.5213C119.241 12.8471 119.153 13.241 119.153 13.7031Z" fill="#1A1A1A"/>
<defs>
<clipPath id="clip0_56_385">
<rect width="20" height="20" fill="white" transform="translate(0 2.88495)"/>
</clipPath>
</defs>
</svg>
