<svg width="95" height="25" viewBox="0 0 95 25" fill="none" xmlns="http://www.w3.org/2000/svg">
<g clip-path="url(#clip0_56_365)">
<path d="M4.72658 9.2694C3.80983 9.2694 3.06407 10.0152 3.06407 10.9319C3.06407 11.8487 3.80983 12.5944 4.72658 12.5944C5.64351 12.5944 6.3891 11.8487 6.3891 10.9319C6.3891 10.0152 5.64351 9.2694 4.72658 9.2694ZM4.72658 11.6132C4.35107 11.6132 4.04533 11.3074 4.04533 10.9319C4.04533 10.5564 4.35107 10.2507 4.72658 10.2507C5.10224 10.2507 5.40784 10.5564 5.40784 10.9319C5.40784 11.3074 5.10224 11.6132 4.72658 11.6132ZM10.686 8.97877C10.686 8.06202 9.94041 7.31626 9.02349 7.31626C8.10673 7.31626 7.36098 8.06201 7.36098 8.97877C7.36098 9.89553 8.10673 10.6413 9.02349 10.6413C9.94041 10.6413 10.686 9.89552 10.686 8.97877ZM8.34224 8.97877C8.34224 8.60325 8.64798 8.29752 9.02349 8.29752C9.39915 8.29752 9.70475 8.60324 9.70475 8.97877C9.70475 9.3543 9.39915 9.66003 9.02349 9.66003C8.64798 9.66003 8.34224 9.35429 8.34224 8.97877ZM1.89219 15.6194C1.89219 16.5362 2.63794 17.282 3.5547 17.282C4.47162 17.282 5.21721 16.5362 5.21721 15.6194C5.21721 14.7027 4.47162 13.9569 3.5547 13.9569C2.63794 13.9569 1.89219 14.7027 1.89219 15.6194ZM3.5547 14.9382C3.93036 14.9382 4.23596 15.2439 4.23596 15.6194C4.23596 15.995 3.93036 16.3007 3.5547 16.3007C3.17918 16.3007 2.87344 15.995 2.87344 15.6194C2.87344 15.2439 3.17918 14.9382 3.5547 14.9382ZM5.40784 18.7445C5.40784 19.6612 6.15359 20.407 7.07035 20.407C7.98727 20.407 8.73286 19.6612 8.73286 18.7445C8.73286 17.8277 7.98727 17.082 7.07035 17.082C6.15359 17.082 5.40784 17.8277 5.40784 18.7445ZM7.75161 18.7445C7.75161 19.12 7.44601 19.4257 7.07035 19.4257C6.69484 19.4257 6.3891 19.12 6.3891 18.7445C6.3891 18.369 6.69484 18.0632 7.07035 18.0632C7.44601 18.0632 7.75161 18.3689 7.75161 18.7445Z" fill="#1A1A1A" stroke="#1A1A1A" stroke-width="0.2"/>
<path d="M0.186413 12.0044C0.121786 12.2678 0.283063 12.5333 0.54616 12.5977L0.54626 12.5977C0.585338 12.6072 0.62458 12.6118 0.663184 12.6118C0.883916 12.6118 1.08465 12.4619 1.1395 12.2377L1.04237 12.2139L1.1395 12.2377C1.68729 9.99971 3.25712 8.07068 5.33741 7.07917M0.186413 12.0044L0.283532 12.0283L0.1864 12.0045C0.186405 12.0045 0.186409 12.0045 0.186413 12.0044ZM0.186413 12.0044C0.832316 9.36597 2.65495 7.27074 4.91523 6.19343L4.95826 6.2837L4.91523 6.19342C7.15784 5.12461 9.70564 5.08386 12.1528 6.05893C12.3038 5.53973 12.6177 4.89438 12.924 4.33015C13.2537 3.72278 13.5797 3.20015 13.6988 3.01263C13.7431 2.9429 13.8043 2.88549 13.8767 2.84571C13.9491 2.80593 14.0304 2.78507 14.113 2.78507C14.1956 2.78507 14.2769 2.80593 14.3492 2.84571C14.4216 2.88549 14.4828 2.9429 14.5271 3.01263C14.6633 3.22707 15.0709 3.88088 15.4448 4.59843C15.6317 4.95712 15.8111 5.33348 15.944 5.67989C16.0758 6.02351 16.1662 6.34823 16.1662 6.59991C16.1662 7.10046 15.9834 7.58246 15.6542 7.95623C16.4158 8.56449 17.1176 9.32231 17.5507 10.1606C18.0008 11.0318 18.1627 11.9952 17.791 12.9635L17.791 12.9635C17.5136 13.6852 16.8034 14.1603 16.0224 14.1489L16.0222 14.1489C15.9337 14.1474 15.8459 14.1471 15.7589 14.1477C15.7623 14.3736 15.764 14.6042 15.764 14.8381C15.764 15.7838 15.7277 17.1582 15.617 18.5072C15.5066 19.8532 15.3215 21.1843 15.0205 22.0376C15.0205 22.0377 15.0205 22.0377 15.0205 22.0377L15.0197 22.0397C14.9774 22.16 14.8961 22.3906 14.7571 22.5918C14.6174 22.794 14.4061 22.985 14.1015 22.985C13.797 22.985 13.5858 22.794 13.4461 22.5918C13.3071 22.3905 13.2258 22.1598 13.1835 22.0396L13.1828 22.0377C12.8799 21.1791 12.6948 19.8385 12.5848 18.4892C12.4824 17.233 12.4444 15.9601 12.4396 15.0423C11.5481 15.7844 11.0059 16.9178 11.0899 18.2473L11.09 18.2484C11.1395 19.0294 11.234 20.5169 9.7553 21.806L9.68958 21.7307L9.75529 21.806C8.69155 22.7334 7.14643 22.9914 5.72419 22.4865C2.64546 21.3938 0.374429 18.6217 -0.00504827 15.2833L-0.00505399 15.2833C-0.0355162 15.014 0.157818 14.771 0.427103 14.7404L0.42722 14.7404C0.695742 14.7101 0.93941 14.9031 0.969889 15.1725C1.2999 18.0749 3.29498 20.5832 6.05234 21.5618L6.01889 21.656L6.05234 21.5618C7.14762 21.9506 8.31863 21.7568 9.11042 21.0664L9.17614 21.1418L9.11043 21.0664C9.66988 20.5788 9.92936 20.0701 10.0451 19.5967C10.1616 19.1204 10.134 18.6757 10.1107 18.3095L10.1107 18.3095C9.98719 16.357 10.9621 14.7166 12.4495 13.8399C12.4637 13.1752 12.4912 12.5328 12.5315 11.9266C12.6306 10.4364 12.803 9.18769 13.026 8.34152C12.5817 8.06379 12.2563 7.62297 12.1247 7.11156C9.82588 6.09526 7.42579 6.08395 5.33741 7.07917M5.33741 7.07917L5.29439 6.9889L5.33742 7.07917C5.33742 7.07917 5.33741 7.07917 5.33741 7.07917ZM16.0377 13.1679L16.0377 13.1679C16.4089 13.1741 16.7453 12.9488 16.8749 12.6118C17.2901 11.5302 16.7259 10.1743 15.3152 8.94932C15.4711 9.74022 15.5934 10.756 15.6708 11.9201L15.6709 11.9209L16.0377 13.1679ZM16.0377 13.1679C15.9366 13.1663 15.8355 13.1659 15.7344 13.1666C15.7194 12.7467 15.6986 12.3331 15.672 11.9322L16.0377 13.1679ZM14.1015 21.6953C13.9893 21.3837 13.8931 20.9735 13.8118 20.5005C13.7096 19.9067 13.632 19.2217 13.5739 18.5241C13.4577 17.129 13.4203 15.6889 13.4203 14.8382C13.4203 14.7296 13.4215 14.5553 13.4228 14.4077L13.4246 14.2185L13.4252 14.1608L13.4254 14.1452L13.4254 14.1412L13.4254 14.141L13.4254 14.1407L13.4254 14.1407L13.4254 14.1406L13.4255 14.1398C13.4339 13.5841 13.452 13.0436 13.4791 12.5256C13.6896 12.548 13.9012 12.5592 14.113 12.5592C14.3174 12.5592 14.5217 12.5487 14.7243 12.5279C14.7445 12.9168 14.7592 13.306 14.7686 13.6953L14.7686 13.6954C14.7781 14.061 14.7828 14.4454 14.7828 14.8382C14.7828 15.7154 14.7432 17.1602 14.6259 18.5511C14.5673 19.2465 14.4894 19.9271 14.3877 20.5158C14.3069 20.9833 14.2118 21.3881 14.1015 21.6953ZM13.4061 5.55148C13.6044 5.13183 13.8596 4.6587 14.113 4.22238C14.3663 4.6587 14.6215 5.13183 14.8199 5.55149C14.9303 5.78523 15.0224 6.00089 15.0867 6.18352C15.152 6.36913 15.1849 6.51055 15.1849 6.59991C15.1849 7.21982 14.6698 7.68552 14.0907 7.6726C13.5145 7.65959 13.0411 7.18931 13.0411 6.59991C13.0411 6.51055 13.074 6.36912 13.1393 6.18351C13.2036 6.00089 13.2957 5.78522 13.4061 5.55148ZM14.113 8.65305C14.1566 8.65305 14.2 8.65154 14.243 8.64872C14.418 9.33748 14.5647 10.3516 14.6598 11.5476C14.2887 11.5879 13.9143 11.5871 13.5434 11.5451C13.6385 10.3496 13.7854 9.33609 13.9606 8.6473C14.0111 8.65109 14.0619 8.65305 14.113 8.65305H14.113Z" fill="#1A1A1A" stroke="#1A1A1A" stroke-width="0.2"/>
<path d="M0.429688 14.1569C0.700704 14.1569 0.920313 13.9373 0.920313 13.6663C0.920313 13.3954 0.700704 13.1757 0.429688 13.1757C0.158854 13.1757 -0.0609375 13.3953 -0.0609375 13.6663C-0.0609375 13.9373 0.158854 14.1569 0.429688 14.1569Z" fill="#1A1A1A" stroke="#1A1A1A" stroke-width="0.2"/>
</g>
<path d="M38.9432 11.0327H37.1705C37.1023 10.6539 36.9754 10.3206 36.7898 10.0327C36.6042 9.7448 36.3769 9.50048 36.108 9.29972C35.839 9.09896 35.5379 8.94745 35.2045 8.84518C34.875 8.7429 34.5246 8.69177 34.1534 8.69177C33.483 8.69177 32.8826 8.86033 32.3523 9.19745C31.8258 9.53457 31.4091 10.0289 31.1023 10.6804C30.7992 11.3319 30.6477 12.1274 30.6477 13.0668C30.6477 14.0137 30.7992 14.813 31.1023 15.4645C31.4091 16.116 31.8277 16.6084 32.358 16.9418C32.8883 17.2751 33.4848 17.4418 34.1477 17.4418C34.5152 17.4418 34.8636 17.3925 35.1932 17.294C35.5265 17.1918 35.8277 17.0421 36.0966 16.8452C36.3655 16.6482 36.5928 16.4077 36.7784 16.1236C36.9678 15.8357 37.0985 15.5062 37.1705 15.1349L38.9432 15.1406C38.8485 15.7126 38.6648 16.2391 38.392 16.7202C38.1231 17.1974 37.7765 17.6103 37.3523 17.9588C36.9318 18.3035 36.4508 18.5706 35.9091 18.7599C35.3674 18.9493 34.7765 19.044 34.1364 19.044C33.1288 19.044 32.2311 18.8054 31.4432 18.3281C30.6553 17.8471 30.0341 17.1596 29.5795 16.2656C29.1288 15.3717 28.9034 14.3054 28.9034 13.0668C28.9034 11.8243 29.1307 10.7581 29.5852 9.8679C30.0398 8.97396 30.661 8.28836 31.4489 7.81108C32.2367 7.33002 33.1326 7.08949 34.1364 7.08949C34.7538 7.08949 35.3295 7.17851 35.8636 7.35654C36.4015 7.53078 36.8845 7.78836 37.3125 8.12927C37.7405 8.46639 38.0947 8.87927 38.375 9.3679C38.6553 9.85275 38.8447 10.4077 38.9432 11.0327ZM44.5838 19.0611C43.7656 19.0611 43.0516 18.8736 42.4418 18.4986C41.8319 18.1236 41.3584 17.599 41.0213 16.9247C40.6842 16.2505 40.5156 15.4626 40.5156 14.5611C40.5156 13.6558 40.6842 12.8641 41.0213 12.1861C41.3584 11.5081 41.8319 10.9815 42.4418 10.6065C43.0516 10.2315 43.7656 10.044 44.5838 10.044C45.402 10.044 46.116 10.2315 46.7259 10.6065C47.3357 10.9815 47.8092 11.5081 48.1463 12.1861C48.4834 12.8641 48.652 13.6558 48.652 14.5611C48.652 15.4626 48.4834 16.2505 48.1463 16.9247C47.8092 17.599 47.3357 18.1236 46.7259 18.4986C46.116 18.8736 45.402 19.0611 44.5838 19.0611ZM44.5895 17.6349C45.1198 17.6349 45.5592 17.4948 45.9077 17.2145C46.2562 16.9342 46.5137 16.5611 46.6804 16.0952C46.8509 15.6293 46.9361 15.116 46.9361 14.5554C46.9361 13.9986 46.8509 13.4872 46.6804 13.0213C46.5137 12.5516 46.2562 12.1747 45.9077 11.8906C45.5592 11.6065 45.1198 11.4645 44.5895 11.4645C44.0554 11.4645 43.6122 11.6065 43.2599 11.8906C42.9115 12.1747 42.652 12.5516 42.4815 13.0213C42.3149 13.4872 42.2315 13.9986 42.2315 14.5554C42.2315 15.116 42.3149 15.6293 42.4815 16.0952C42.652 16.5611 42.9115 16.9342 43.2599 17.2145C43.6122 17.4948 44.0554 17.6349 44.5895 17.6349ZM52.2472 7.24858V18.8849H50.5483V7.24858H52.2472ZM58.2088 19.0611C57.3906 19.0611 56.6766 18.8736 56.0668 18.4986C55.4569 18.1236 54.9834 17.599 54.6463 16.9247C54.3092 16.2505 54.1406 15.4626 54.1406 14.5611C54.1406 13.6558 54.3092 12.8641 54.6463 12.1861C54.9834 11.5081 55.4569 10.9815 56.0668 10.6065C56.6766 10.2315 57.3906 10.044 58.2088 10.044C59.027 10.044 59.741 10.2315 60.3509 10.6065C60.9607 10.9815 61.4342 11.5081 61.7713 12.1861C62.1084 12.8641 62.277 13.6558 62.277 14.5611C62.277 15.4626 62.1084 16.2505 61.7713 16.9247C61.4342 17.599 60.9607 18.1236 60.3509 18.4986C59.741 18.8736 59.027 19.0611 58.2088 19.0611ZM58.2145 17.6349C58.7448 17.6349 59.1842 17.4948 59.5327 17.2145C59.8812 16.9342 60.1387 16.5611 60.3054 16.0952C60.4759 15.6293 60.5611 15.116 60.5611 14.5554C60.5611 13.9986 60.4759 13.4872 60.3054 13.0213C60.1387 12.5516 59.8812 12.1747 59.5327 11.8906C59.1842 11.6065 58.7448 11.4645 58.2145 11.4645C57.6804 11.4645 57.2372 11.6065 56.8849 11.8906C56.5365 12.1747 56.277 12.5516 56.1065 13.0213C55.9399 13.4872 55.8565 13.9986 55.8565 14.5554C55.8565 15.116 55.9399 15.6293 56.1065 16.0952C56.277 16.5611 56.5365 16.9342 56.8849 17.2145C57.2372 17.4948 57.6804 17.6349 58.2145 17.6349ZM64.1733 18.8849V10.1577H65.8153V11.544H65.9062C66.0653 11.0743 66.3456 10.705 66.7472 10.4361C67.1525 10.1634 67.6108 10.027 68.1222 10.027C68.2282 10.027 68.3532 10.0308 68.4972 10.0384C68.6449 10.0459 68.7604 10.0554 68.8438 10.0668V11.6918C68.7756 11.6728 68.6544 11.652 68.4801 11.6293C68.3059 11.6028 68.1316 11.5895 67.9574 11.5895C67.5559 11.5895 67.1979 11.6747 66.8835 11.8452C66.5729 12.0118 66.3267 12.2448 66.1449 12.544C65.9631 12.8395 65.8722 13.1766 65.8722 13.5554V18.8849H64.1733ZM74.6847 18.8849V7.24858H81.9006V8.75995H76.4403V12.3054H81.3835V13.8111H76.4403V18.8849H74.6847ZM83.9233 18.8849V10.1577H85.6222V18.8849H83.9233ZM84.7812 8.81108C84.4858 8.81108 84.232 8.7126 84.0199 8.51563C83.8116 8.31487 83.7074 8.07624 83.7074 7.79972C83.7074 7.51942 83.8116 7.28078 84.0199 7.08381C84.232 6.88305 84.4858 6.78268 84.7812 6.78268C85.0767 6.78268 85.3286 6.88305 85.5369 7.08381C85.7491 7.28078 85.8551 7.51942 85.8551 7.79972C85.8551 8.07624 85.7491 8.31487 85.5369 8.51563C85.3286 8.7126 85.0767 8.81108 84.7812 8.81108ZM89.6065 7.24858V18.8849H87.9077V7.24858H89.6065ZM93.5909 7.24858V18.8849H91.892V7.24858H93.5909Z" fill="#1A1A1A"/>
<defs>
<clipPath id="clip0_56_365">
<rect width="20" height="20" fill="white" transform="translate(0 2.88495)"/>
</clipPath>
</defs>
</svg>
