<svg width="67" height="25" viewBox="0 0 67 25" fill="none" xmlns="http://www.w3.org/2000/svg">
<path d="M8.10696 15.2803C8.15543 15.2576 8.19644 15.2217 8.22521 15.1766C8.25397 15.1315 8.26931 15.0791 8.26943 15.0256V6.56002C8.26943 5.67955 8.98572 4.96326 9.86619 4.96326C10.7467 4.96326 11.463 5.67959 11.463 6.56002V9.54957C11.4957 9.5294 11.5291 9.5104 11.563 9.49258M8.10696 15.2803L17.3178 10.9956C17.0157 10.9953 16.7205 11.0811 16.4664 11.2419C16.457 11.2087 16.4466 11.1759 16.4352 11.1436M8.10696 15.2803C8.04333 15.3102 7.97077 15.3151 7.90372 15.2939C7.83667 15.2727 7.78006 15.2271 7.74517 15.166L8.10696 15.2803ZM11.563 9.49258V9.60655C11.8023 9.47041 12.0735 9.39847 12.3501 9.39879M11.563 9.49258V6.56002C11.563 5.62436 10.8019 4.86326 9.86619 4.86326C8.93049 4.86326 8.16943 5.62432 8.16943 6.56002V15.0254C8.16935 15.0599 8.15946 15.0937 8.14089 15.1228C8.12233 15.1519 8.09587 15.1751 8.0646 15.1897L8.06441 15.1898C8.02353 15.209 7.97691 15.2122 7.93384 15.1986C7.89077 15.1849 7.8544 15.1556 7.83199 15.1164L7.83177 15.116L6.76705 13.2718L6.68045 13.3218L6.76705 13.2718C6.10354 12.1226 4.62905 11.7276 3.47985 12.3911C3.25165 12.5228 3.08811 12.736 3.01994 12.9905C2.95176 13.245 2.98685 13.5114 3.11862 13.7396L3.11862 13.7396L7.13018 20.6859C8.26442 22.6499 10.3776 23.8698 12.6455 23.8698C16.1575 23.8698 19.0146 21.0127 19.0146 17.5008V12.5923C19.0146 11.6567 18.2536 10.8957 17.3179 10.8956M11.563 9.49258C11.805 9.3654 12.0751 9.29847 12.3502 9.29879L12.3501 9.39879M12.3501 9.39879C13.0017 9.39879 13.5634 9.79112 13.8114 10.3519C13.8385 10.3313 13.8662 10.3116 13.8944 10.2928C13.9085 10.3236 13.9217 10.355 13.934 10.3868C14.1982 10.2056 14.5119 10.1081 14.8339 10.1085M12.3501 9.39879L17.3179 10.8956M14.8339 10.1085C15.538 10.1085 16.137 10.5664 16.3488 11.2001C16.3771 11.1803 16.4059 11.1615 16.4352 11.1436M14.8339 10.1085V10.0085C14.834 10.0085 14.834 10.0085 14.834 10.0085C15.5731 10.0085 16.2029 10.4833 16.4352 11.1436M14.8339 10.1085L17.3179 10.8956M16.4352 11.1436C16.7002 10.9815 17.0056 10.8952 17.3179 10.8956M9.86618 4.35363H9.86619C9.98682 4.35363 10.1025 4.30571 10.1878 4.22041C10.2731 4.13511 10.321 4.01942 10.321 3.89879V3.22266L11.0527 3.95429L11.0527 3.95431C11.1415 4.04307 11.258 4.08748 11.3743 4.08748C11.4906 4.08748 11.6071 4.04307 11.6959 3.95431L11.696 3.95429C11.7382 3.91206 11.7717 3.86191 11.7946 3.80673C11.8174 3.75154 11.8292 3.6924 11.8292 3.63266C11.8292 3.57293 11.8174 3.51378 11.7946 3.4586C11.7717 3.40341 11.7382 3.35327 11.696 3.31104L10.1878 1.80296L10.1878 1.80295C10.1025 1.71768 9.98681 1.66978 9.86619 1.66978C9.74558 1.66978 9.6299 1.71768 9.5446 1.80295L9.54459 1.80296L8.03651 3.31104L8.03626 3.31129C7.95147 3.39669 7.90397 3.51221 7.90418 3.63256C7.9044 3.75291 7.95229 3.86826 8.03739 3.95337C8.12248 4.03847 8.23784 4.08638 8.35818 4.0866C8.47853 4.08682 8.59406 4.03934 8.67946 3.95455L8.67972 3.95429L9.41131 3.22267V3.89879V3.89882C9.41134 4.01944 9.45928 4.13511 9.54458 4.2204C9.62988 4.30569 9.74555 4.35361 9.86618 4.35363ZM7.04394 15.5709L7.13054 15.5209L7.04394 15.5709C7.32834 16.0634 7.93259 16.2545 8.44843 16.0144C8.83169 15.8362 9.0791 15.4482 9.0791 15.0256V6.56006C9.0791 6.12614 9.43226 5.77301 9.86619 5.77301C10.3001 5.77301 10.6533 6.12618 10.6533 6.56006V13.1247C10.6533 13.3759 10.8569 13.5795 11.1081 13.5795C11.3593 13.5795 11.563 13.3759 11.563 13.1247V10.9956C11.563 10.5617 11.9161 10.2085 12.35 10.2085C12.784 10.2085 13.1371 10.5617 13.1371 10.9956V13.1247C13.1371 13.3759 13.3408 13.5795 13.592 13.5795C13.8432 13.5795 14.0468 13.3759 14.0468 13.1247V11.7053C14.0468 11.2713 14.4 10.9182 14.8339 10.9182C15.2678 10.9182 15.621 11.2714 15.621 11.7053V13.3021C15.621 13.5533 15.8246 13.7569 16.0758 13.7569C16.327 13.7569 16.5307 13.5533 16.5307 13.3021V12.5923C16.5307 12.1584 16.8839 11.8053 17.3177 11.8053C17.7516 11.8053 18.1048 12.1584 18.1048 12.5923L18.1049 17.5008C18.1049 20.511 15.6558 22.9601 12.6455 22.9601C10.7017 22.9601 8.89005 21.9143 7.91792 20.231L3.90637 13.2847C3.90636 13.2847 3.90636 13.2847 3.90635 13.2847C3.89253 13.2607 3.89535 13.2381 3.89862 13.2259C3.90186 13.2138 3.91071 13.1928 3.93468 13.1789C4.16561 13.0456 4.4214 12.9777 4.68042 12.9777C4.81028 12.9777 4.94123 12.9948 5.07039 13.0293C5.45676 13.1329 5.77922 13.3803 5.97922 13.7267L7.04394 15.5709Z" fill="#1A1A1A" stroke="#1A1A1A" stroke-width="0.2"/>
<path d="M7.65957 6.56005V6.56006C7.65956 6.68068 7.61164 6.79636 7.52635 6.88166C7.44106 6.96696 7.32539 7.01489 7.20476 7.01492H7.20474H6.52861L7.26019 7.74651C7.26019 7.74651 7.26019 7.74651 7.2602 7.74651C7.30243 7.78875 7.33594 7.83889 7.3588 7.89408C7.38166 7.94926 7.39342 8.00841 7.39342 8.06814C7.39342 8.12787 7.38166 8.18702 7.3588 8.24221C7.33594 8.29739 7.30243 8.34753 7.2602 8.38977L7.65957 6.56005ZM7.65957 6.56005C7.65957 6.43942 7.61165 6.32373 7.52636 6.23843C7.44106 6.15313 7.32537 6.10521 7.20474 6.10521H6.52861M7.65957 6.56005L6.52861 6.10521M6.52861 6.10521L7.2602 5.37362L7.26045 5.37337C7.34524 5.28797 7.39273 5.17244 7.39252 5.0521C7.39231 4.93175 7.34441 4.81639 7.25932 4.73129C7.17422 4.64619 7.05887 4.59828 6.93853 4.59806C6.81818 4.59784 6.70265 4.64532 6.61724 4.73011L6.61699 4.73037L5.10891 6.23844C5.10891 6.23844 5.10891 6.23844 5.10891 6.23844C5.06667 6.28068 5.03317 6.33082 5.01031 6.386C4.98745 6.44119 4.97568 6.50033 4.97568 6.56007C4.97568 6.6198 4.98745 6.67895 5.01031 6.73413C5.03317 6.78932 5.06667 6.83946 5.10891 6.8817L6.61699 8.38977L6.61701 8.38979C6.70581 8.47854 6.82236 8.52296 6.93859 8.52296C7.0548 8.52296 7.17141 8.47855 7.26019 8.38977L6.52861 6.10521ZM12.4718 8.38976L12.4718 8.38979C12.5607 8.47854 12.6772 8.52296 12.7935 8.52296C12.9097 8.52296 13.0263 8.47854 13.1151 8.38979L13.1151 8.38977L14.6232 6.88169C14.6654 6.83946 14.6989 6.78932 14.7218 6.73413C14.7447 6.67895 14.7564 6.6198 14.7564 6.56007C14.7564 6.50033 14.7447 6.44119 14.7218 6.386C14.6989 6.33082 14.6654 6.28067 14.6232 6.23844L13.1151 4.73037L13.0444 4.80108L13.1151 4.73037C13.0729 4.68813 13.0227 4.65463 12.9676 4.63177C12.9124 4.60891 12.8532 4.59714 12.7935 4.59714C12.7338 4.59714 12.6746 4.60891 12.6194 4.63177C12.5642 4.65463 12.5141 4.68813 12.4719 4.73037C12.4296 4.7726 12.3961 4.82274 12.3733 4.87793C12.3504 4.93311 12.3386 4.99226 12.3386 5.05199C12.3386 5.11172 12.3504 5.17087 12.3733 5.22606C12.3961 5.28124 12.4296 5.33138 12.4719 5.37362L12.5426 5.30291L12.4719 5.37362L13.2034 6.10517H12.5274C12.2762 6.10517 12.0725 6.30879 12.0725 6.56C12.0725 6.81121 12.2762 7.01484 12.5274 7.01484H13.2035L12.4719 7.74647C12.4719 7.74647 12.4719 7.74647 12.4719 7.74647C12.4296 7.7887 12.3961 7.83885 12.3733 7.89403C12.3504 7.94922 12.3386 8.00836 12.3386 8.0681C12.3386 8.12784 12.3504 8.18699 12.3732 8.24218C12.3961 8.29737 12.4296 8.34752 12.4718 8.38976Z" fill="#1A1A1A" stroke="#1A1A1A" stroke-width="0.2"/>
<path d="M35.0455 18.8849H31.2784V7.24852H35.1648C36.3049 7.24852 37.2841 7.48148 38.1023 7.94739C38.9205 8.40951 39.5473 9.07428 39.983 9.94171C40.4223 10.8053 40.642 11.8413 40.642 13.0497C40.642 14.2618 40.4205 15.3034 39.9773 16.1747C39.5379 17.0459 38.9015 17.7163 38.0682 18.186C37.2348 18.6519 36.2273 18.8849 35.0455 18.8849ZM33.0341 17.3508H34.9489C35.8352 17.3508 36.572 17.1841 37.1591 16.8508C37.7462 16.5137 38.1856 16.0269 38.4773 15.3906C38.7689 14.7504 38.9148 13.9701 38.9148 13.0497C38.9148 12.1368 38.7689 11.3622 38.4773 10.7258C38.1894 10.0894 37.7595 9.60648 37.1875 9.27693C36.6155 8.94739 35.9053 8.78261 35.0568 8.78261H33.0341V17.3508ZM42.6889 18.8849V10.1576H44.331V11.544H44.4219C44.581 11.0743 44.8613 10.705 45.2628 10.436C45.6681 10.1633 46.1264 10.0269 46.6378 10.0269C46.7438 10.0269 46.8688 10.0307 47.0128 10.0383C47.1605 10.0459 47.276 10.0553 47.3594 10.0667V11.6917C47.2912 11.6728 47.17 11.6519 46.9957 11.6292C46.8215 11.6027 46.6473 11.5894 46.473 11.5894C46.0715 11.5894 45.7135 11.6747 45.3991 11.8451C45.0885 12.0118 44.8423 12.2447 44.6605 12.544C44.4787 12.8394 44.3878 13.1766 44.3878 13.5553V18.8849H42.6889ZM51.2912 19.0781C50.7382 19.0781 50.2382 18.9758 49.7912 18.7713C49.3442 18.5629 48.9901 18.2618 48.7287 17.8678C48.4711 17.4739 48.3423 16.9909 48.3423 16.419C48.3423 15.9266 48.437 15.5213 48.6264 15.2031C48.8158 14.8849 49.0715 14.633 49.3935 14.4474C49.7154 14.2618 50.0753 14.1216 50.473 14.0269C50.8707 13.9322 51.276 13.8603 51.6889 13.811C52.2116 13.7504 52.6359 13.7012 52.9616 13.6633C53.2874 13.6216 53.5241 13.5553 53.6719 13.4644C53.8196 13.3735 53.8935 13.2258 53.8935 13.0213V12.9815C53.8935 12.4853 53.7533 12.1008 53.473 11.8281C53.1965 11.5553 52.7836 11.419 52.2344 11.419C51.6624 11.419 51.2116 11.5459 50.8821 11.7997C50.5563 12.0497 50.331 12.3281 50.206 12.6349L48.6094 12.2713C48.7988 11.7409 49.0753 11.3129 49.4389 10.9872C49.8063 10.6576 50.2287 10.419 50.706 10.2713C51.1832 10.1197 51.6851 10.044 52.2116 10.044C52.5601 10.044 52.9295 10.0856 53.3196 10.169C53.7135 10.2485 54.081 10.3963 54.4219 10.6122C54.7666 10.8281 55.0488 11.1368 55.2685 11.5383C55.4882 11.936 55.598 12.4531 55.598 13.0894V18.8849H53.9389V17.6917H53.8707C53.7609 17.9114 53.5961 18.1273 53.3764 18.3394C53.1567 18.5516 52.8745 18.7277 52.5298 18.8678C52.1851 19.008 51.7723 19.0781 51.2912 19.0781ZM51.6605 17.7144C52.1302 17.7144 52.5317 17.6216 52.8651 17.436C53.2022 17.2504 53.4579 17.008 53.6321 16.7088C53.8101 16.4057 53.8991 16.0819 53.8991 15.7372V14.6122C53.8385 14.6728 53.7211 14.7296 53.5469 14.7826C53.3764 14.8319 53.1813 14.8754 52.9616 14.9133C52.742 14.9474 52.5279 14.9796 52.3196 15.0099C52.1113 15.0364 51.937 15.0591 51.7969 15.0781C51.4673 15.1197 51.1662 15.1898 50.8935 15.2883C50.6245 15.3868 50.4086 15.5288 50.2457 15.7144C50.0866 15.8963 50.0071 16.1387 50.0071 16.4417C50.0071 16.8622 50.1624 17.1803 50.473 17.3963C50.7836 17.6084 51.1795 17.7144 51.6605 17.7144ZM61.5199 22.3394C60.8267 22.3394 60.2301 22.2485 59.7301 22.0667C59.2339 21.8849 58.8286 21.6444 58.5142 21.3451C58.1998 21.0459 57.965 20.7182 57.8097 20.3622L59.2699 19.7599C59.3722 19.9266 59.5085 20.1027 59.679 20.2883C59.8532 20.4777 60.0881 20.6387 60.3835 20.7713C60.6828 20.9038 61.0672 20.9701 61.5369 20.9701C62.1809 20.9701 62.7131 20.8129 63.1335 20.4985C63.554 20.1879 63.7642 19.6917 63.7642 19.0099V17.294H63.6562C63.554 17.4796 63.4063 17.686 63.2131 17.9133C63.0237 18.1406 62.7623 18.3375 62.429 18.5042C62.0956 18.6709 61.6619 18.7542 61.1278 18.7542C60.4384 18.7542 59.8172 18.5932 59.2642 18.2713C58.715 17.9455 58.2794 17.4663 57.9574 16.8338C57.6392 16.1974 57.4801 15.4152 57.4801 14.4872C57.4801 13.5591 57.6373 12.7637 57.9517 12.1008C58.2699 11.4379 58.7055 10.9303 59.2585 10.5781C59.8116 10.222 60.4384 10.044 61.1392 10.044C61.6809 10.044 62.1184 10.1349 62.4517 10.3167C62.785 10.4947 63.0445 10.7031 63.2301 10.9417C63.4195 11.1803 63.5653 11.3906 63.6676 11.5724H63.7926V10.1576H65.4574V19.0781C65.4574 19.8281 65.2831 20.4436 64.9347 20.9247C64.5862 21.4057 64.1146 21.7618 63.5199 21.9928C62.929 22.2239 62.2623 22.3394 61.5199 22.3394ZM61.5028 17.3451C61.9915 17.3451 62.4044 17.2315 62.7415 17.0042C63.0824 16.7731 63.34 16.4436 63.5142 16.0156C63.6922 15.5838 63.7812 15.0667 63.7812 14.4644C63.7812 13.8773 63.6941 13.3603 63.5199 12.9133C63.3456 12.4663 63.09 12.1178 62.7528 11.8678C62.4157 11.6141 61.9991 11.4872 61.5028 11.4872C60.9915 11.4872 60.5653 11.6197 60.2244 11.8849C59.8835 12.1463 59.6259 12.5023 59.4517 12.9531C59.2813 13.4038 59.196 13.9076 59.196 14.4644C59.196 15.0364 59.2831 15.5383 59.4574 15.9701C59.6316 16.4019 59.8892 16.7391 60.2301 16.9815C60.5748 17.2239 60.9991 17.3451 61.5028 17.3451Z" fill="#1A1A1A"/>
</svg>
