<svg width="79" height="25" viewBox="0 0 79 25" fill="none" xmlns="http://www.w3.org/2000/svg">
<g clip-path="url(#clip0_56_340)">
<mask id="mask0_56_340" style="mask-type:luminance" maskUnits="userSpaceOnUse" x="0" y="2" width="20" height="21">
<path d="M0 2.88495H19.9999V22.8849H0V2.88495Z" fill="white"/>
</mask>
<g mask="url(#mask0_56_340)">
<path d="M2.34375 3.66619H17.6562C18.5192 3.66619 19.2187 4.36572 19.2187 5.22869V20.5411C19.2187 21.4041 18.5192 22.1036 17.6562 22.1036H2.34375C1.48078 22.1036 0.78125 21.4041 0.78125 20.5411V5.22869C0.78125 4.36572 1.48078 3.66619 2.34375 3.66619Z" stroke="#1A1A1A" stroke-width="1.2" stroke-miterlimit="10"/>
<path d="M9.25782 13.6271L4.33936 18.5455" stroke="#1A1A1A" stroke-width="1.2" stroke-miterlimit="10"/>
<path d="M3.90625 14.0958V18.9786H8.78905" stroke="#1A1A1A" stroke-width="1.2" stroke-miterlimit="10"/>
<path d="M10.7422 12.1427L15.6606 7.22424" stroke="#1A1A1A" stroke-width="1.2" stroke-miterlimit="10"/>
<path d="M16.0937 11.674V6.79115H11.2109" stroke="#1A1A1A" stroke-width="1.2" stroke-miterlimit="10"/>
</g>
</g>
<path d="M29.2784 18.8849V7.24852H33.4261C34.3277 7.24852 35.0758 7.40383 35.6705 7.71443C36.2689 8.02504 36.7159 8.45496 37.0114 9.00421C37.3068 9.54966 37.4545 10.1803 37.4545 10.8963C37.4545 11.6084 37.3049 12.2353 37.0057 12.7769C36.7102 13.3148 36.2633 13.7334 35.6648 14.0326C35.0701 14.3319 34.322 14.4815 33.4205 14.4815H30.2784V12.9701H33.2614C33.8295 12.9701 34.2917 12.8887 34.6477 12.7258C35.0076 12.5629 35.2708 12.3262 35.4375 12.0156C35.6042 11.705 35.6875 11.3319 35.6875 10.8963C35.6875 10.4569 35.6023 10.0762 35.4318 9.75421C35.2652 9.43224 35.0019 9.18602 34.642 9.01557C34.286 8.84133 33.8182 8.75421 33.2386 8.75421H31.0341V18.8849H29.2784ZM35.0227 13.6349L37.8977 18.8849H35.8977L33.0795 13.6349H35.0227ZM43.1065 19.061C42.2467 19.061 41.5062 18.8773 40.8849 18.5099C40.2675 18.1387 39.7902 17.6178 39.4531 16.9474C39.1198 16.2731 38.9531 15.4834 38.9531 14.5781C38.9531 13.6841 39.1198 12.8963 39.4531 12.2144C39.7902 11.5326 40.2599 11.0004 40.8622 10.6178C41.4683 10.2353 42.1766 10.044 42.9872 10.044C43.4796 10.044 43.9569 10.1254 44.419 10.2883C44.8812 10.4512 45.2959 10.7069 45.6634 11.0553C46.0308 11.4038 46.3205 11.8565 46.5327 12.4133C46.7448 12.9663 46.8509 13.6387 46.8509 14.4303V15.0326H39.9134V13.7599H45.1861C45.1861 13.3129 45.0952 12.9171 44.9134 12.5724C44.7315 12.2239 44.4759 11.9493 44.1463 11.7485C43.8205 11.5478 43.438 11.4474 42.9986 11.4474C42.5213 11.4474 42.1046 11.5648 41.7486 11.7997C41.3963 12.0307 41.1236 12.3338 40.9304 12.7088C40.741 13.08 40.6463 13.4834 40.6463 13.919V14.9133C40.6463 15.4966 40.7486 15.9928 40.9531 16.4019C41.1615 16.811 41.4512 17.1235 41.8224 17.3394C42.1937 17.5516 42.6274 17.6576 43.1236 17.6576C43.4455 17.6576 43.7391 17.6122 44.0043 17.5213C44.2694 17.4266 44.4986 17.2864 44.6918 17.1008C44.8849 16.9152 45.0327 16.686 45.1349 16.4133L46.7429 16.7031C46.6141 17.1766 46.383 17.5913 46.0497 17.9474C45.7202 18.2997 45.3054 18.5743 44.8054 18.7713C44.3092 18.9644 43.7429 19.061 43.1065 19.061ZM55.2756 12.2883L53.7358 12.561C53.6714 12.3641 53.5691 12.1766 53.429 11.9985C53.2926 11.8205 53.107 11.6747 52.8722 11.561C52.6373 11.4474 52.3438 11.3906 51.9915 11.3906C51.5104 11.3906 51.1089 11.4985 50.7869 11.7144C50.465 11.9266 50.304 12.2012 50.304 12.5383C50.304 12.83 50.4119 13.0648 50.6278 13.2428C50.8438 13.4209 51.1922 13.5667 51.6733 13.6803L53.0597 13.9985C53.8627 14.1841 54.4612 14.4701 54.8551 14.8565C55.2491 15.2428 55.446 15.7447 55.446 16.3622C55.446 16.8849 55.2945 17.3508 54.9915 17.7599C54.6922 18.1652 54.2737 18.4834 53.7358 18.7144C53.2017 18.9455 52.5824 19.061 51.8778 19.061C50.9006 19.061 50.1032 18.8527 49.4858 18.436C48.8684 18.0156 48.4896 17.419 48.3494 16.6463L49.9915 16.3963C50.0938 16.8243 50.304 17.1481 50.6222 17.3678C50.9403 17.5838 51.3551 17.6917 51.8665 17.6917C52.4233 17.6917 52.8684 17.5762 53.2017 17.3451C53.535 17.1103 53.7017 16.8243 53.7017 16.4872C53.7017 16.2144 53.5994 15.9853 53.3949 15.7997C53.1941 15.6141 52.8854 15.4739 52.4688 15.3792L50.9915 15.0553C50.1771 14.8697 49.5748 14.5743 49.1847 14.169C48.7983 13.7637 48.6051 13.2504 48.6051 12.6292C48.6051 12.1141 48.7491 11.6633 49.0369 11.2769C49.3248 10.8906 49.7225 10.5894 50.2301 10.3735C50.7377 10.1538 51.3191 10.044 51.9744 10.044C52.9176 10.044 53.66 10.2485 54.2017 10.6576C54.7434 11.0629 55.1013 11.6065 55.2756 12.2883ZM57.3139 18.8849V10.1576H59.0128V18.8849H57.3139ZM58.1719 8.81102C57.8764 8.81102 57.6226 8.71254 57.4105 8.51557C57.2022 8.31481 57.098 8.07618 57.098 7.79966C57.098 7.51936 57.2022 7.28072 57.4105 7.08375C57.6226 6.88299 57.8764 6.78261 58.1719 6.78261C58.4673 6.78261 58.7192 6.88299 58.9276 7.08375C59.1397 7.28072 59.2457 7.51936 59.2457 7.79966C59.2457 8.07618 59.1397 8.31481 58.9276 8.51557C58.7192 8.71254 58.4673 8.81102 58.1719 8.81102ZM61.1165 18.8849V17.7201L65.8438 11.7144V11.6349H61.2699V10.1576H67.9631V11.3963L63.4176 17.3281V17.4076H68.1222V18.8849H61.1165ZM73.6378 19.061C72.7779 19.061 72.0374 18.8773 71.4162 18.5099C70.7988 18.1387 70.3215 17.6178 69.9844 16.9474C69.651 16.2731 69.4844 15.4834 69.4844 14.5781C69.4844 13.6841 69.651 12.8963 69.9844 12.2144C70.3215 11.5326 70.7912 11.0004 71.3935 10.6178C71.9995 10.2353 72.7079 10.044 73.5185 10.044C74.0109 10.044 74.4882 10.1254 74.9503 10.2883C75.4124 10.4512 75.8272 10.7069 76.1946 11.0553C76.562 11.4038 76.8518 11.8565 77.0639 12.4133C77.276 12.9663 77.3821 13.6387 77.3821 14.4303V15.0326H70.4446V13.7599H75.7173C75.7173 13.3129 75.6264 12.9171 75.4446 12.5724C75.2628 12.2239 75.0071 11.9493 74.6776 11.7485C74.3518 11.5478 73.9692 11.4474 73.5298 11.4474C73.0526 11.4474 72.6359 11.5648 72.2798 11.7997C71.9276 12.0307 71.6548 12.3338 71.4616 12.7088C71.2723 13.08 71.1776 13.4834 71.1776 13.919V14.9133C71.1776 15.4966 71.2798 15.9928 71.4844 16.4019C71.6927 16.811 71.9825 17.1235 72.3537 17.3394C72.7249 17.5516 73.1586 17.6576 73.6548 17.6576C73.9768 17.6576 74.2704 17.6122 74.5355 17.5213C74.8007 17.4266 75.0298 17.2864 75.223 17.1008C75.4162 16.9152 75.5639 16.686 75.6662 16.4133L77.2741 16.7031C77.1454 17.1766 76.9143 17.5913 76.581 17.9474C76.2514 18.2997 75.8366 18.5743 75.3366 18.7713C74.8404 18.9644 74.2741 19.061 73.6378 19.061Z" fill="#1A1A1A"/>
<defs>
<clipPath id="clip0_56_340">
<rect width="20" height="20" fill="white" transform="translate(0 2.88489)"/>
</clipPath>
</defs>
</svg>
