<svg width="119" height="25" viewBox="0 0 119 25" fill="none" xmlns="http://www.w3.org/2000/svg">
<g clip-path="url(#clip0_56_359)">
<path d="M12.381 8.25988C12.1733 7.90155 11.8318 7.64036 11.4316 7.53371C11.0313 7.42706 10.6051 7.48368 10.2466 7.69113L5.37789 10.5036C5.01902 10.7108 4.75717 11.0521 4.64992 11.4524C4.54267 11.8527 4.59882 12.2791 4.80601 12.638L7.61851 17.5068C7.82572 17.8656 8.16699 18.1275 8.56726 18.2347C8.96753 18.342 9.39401 18.2858 9.75289 18.0786L14.6216 15.2661C14.7996 15.1638 14.9556 15.0274 15.0808 14.8647C15.2061 14.7021 15.298 14.5163 15.3514 14.3181C15.4048 14.1199 15.4186 13.9131 15.3921 13.7095C15.3655 13.506 15.2991 13.3096 15.1966 13.1318L12.381 8.25988ZM14.1435 13.9943C14.1328 14.0342 14.1144 14.0716 14.0892 14.1043C14.0639 14.137 14.0325 14.1644 13.9966 14.1849L9.12789 16.9974C9.09222 17.018 9.05282 17.0314 9.01195 17.0368C8.97108 17.0422 8.92955 17.0394 8.88976 17.0287C8.84997 17.0179 8.81269 16.9994 8.78008 16.9742C8.74748 16.949 8.72018 16.9176 8.69976 16.8818L5.88726 12.013C5.8666 11.9773 5.8532 11.9379 5.84783 11.8971C5.84246 11.8562 5.84523 11.8147 5.85597 11.7749C5.86672 11.7351 5.88523 11.6978 5.91045 11.6652C5.93566 11.6326 5.96708 11.6053 6.00289 11.5849L10.8716 8.77238C10.9073 8.75172 10.9467 8.73832 10.9876 8.73295C11.0284 8.72758 11.07 8.73035 11.1098 8.74109C11.1496 8.75184 11.1868 8.77036 11.2194 8.79557C11.252 8.82078 11.2793 8.8522 11.2998 8.88801L14.1123 13.7568C14.1328 13.7923 14.1462 13.8316 14.1515 13.8724C14.1569 13.9131 14.1542 13.9546 14.1435 13.9943Z" fill="#1A1A1A"/>
<path d="M19.375 18.888H17.9969C19.1119 17.4025 19.7912 15.6359 19.9585 13.7861C20.1259 11.9362 19.7748 10.0763 18.9445 8.41485C18.1143 6.75336 16.8377 5.35593 15.2579 4.3792C13.678 3.40247 11.8574 2.88503 10 2.88489C9.83424 2.88489 9.67527 2.95074 9.55806 3.06795C9.44085 3.18516 9.375 3.34413 9.375 3.50989C9.375 3.67565 9.44085 3.83462 9.55806 3.95183C9.67527 4.06904 9.83424 4.13489 10 4.13489C11.5883 4.13458 13.1468 4.5666 14.5082 5.38463C15.8697 6.20265 16.9828 7.37583 17.7282 8.77836C18.4736 10.1809 18.8232 11.7599 18.7395 13.346C18.6559 14.9321 18.142 16.4655 17.2531 17.7818V16.7693C17.2531 16.6035 17.1873 16.4445 17.0701 16.3273C16.9529 16.2101 16.7939 16.1443 16.6281 16.1443C16.4624 16.1443 16.3034 16.2101 16.1862 16.3273C16.069 16.4445 16.0031 16.6035 16.0031 16.7693V19.513C16.0031 19.6788 16.069 19.8377 16.1862 19.955C16.3034 20.0722 16.4624 20.138 16.6281 20.138H19.375C19.5408 20.138 19.6997 20.0722 19.8169 19.955C19.9342 19.8377 20 19.6788 20 19.513C20 19.3473 19.9342 19.1883 19.8169 19.0711C19.6997 18.9539 19.5408 18.888 19.375 18.888ZM10 21.6349C8.41169 21.6352 6.85325 21.2032 5.49179 20.3851C4.13033 19.5671 3.01721 18.3939 2.27179 16.9914C1.52637 15.5889 1.17676 14.0099 1.26045 12.4238C1.34415 10.8377 1.85799 9.3043 2.74688 7.98801V9.00051C2.74688 9.16627 2.81272 9.32524 2.92993 9.44245C3.04714 9.55966 3.20611 9.62551 3.37188 9.62551C3.53764 9.62551 3.69661 9.55966 3.81382 9.44245C3.93103 9.32524 3.99688 9.16627 3.99688 9.00051V6.25676C3.99688 6.091 3.93103 5.93203 3.81382 5.81482C3.69661 5.69761 3.53764 5.63176 3.37188 5.63176H0.625C0.45924 5.63176 0.300269 5.69761 0.183058 5.81482C0.065848 5.93203 0 6.091 0 6.25676C0 6.42252 0.065848 6.58149 0.183058 6.6987C0.300269 6.81591 0.45924 6.88176 0.625 6.88176H2.00312C0.888113 8.36724 0.20885 10.1339 0.0414683 11.9837C-0.125913 13.8335 0.225202 15.6934 1.05546 17.3549C1.88572 19.0164 3.16231 20.4138 4.74214 21.3906C6.32197 22.3673 8.14262 22.8847 10 22.8849C10.1658 22.8849 10.3247 22.819 10.4419 22.7018C10.5592 22.5846 10.625 22.4256 10.625 22.2599C10.625 22.0941 10.5592 21.9352 10.4419 21.8179C10.3247 21.7007 10.1658 21.6349 10 21.6349ZM14.4094 20.4505C14.2987 20.5058 14.2069 20.5926 14.1457 20.7001C14.0844 20.8076 14.0564 20.9308 14.0652 21.0542C14.074 21.1776 14.1192 21.2955 14.1951 21.3932C14.2711 21.4909 14.3742 21.5638 14.4916 21.6028C14.609 21.6418 14.7354 21.6451 14.8546 21.6122C14.9739 21.5794 15.0807 21.5119 15.1616 21.4183C15.2424 21.3247 15.2937 21.2092 15.3089 21.0864C15.3241 20.9636 15.3025 20.8391 15.2469 20.7286C15.1725 20.5809 15.0426 20.4686 14.8856 20.4165C14.7286 20.3644 14.5574 20.3766 14.4094 20.4505Z" fill="#1A1A1A"/>
</g>
<path d="M33.1705 19.044C32.3902 19.044 31.6932 18.9095 31.0795 18.6406C30.4697 18.3716 29.9867 17.9985 29.6307 17.5213C29.2784 17.0402 29.089 16.4834 29.0625 15.8508H30.8466C30.8693 16.1955 30.9848 16.4947 31.1932 16.7485C31.4053 16.9985 31.6818 17.1917 32.0227 17.3281C32.3636 17.4644 32.7424 17.5326 33.1591 17.5326C33.6174 17.5326 34.0227 17.4531 34.375 17.294C34.7311 17.1349 35.0095 16.9133 35.2102 16.6292C35.411 16.3413 35.5114 16.0099 35.5114 15.6349C35.5114 15.2447 35.411 14.9019 35.2102 14.6065C35.0133 14.3072 34.7235 14.0724 34.3409 13.9019C33.9621 13.7315 33.5038 13.6463 32.9659 13.6463H31.983V12.2144H32.9659C33.3977 12.2144 33.7765 12.1368 34.1023 11.9815C34.4318 11.8262 34.6894 11.6103 34.875 11.3338C35.0606 11.0534 35.1534 10.7258 35.1534 10.3508C35.1534 9.99095 35.072 9.67845 34.9091 9.4133C34.75 9.14436 34.5227 8.93413 34.2273 8.78261C33.9356 8.6311 33.5909 8.55534 33.1932 8.55534C32.8144 8.55534 32.4602 8.62542 32.1307 8.76557C31.8049 8.90193 31.5398 9.0989 31.3352 9.35648C31.1307 9.61027 31.0208 9.91519 31.0057 10.2713H29.3068C29.3258 9.64246 29.5114 9.08943 29.8636 8.61216C30.2197 8.13489 30.6894 7.76178 31.2727 7.49284C31.8561 7.2239 32.5038 7.08943 33.2159 7.08943C33.9621 7.08943 34.6061 7.23527 35.1477 7.52693C35.6932 7.81481 36.1136 8.19928 36.4091 8.68034C36.7083 9.1614 36.8561 9.68792 36.8523 10.2599C36.8561 10.9114 36.6742 11.4644 36.3068 11.919C35.9432 12.3735 35.4583 12.6784 34.8523 12.8338V12.9247C35.625 13.0421 36.2235 13.3489 36.6477 13.8451C37.0758 14.3413 37.2879 14.9569 37.2841 15.6917C37.2879 16.3319 37.1098 16.9057 36.75 17.4133C36.3939 17.9209 35.9072 18.3205 35.2898 18.6122C34.6723 18.9 33.9659 19.044 33.1705 19.044ZM43.358 18.8849H39.5909V7.24852H43.4773C44.6174 7.24852 45.5966 7.48148 46.4148 7.94739C47.233 8.40951 47.8598 9.07428 48.2955 9.94171C48.7348 10.8053 48.9545 11.8413 48.9545 13.0497C48.9545 14.2618 48.733 15.3034 48.2898 16.1747C47.8504 17.0459 47.214 17.7163 46.3807 18.186C45.5473 18.6519 44.5398 18.8849 43.358 18.8849ZM41.3466 17.3508H43.2614C44.1477 17.3508 44.8845 17.1841 45.4716 16.8508C46.0587 16.5137 46.4981 16.0269 46.7898 15.3906C47.0814 14.7504 47.2273 13.9701 47.2273 13.0497C47.2273 12.1368 47.0814 11.3622 46.7898 10.7258C46.5019 10.0894 46.072 9.60648 45.5 9.27693C44.928 8.94739 44.2178 8.78261 43.3693 8.78261H41.3466V17.3508ZM55.3722 18.8849V7.24852H59.5199C60.4214 7.24852 61.1695 7.40383 61.7642 7.71443C62.3627 8.02504 62.8097 8.45496 63.1051 9.00421C63.4006 9.54966 63.5483 10.1803 63.5483 10.8963C63.5483 11.6084 63.3987 12.2353 63.0994 12.7769C62.804 13.3148 62.357 13.7334 61.7585 14.0326C61.1638 14.3319 60.4157 14.4815 59.5142 14.4815H56.3722V12.9701H59.3551C59.9233 12.9701 60.3854 12.8887 60.7415 12.7258C61.1013 12.5629 61.3646 12.3262 61.5312 12.0156C61.6979 11.705 61.7812 11.3319 61.7812 10.8963C61.7812 10.4569 61.696 10.0762 61.5256 9.75421C61.3589 9.43224 61.0956 9.18602 60.7358 9.01557C60.3797 8.84133 59.9119 8.75421 59.3324 8.75421H57.1278V18.8849H55.3722ZM61.1165 13.6349L63.9915 18.8849H61.9915L59.1733 13.6349H61.1165ZM69.1151 19.061C68.2969 19.061 67.5829 18.8735 66.973 18.4985C66.3632 18.1235 65.8897 17.5989 65.5526 16.9247C65.2154 16.2504 65.0469 15.4625 65.0469 14.561C65.0469 13.6557 65.2154 12.8641 65.5526 12.186C65.8897 11.508 66.3632 10.9815 66.973 10.6065C67.5829 10.2315 68.2969 10.044 69.1151 10.044C69.9332 10.044 70.6473 10.2315 71.2571 10.6065C71.867 10.9815 72.3404 11.508 72.6776 12.186C73.0147 12.8641 73.1832 13.6557 73.1832 14.561C73.1832 15.4625 73.0147 16.2504 72.6776 16.9247C72.3404 17.5989 71.867 18.1235 71.2571 18.4985C70.6473 18.8735 69.9332 19.061 69.1151 19.061ZM69.1207 17.6349C69.651 17.6349 70.0904 17.4947 70.4389 17.2144C70.7874 16.9341 71.045 16.561 71.2116 16.0951C71.3821 15.6292 71.4673 15.1159 71.4673 14.5553C71.4673 13.9985 71.3821 13.4872 71.2116 13.0213C71.045 12.5516 70.7874 12.1747 70.4389 11.8906C70.0904 11.6065 69.651 11.4644 69.1207 11.4644C68.5866 11.4644 68.1435 11.6065 67.7912 11.8906C67.4427 12.1747 67.1832 12.5516 67.0128 13.0213C66.8461 13.4872 66.7628 13.9985 66.7628 14.5553C66.7628 15.1159 66.8461 15.6292 67.0128 16.0951C67.1832 16.561 67.4427 16.9341 67.7912 17.2144C68.1435 17.4947 68.5866 17.6349 69.1207 17.6349ZM79.1534 10.1576V11.5213H74.3864V10.1576H79.1534ZM75.6648 8.06671H77.3636V16.3224C77.3636 16.6519 77.4129 16.9 77.5114 17.0667C77.6098 17.2296 77.7367 17.3413 77.892 17.4019C78.0511 17.4588 78.2235 17.4872 78.4091 17.4872C78.5455 17.4872 78.6648 17.4777 78.767 17.4588C78.8693 17.4398 78.9489 17.4247 79.0057 17.4133L79.3125 18.8167C79.214 18.8546 79.0739 18.8925 78.892 18.9303C78.7102 18.972 78.483 18.9947 78.2102 18.9985C77.7633 19.0061 77.3466 18.9266 76.9602 18.7599C76.5739 18.5932 76.2614 18.3356 76.0227 17.9872C75.7841 17.6387 75.6648 17.2012 75.6648 16.6747V8.06671ZM83.5724 19.0781C83.0194 19.0781 82.5194 18.9758 82.0724 18.7713C81.6255 18.5629 81.2713 18.2618 81.0099 17.8678C80.7524 17.4739 80.6236 16.9909 80.6236 16.419C80.6236 15.9266 80.7183 15.5213 80.9077 15.2031C81.0971 14.8849 81.3527 14.633 81.6747 14.4474C81.9967 14.2618 82.3565 14.1216 82.7543 14.0269C83.152 13.9322 83.5573 13.8603 83.9702 13.811C84.4929 13.7504 84.9171 13.7012 85.2429 13.6633C85.5687 13.6216 85.8054 13.5553 85.9531 13.4644C86.1009 13.3735 86.1747 13.2258 86.1747 13.0213V12.9815C86.1747 12.4853 86.0346 12.1008 85.7543 11.8281C85.4777 11.5553 85.0649 11.419 84.5156 11.419C83.9437 11.419 83.4929 11.5459 83.1634 11.7997C82.8376 12.0497 82.6122 12.3281 82.4872 12.6349L80.8906 12.2713C81.08 11.7409 81.3565 11.3129 81.7202 10.9872C82.0876 10.6576 82.5099 10.419 82.9872 10.2713C83.4645 10.1197 83.9664 10.044 84.4929 10.044C84.8414 10.044 85.2107 10.0856 85.6009 10.169C85.9948 10.2485 86.3622 10.3963 86.7031 10.6122C87.0478 10.8281 87.33 11.1368 87.5497 11.5383C87.7694 11.936 87.8793 12.4531 87.8793 13.0894V18.8849H86.2202V17.6917H86.152C86.0421 17.9114 85.8774 18.1273 85.6577 18.3394C85.438 18.5516 85.1558 18.7277 84.8111 18.8678C84.4664 19.008 84.0535 19.0781 83.5724 19.0781ZM83.9418 17.7144C84.4115 17.7144 84.813 17.6216 85.1463 17.436C85.4834 17.2504 85.7391 17.008 85.9134 16.7088C86.0914 16.4057 86.1804 16.0819 86.1804 15.7372V14.6122C86.1198 14.6728 86.0024 14.7296 85.8281 14.7826C85.6577 14.8319 85.4626 14.8754 85.2429 14.9133C85.0232 14.9474 84.8092 14.9796 84.6009 15.0099C84.3925 15.0364 84.2183 15.0591 84.0781 15.0781C83.7486 15.1197 83.4474 15.1898 83.1747 15.2883C82.9058 15.3868 82.6899 15.5288 82.527 15.7144C82.3679 15.8963 82.2884 16.1387 82.2884 16.4417C82.2884 16.8622 82.4437 17.1803 82.7543 17.3963C83.0649 17.6084 83.4607 17.7144 83.9418 17.7144ZM94.2159 10.1576V11.5213H89.4489V10.1576H94.2159ZM90.7273 8.06671H92.4261V16.3224C92.4261 16.6519 92.4754 16.9 92.5739 17.0667C92.6723 17.2296 92.7992 17.3413 92.9545 17.4019C93.1136 17.4588 93.286 17.4872 93.4716 17.4872C93.608 17.4872 93.7273 17.4777 93.8295 17.4588C93.9318 17.4398 94.0114 17.4247 94.0682 17.4133L94.375 18.8167C94.2765 18.8546 94.1364 18.8925 93.9545 18.9303C93.7727 18.972 93.5455 18.9947 93.2727 18.9985C92.8258 19.0061 92.4091 18.9266 92.0227 18.7599C91.6364 18.5932 91.3239 18.3356 91.0852 17.9872C90.8466 17.6387 90.7273 17.2012 90.7273 16.6747V8.06671ZM96.0952 18.8849V10.1576H97.794V18.8849H96.0952ZM96.9531 8.81102C96.6577 8.81102 96.4039 8.71254 96.1918 8.51557C95.9834 8.31481 95.8793 8.07618 95.8793 7.79966C95.8793 7.51936 95.9834 7.28072 96.1918 7.08375C96.4039 6.88299 96.6577 6.78261 96.9531 6.78261C97.2486 6.78261 97.5005 6.88299 97.7088 7.08375C97.9209 7.28072 98.027 7.51936 98.027 7.79966C98.027 8.07618 97.9209 8.31481 97.7088 8.51557C97.5005 8.71254 97.2486 8.81102 96.9531 8.81102ZM103.756 19.061C102.938 19.061 102.223 18.8735 101.614 18.4985C101.004 18.1235 100.53 17.5989 100.193 16.9247C99.8561 16.2504 99.6875 15.4625 99.6875 14.561C99.6875 13.6557 99.8561 12.8641 100.193 12.186C100.53 11.508 101.004 10.9815 101.614 10.6065C102.223 10.2315 102.938 10.044 103.756 10.044C104.574 10.044 105.288 10.2315 105.898 10.6065C106.508 10.9815 106.981 11.508 107.318 12.186C107.655 12.8641 107.824 13.6557 107.824 14.561C107.824 15.4625 107.655 16.2504 107.318 16.9247C106.981 17.5989 106.508 18.1235 105.898 18.4985C105.288 18.8735 104.574 19.061 103.756 19.061ZM103.761 17.6349C104.292 17.6349 104.731 17.4947 105.08 17.2144C105.428 16.9341 105.686 16.561 105.852 16.0951C106.023 15.6292 106.108 15.1159 106.108 14.5553C106.108 13.9985 106.023 13.4872 105.852 13.0213C105.686 12.5516 105.428 12.1747 105.08 11.8906C104.731 11.6065 104.292 11.4644 103.761 11.4644C103.227 11.4644 102.784 11.6065 102.432 11.8906C102.083 12.1747 101.824 12.5516 101.653 13.0213C101.487 13.4872 101.403 13.9985 101.403 14.5553C101.403 15.1159 101.487 15.6292 101.653 16.0951C101.824 16.561 102.083 16.9341 102.432 17.2144C102.784 17.4947 103.227 17.6349 103.761 17.6349ZM111.419 13.7031V18.8849H109.72V10.1576H111.351V11.5781H111.459C111.66 11.1159 111.974 10.7447 112.402 10.4644C112.834 10.1841 113.377 10.044 114.033 10.044C114.627 10.044 115.148 10.169 115.595 10.419C116.042 10.6652 116.389 11.0326 116.635 11.5213C116.881 12.0099 117.004 12.6141 117.004 13.3338V18.8849H115.305V13.5383C115.305 12.9057 115.141 12.4114 114.811 12.0553C114.482 11.6955 114.029 11.5156 113.453 11.5156C113.059 11.5156 112.709 11.6008 112.402 11.7713C112.099 11.9417 111.858 12.1917 111.68 12.5213C111.506 12.847 111.419 13.2409 111.419 13.7031Z" fill="#1A1A1A"/>
<defs>
<clipPath id="clip0_56_359">
<rect width="20" height="20" fill="white" transform="translate(0 2.88489)"/>
</clipPath>
</defs>
</svg>
