<svg width="98" height="25" viewBox="0 0 98 25" fill="none" xmlns="http://www.w3.org/2000/svg">
<g clip-path="url(#clip0_56_372)">
<mask id="mask0_56_372" style="mask-type:luminance" maskUnits="userSpaceOnUse" x="0" y="2" width="20" height="21">
<path d="M0 2.88501H19.9999V22.8849H0V2.88501Z" fill="white"/>
</mask>
<g mask="url(#mask0_56_372)">
<path d="M5.5328 19.8684C5.48241 19.87 5.43163 19.8708 5.38084 19.8708C2.6246 19.8708 0.390625 17.6364 0.390625 14.8806C0.390625 12.1247 2.6246 9.89035 5.38084 9.89035C5.43163 9.89035 5.48241 9.89113 5.5328 9.89269" stroke="#1A1A1A" stroke-miterlimit="10" stroke-linecap="round" stroke-linejoin="round"/>
<path d="M10.3407 19.8396C10.1559 19.8603 9.96805 19.8708 9.77782 19.8708C7.02158 19.8708 4.7876 17.6365 4.7876 14.8806C4.7876 12.1248 7.02158 9.89041 9.77782 9.89041C9.96805 9.89041 10.1559 9.90096 10.3407 9.92166" stroke="#1A1A1A" stroke-miterlimit="10" stroke-linecap="round" stroke-linejoin="round"/>
<path d="M19.314 13.1865C18.6203 11.2644 16.7802 9.89046 14.619 9.89046C11.863 9.89046 9.62891 12.1246 9.62891 14.8806C9.62891 17.6365 11.863 19.8707 14.619 19.8707C16.7784 19.8707 18.6173 18.499 19.3123 16.5794" stroke="#1A1A1A" stroke-miterlimit="10" stroke-linecap="round" stroke-linejoin="round"/>
<path d="M17.8888 7.1908H2.23486" stroke="#1A1A1A" stroke-miterlimit="10" stroke-linecap="round" stroke-linejoin="round"/>
<path d="M16.5747 5.89913L17.8887 7.19081L16.6198 8.48248" stroke="#1A1A1A" stroke-miterlimit="10" stroke-linecap="round" stroke-linejoin="round"/>
</g>
</g>
<path d="M30.2955 7.24858L33.5341 16.7259H33.6648L36.9034 7.24858H38.8011L34.6136 18.8849H32.5852L28.3977 7.24858H30.2955ZM40.3452 18.8849V10.1577H42.044V18.8849H40.3452ZM41.2031 8.81108C40.9077 8.81108 40.6539 8.7126 40.4418 8.51563C40.2334 8.31487 40.1293 8.07624 40.1293 7.79972C40.1293 7.51942 40.2334 7.28078 40.4418 7.08381C40.6539 6.88305 40.9077 6.78268 41.2031 6.78268C41.4986 6.78268 41.7505 6.88305 41.9588 7.08381C42.1709 7.28078 42.277 7.51942 42.277 7.79972C42.277 8.07624 42.1709 8.31487 41.9588 8.51563C41.7505 8.7126 41.4986 8.81108 41.2031 8.81108ZM44.4659 18.8849V7.24858H46.1648V11.5724H46.267C46.3655 11.3906 46.5076 11.1804 46.6932 10.9418C46.8788 10.7031 47.1364 10.4948 47.4659 10.3168C47.7955 10.1349 48.2311 10.044 48.7727 10.044C49.4773 10.044 50.1061 10.2221 50.6591 10.5781C51.2121 10.9342 51.6458 11.4474 51.9602 12.1179C52.2784 12.7884 52.4375 13.5952 52.4375 14.5384C52.4375 15.4815 52.2803 16.2903 51.9659 16.9645C51.6515 17.6349 51.2197 18.152 50.6705 18.5156C50.1212 18.8755 49.4943 19.0554 48.7898 19.0554C48.2595 19.0554 47.8258 18.9664 47.4886 18.7884C47.1553 18.6103 46.8939 18.402 46.7045 18.1634C46.5152 17.9247 46.3693 17.7126 46.267 17.527H46.125V18.8849H44.4659ZM46.1307 14.5213C46.1307 15.1349 46.2197 15.6728 46.3977 16.1349C46.5758 16.5971 46.8333 16.9588 47.1705 17.2202C47.5076 17.4778 47.9205 17.6065 48.4091 17.6065C48.9167 17.6065 49.3409 17.4721 49.6818 17.2031C50.0227 16.9304 50.2803 16.5611 50.4545 16.0952C50.6326 15.6293 50.7216 15.1046 50.7216 14.5213C50.7216 13.9456 50.6345 13.4285 50.4602 12.9702C50.2898 12.5118 50.0322 12.1501 49.6875 11.8849C49.3466 11.6198 48.9205 11.4872 48.4091 11.4872C47.9167 11.4872 47.5 11.6141 47.1591 11.8679C46.822 12.1217 46.5663 12.4759 46.392 12.9304C46.2178 13.3849 46.1307 13.9153 46.1307 14.5213ZM54.3452 18.8849V10.1577H55.9872V11.544H56.0781C56.2372 11.0743 56.5175 10.705 56.919 10.4361C57.3243 10.1634 57.7827 10.027 58.294 10.027C58.4001 10.027 58.5251 10.0308 58.669 10.0384C58.8168 10.0459 58.9323 10.0554 59.0156 10.0668V11.6918C58.9474 11.6728 58.8262 11.652 58.652 11.6293C58.4777 11.6028 58.3035 11.5895 58.1293 11.5895C57.7277 11.5895 57.3698 11.6747 57.0554 11.8452C56.7448 12.0118 56.4986 12.2448 56.3168 12.544C56.1349 12.8395 56.044 13.1766 56.044 13.5554V18.8849H54.3452ZM62.9474 19.0781C62.3944 19.0781 61.8944 18.9759 61.4474 18.7713C61.0005 18.563 60.6463 18.2618 60.3849 17.8679C60.1274 17.474 59.9986 16.991 59.9986 16.419C59.9986 15.9266 60.0933 15.5213 60.2827 15.2031C60.4721 14.8849 60.7277 14.6331 61.0497 14.4474C61.3717 14.2618 61.7315 14.1217 62.1293 14.027C62.527 13.9323 62.9323 13.8603 63.3452 13.8111C63.8679 13.7505 64.2921 13.7012 64.6179 13.6634C64.9437 13.6217 65.1804 13.5554 65.3281 13.4645C65.4759 13.3736 65.5497 13.2259 65.5497 13.0213V12.9815C65.5497 12.4853 65.4096 12.1009 65.1293 11.8281C64.8527 11.5554 64.4399 11.419 63.8906 11.419C63.3187 11.419 62.8679 11.5459 62.5384 11.7997C62.2126 12.0497 61.9872 12.3281 61.8622 12.6349L60.2656 12.2713C60.455 11.741 60.7315 11.313 61.0952 10.9872C61.4626 10.6577 61.8849 10.419 62.3622 10.2713C62.8395 10.1198 63.3414 10.044 63.8679 10.044C64.2164 10.044 64.5857 10.0857 64.9759 10.169C65.3698 10.2486 65.7372 10.3963 66.0781 10.6122C66.4228 10.8281 66.705 11.1368 66.9247 11.5384C67.1444 11.9361 67.2543 12.4531 67.2543 13.0895V18.8849H65.5952V17.6918H65.527C65.4171 17.9115 65.2524 18.1274 65.0327 18.3395C64.813 18.5516 64.5308 18.7278 64.1861 18.8679C63.8414 19.0081 63.4285 19.0781 62.9474 19.0781ZM63.3168 17.7145C63.7865 17.7145 64.188 17.6217 64.5213 17.4361C64.8584 17.2505 65.1141 17.0081 65.2884 16.7088C65.4664 16.4058 65.5554 16.0819 65.5554 15.7372V14.6122C65.4948 14.6728 65.3774 14.7296 65.2031 14.7827C65.0327 14.8319 64.8376 14.8755 64.6179 14.9134C64.3982 14.9474 64.1842 14.9796 63.9759 15.0099C63.7675 15.0365 63.5933 15.0592 63.4531 15.0781C63.1236 15.1198 62.8224 15.1899 62.5497 15.2884C62.2808 15.3868 62.0649 15.5289 61.902 15.7145C61.7429 15.8963 61.6634 16.1387 61.6634 16.4418C61.6634 16.8622 61.8187 17.1804 62.1293 17.3963C62.4399 17.6084 62.8357 17.7145 63.3168 17.7145ZM73.5909 10.1577V11.5213H68.8239V10.1577H73.5909ZM70.1023 8.06677H71.8011V16.3224C71.8011 16.652 71.8504 16.9001 71.9489 17.0668C72.0473 17.2296 72.1742 17.3414 72.3295 17.402C72.4886 17.4588 72.661 17.4872 72.8466 17.4872C72.983 17.4872 73.1023 17.4778 73.2045 17.4588C73.3068 17.4399 73.3864 17.4247 73.4432 17.4134L73.75 18.8168C73.6515 18.8546 73.5114 18.8925 73.3295 18.9304C73.1477 18.9721 72.9205 18.9948 72.6477 18.9986C72.2008 19.0062 71.7841 18.9266 71.3977 18.7599C71.0114 18.5933 70.6989 18.3357 70.4602 17.9872C70.2216 17.6387 70.1023 17.2012 70.1023 16.6747V8.06677ZM75.4702 18.8849V10.1577H77.169V18.8849H75.4702ZM76.3281 8.81108C76.0327 8.81108 75.7789 8.7126 75.5668 8.51563C75.3584 8.31487 75.2543 8.07624 75.2543 7.79972C75.2543 7.51942 75.3584 7.28078 75.5668 7.08381C75.7789 6.88305 76.0327 6.78268 76.3281 6.78268C76.6236 6.78268 76.8755 6.88305 77.0838 7.08381C77.2959 7.28078 77.402 7.51942 77.402 7.79972C77.402 8.07624 77.2959 8.31487 77.0838 8.51563C76.8755 8.7126 76.6236 8.81108 76.3281 8.81108ZM83.1307 19.0611C82.3125 19.0611 81.5985 18.8736 80.9886 18.4986C80.3788 18.1236 79.9053 17.599 79.5682 16.9247C79.2311 16.2505 79.0625 15.4626 79.0625 14.5611C79.0625 13.6558 79.2311 12.8641 79.5682 12.1861C79.9053 11.5081 80.3788 10.9815 80.9886 10.6065C81.5985 10.2315 82.3125 10.044 83.1307 10.044C83.9489 10.044 84.6629 10.2315 85.2727 10.6065C85.8826 10.9815 86.3561 11.5081 86.6932 12.1861C87.0303 12.8641 87.1989 13.6558 87.1989 14.5611C87.1989 15.4626 87.0303 16.2505 86.6932 16.9247C86.3561 17.599 85.8826 18.1236 85.2727 18.4986C84.6629 18.8736 83.9489 19.0611 83.1307 19.0611ZM83.1364 17.6349C83.6667 17.6349 84.1061 17.4948 84.4545 17.2145C84.803 16.9342 85.0606 16.5611 85.2273 16.0952C85.3977 15.6293 85.483 15.116 85.483 14.5554C85.483 13.9986 85.3977 13.4872 85.2273 13.0213C85.0606 12.5516 84.803 12.1747 84.4545 11.8906C84.1061 11.6065 83.6667 11.4645 83.1364 11.4645C82.6023 11.4645 82.1591 11.6065 81.8068 11.8906C81.4583 12.1747 81.1989 12.5516 81.0284 13.0213C80.8617 13.4872 80.7784 13.9986 80.7784 14.5554C80.7784 15.116 80.8617 15.6293 81.0284 16.0952C81.1989 16.5611 81.4583 16.9342 81.8068 17.2145C82.1591 17.4948 82.6023 17.6349 83.1364 17.6349ZM90.794 13.7031V18.8849H89.0952V10.1577H90.7259V11.5781H90.8338C91.0346 11.116 91.349 10.7448 91.777 10.4645C92.2088 10.1842 92.7524 10.044 93.4077 10.044C94.0024 10.044 94.5232 10.169 94.9702 10.419C95.4171 10.6653 95.7637 11.0327 96.0099 11.5213C96.2562 12.0099 96.3793 12.6141 96.3793 13.3338V18.8849H94.6804V13.5384C94.6804 12.9058 94.5156 12.4115 94.1861 12.0554C93.8565 11.6956 93.4039 11.5156 92.8281 11.5156C92.4342 11.5156 92.0838 11.6009 91.777 11.7713C91.474 11.9418 91.2334 12.1918 91.0554 12.5213C90.8812 12.8471 90.794 13.241 90.794 13.7031Z" fill="#1A1A1A"/>
<defs>
<clipPath id="clip0_56_372">
<rect width="20" height="20" fill="white" transform="translate(0 2.88495)"/>
</clipPath>
</defs>
</svg>
